<mxfile host="app.diagrams.net" modified="2020-11-10T08:34:18.632Z" agent="5.0 (Windows NT 10.0; Win64; x64) AppleWebKit/537.36 (KHTML, like Gecko) Chrome/86.0.4240.183 Safari/537.36" etag="9fIFojabBwhEWiVGwiyE" version="13.9.2" type="github">
  <diagram id="g0biR_JautmCEhP8nTA4" name="Page-1">
    <mxGraphModel dx="782" dy="3808" grid="1" gridSize="10" guides="1" tooltips="1" connect="1" arrows="1" fold="1" page="1" pageScale="1" pageWidth="2339" pageHeight="3300" math="0" shadow="0">
      <root>
        <mxCell id="0" />
        <mxCell id="1" parent="0" />
        <mxCell id="zVxx0Tfb6Su1z6snV0Rm-1" value="Region" style="points=[[0,0],[0.25,0],[0.5,0],[0.75,0],[1,0],[1,0.25],[1,0.5],[1,0.75],[1,1],[0.75,1],[0.5,1],[0.25,1],[0,1],[0,0.75],[0,0.5],[0,0.25]];outlineConnect=0;gradientColor=none;html=1;whiteSpace=wrap;fontSize=12;fontStyle=0;shape=mxgraph.aws4.group;grIcon=mxgraph.aws4.group_region;strokeColor=#147EBA;fillColor=none;verticalAlign=top;align=left;spacingLeft=30;fontColor=#147EBA;dashed=1;" parent="1" vertex="1">
          <mxGeometry x="200" y="88.5" width="840" height="520" as="geometry" />
        </mxCell>
        <mxCell id="zVxx0Tfb6Su1z6snV0Rm-33" value="VPC" style="points=[[0,0],[0.25,0],[0.5,0],[0.75,0],[1,0],[1,0.25],[1,0.5],[1,0.75],[1,1],[0.75,1],[0.5,1],[0.25,1],[0,1],[0,0.75],[0,0.5],[0,0.25]];outlineConnect=0;gradientColor=none;html=1;whiteSpace=wrap;fontSize=12;fontStyle=0;shape=mxgraph.aws4.group;grIcon=mxgraph.aws4.group_vpc;strokeColor=#248814;fillColor=none;verticalAlign=top;align=left;spacingLeft=30;fontColor=#AAB7B8;dashed=0;" parent="1" vertex="1">
          <mxGeometry x="238.25" y="118.5" width="661.75" height="480" as="geometry" />
        </mxCell>
        <mxCell id="zVxx0Tfb6Su1z6snV0Rm-4" value="Availability Zone" style="fillColor=none;strokeColor=#147EBA;dashed=1;verticalAlign=top;fontStyle=0;fontColor=#147EBA;" parent="1" vertex="1">
          <mxGeometry x="650" y="148.5" width="230" height="440" as="geometry" />
        </mxCell>
        <mxCell id="zVxx0Tfb6Su1z6snV0Rm-2" value="Availability Zone" style="fillColor=none;strokeColor=#147EBA;dashed=1;verticalAlign=top;fontStyle=0;fontColor=#147EBA;" parent="1" vertex="1">
          <mxGeometry x="280" y="148.5" width="230" height="440" as="geometry" />
        </mxCell>
        <mxCell id="aNmgcQQb_zwe8nAP0Jao-9" value="Private subnet" style="points=[[0,0],[0.25,0],[0.5,0],[0.75,0],[1,0],[1,0.25],[1,0.5],[1,0.75],[1,1],[0.75,1],[0.5,1],[0.25,1],[0,1],[0,0.75],[0,0.5],[0,0.25]];outlineConnect=0;gradientColor=none;html=1;whiteSpace=wrap;fontSize=12;fontStyle=0;shape=mxgraph.aws4.group;grIcon=mxgraph.aws4.group_security_group;grStroke=0;strokeColor=#147EBA;fillColor=#E6F2F8;verticalAlign=top;align=left;spacingLeft=30;fontColor=#147EBA;dashed=0;" parent="1" vertex="1">
          <mxGeometry x="290" y="418.5" width="210" height="160" as="geometry" />
        </mxCell>
        <mxCell id="4EBb9_S77bTPxn-zLxTV-42" value="Security group" style="fillColor=none;strokeColor=#DD3522;verticalAlign=top;fontStyle=0;fontColor=#DD3522;dashed=1;" vertex="1" parent="1">
          <mxGeometry x="300" y="448.5" width="190" height="120" as="geometry" />
        </mxCell>
        <mxCell id="aNmgcQQb_zwe8nAP0Jao-10" value="Private subnet" style="points=[[0,0],[0.25,0],[0.5,0],[0.75,0],[1,0],[1,0.25],[1,0.5],[1,0.75],[1,1],[0.75,1],[0.5,1],[0.25,1],[0,1],[0,0.75],[0,0.5],[0,0.25]];outlineConnect=0;gradientColor=none;html=1;whiteSpace=wrap;fontSize=12;fontStyle=0;shape=mxgraph.aws4.group;grIcon=mxgraph.aws4.group_security_group;grStroke=0;strokeColor=#147EBA;fillColor=#E6F2F8;verticalAlign=top;align=left;spacingLeft=30;fontColor=#147EBA;dashed=0;" parent="1" vertex="1">
          <mxGeometry x="660" y="418.5" width="210" height="160" as="geometry" />
        </mxCell>
        <mxCell id="4EBb9_S77bTPxn-zLxTV-41" value="Security group" style="fillColor=none;strokeColor=#DD3522;verticalAlign=top;fontStyle=0;fontColor=#DD3522;dashed=1;" vertex="1" parent="1">
          <mxGeometry x="670" y="448.5" width="190" height="120" as="geometry" />
        </mxCell>
        <mxCell id="zVxx0Tfb6Su1z6snV0Rm-3" value="Public subnet" style="points=[[0,0],[0.25,0],[0.5,0],[0.75,0],[1,0],[1,0.25],[1,0.5],[1,0.75],[1,1],[0.75,1],[0.5,1],[0.25,1],[0,1],[0,0.75],[0,0.5],[0,0.25]];outlineConnect=0;gradientColor=none;html=1;whiteSpace=wrap;fontSize=12;fontStyle=0;shape=mxgraph.aws4.group;grIcon=mxgraph.aws4.group_security_group;grStroke=0;strokeColor=#248814;fillColor=#E9F3E6;verticalAlign=top;align=left;spacingLeft=30;fontColor=#248814;dashed=0;" parent="1" vertex="1">
          <mxGeometry x="290" y="203.5" width="210" height="165" as="geometry" />
        </mxCell>
        <mxCell id="zVxx0Tfb6Su1z6snV0Rm-34" value="Security group" style="fillColor=none;strokeColor=#DD3522;verticalAlign=top;fontStyle=0;fontColor=#DD3522;" parent="1" vertex="1">
          <mxGeometry x="297.5" y="233.5" width="200" height="125" as="geometry" />
        </mxCell>
        <mxCell id="zVxx0Tfb6Su1z6snV0Rm-28" value="Public subnet" style="points=[[0,0],[0.25,0],[0.5,0],[0.75,0],[1,0],[1,0.25],[1,0.5],[1,0.75],[1,1],[0.75,1],[0.5,1],[0.25,1],[0,1],[0,0.75],[0,0.5],[0,0.25]];outlineConnect=0;gradientColor=none;html=1;whiteSpace=wrap;fontSize=12;fontStyle=0;shape=mxgraph.aws4.group;grIcon=mxgraph.aws4.group_security_group;grStroke=0;strokeColor=#248814;fillColor=#E9F3E6;verticalAlign=top;align=left;spacingLeft=30;fontColor=#248814;dashed=0;" parent="1" vertex="1">
          <mxGeometry x="660" y="203.5" width="210" height="165" as="geometry" />
        </mxCell>
        <mxCell id="aNmgcQQb_zwe8nAP0Jao-1" value="Security group" style="fillColor=none;strokeColor=#DD3522;verticalAlign=top;fontStyle=0;fontColor=#DD3522;" parent="1" vertex="1">
          <mxGeometry x="665" y="233.5" width="200" height="125" as="geometry" />
        </mxCell>
        <mxCell id="aNmgcQQb_zwe8nAP0Jao-5" value="Auto Scaling group" style="points=[[0,0],[0.25,0],[0.5,0],[0.75,0],[1,0],[1,0.25],[1,0.5],[1,0.75],[1,1],[0.75,1],[0.5,1],[0.25,1],[0,1],[0,0.75],[0,0.5],[0,0.25]];outlineConnect=0;gradientColor=none;html=1;whiteSpace=wrap;fontSize=12;fontStyle=0;shape=mxgraph.aws4.groupCenter;grIcon=mxgraph.aws4.group_auto_scaling_group;grStroke=1;strokeColor=#D86613;fillColor=none;verticalAlign=top;align=center;fontColor=#D86613;dashed=1;spacingTop=25;" parent="1" vertex="1">
          <mxGeometry x="410" y="288.5" width="350" height="60" as="geometry" />
        </mxCell>
        <mxCell id="zVxx0Tfb6Su1z6snV0Rm-7" value="AZ-A" style="text;html=1;strokeColor=none;fillColor=none;align=center;verticalAlign=middle;whiteSpace=wrap;rounded=0;dashed=1;dashPattern=1 1;fontStyle=1" parent="1" vertex="1">
          <mxGeometry x="445" y="128.5" width="40" height="20" as="geometry" />
        </mxCell>
        <mxCell id="zVxx0Tfb6Su1z6snV0Rm-8" value="&lt;h1&gt;AWS Power Hour Homework Week 4&lt;/h1&gt;&lt;div style=&quot;text-align: center&quot;&gt;&lt;font style=&quot;font-size: 14px&quot;&gt;curious_giraffe&lt;/font&gt;&lt;/div&gt;" style="text;html=1;strokeColor=none;fillColor=none;spacing=5;spacingTop=-20;whiteSpace=wrap;overflow=hidden;rounded=0;dashed=1;dashPattern=1 1;" parent="1" vertex="1">
          <mxGeometry x="880" y="-400" width="440" height="80" as="geometry" />
        </mxCell>
        <mxCell id="zVxx0Tfb6Su1z6snV0Rm-10" value="EC2" style="text;html=1;strokeColor=none;fillColor=none;align=center;verticalAlign=middle;whiteSpace=wrap;rounded=0;dashed=1;dashPattern=1 1;" parent="1" vertex="1">
          <mxGeometry x="418.75" y="328.5" width="40" height="20" as="geometry" />
        </mxCell>
        <mxCell id="zVxx0Tfb6Su1z6snV0Rm-11" value="AZ-B" style="text;html=1;strokeColor=none;fillColor=none;align=center;verticalAlign=middle;whiteSpace=wrap;rounded=0;dashed=1;dashPattern=1 1;fontStyle=1" parent="1" vertex="1">
          <mxGeometry x="838.25" y="128.5" width="40" height="20" as="geometry" />
        </mxCell>
        <mxCell id="zVxx0Tfb6Su1z6snV0Rm-39" value="" style="outlineConnect=0;fontColor=#232F3E;gradientColor=#F54749;gradientDirection=north;fillColor=#C7131F;strokeColor=#ffffff;dashed=0;verticalLabelPosition=bottom;verticalAlign=top;align=center;html=1;fontSize=12;fontStyle=0;aspect=fixed;shape=mxgraph.aws4.resourceIcon;resIcon=mxgraph.aws4.waf;" parent="1" vertex="1">
          <mxGeometry x="517.3199999999999" y="123.5" width="40" height="40" as="geometry" />
        </mxCell>
        <mxCell id="zVxx0Tfb6Su1z6snV0Rm-40" value="WAF" style="text;html=1;strokeColor=none;fillColor=none;align=center;verticalAlign=middle;whiteSpace=wrap;rounded=0;" parent="1" vertex="1">
          <mxGeometry x="517.94" y="163.5" width="40" height="20" as="geometry" />
        </mxCell>
        <mxCell id="zVxx0Tfb6Su1z6snV0Rm-41" value="" style="outlineConnect=0;fontColor=#232F3E;gradientColor=#F54749;gradientDirection=north;fillColor=#C7131F;strokeColor=#ffffff;dashed=0;verticalLabelPosition=bottom;verticalAlign=top;align=center;html=1;fontSize=12;fontStyle=0;aspect=fixed;shape=mxgraph.aws4.resourceIcon;resIcon=mxgraph.aws4.shield;" parent="1" vertex="1">
          <mxGeometry x="600" y="123.5" width="40" height="40" as="geometry" />
        </mxCell>
        <mxCell id="zVxx0Tfb6Su1z6snV0Rm-42" value="Shield" style="text;html=1;strokeColor=none;fillColor=none;align=center;verticalAlign=middle;whiteSpace=wrap;rounded=0;" parent="1" vertex="1">
          <mxGeometry x="600" y="163.5" width="40" height="20" as="geometry" />
        </mxCell>
        <mxCell id="zVxx0Tfb6Su1z6snV0Rm-43" value="ELB" style="text;html=1;strokeColor=none;fillColor=none;align=center;verticalAlign=middle;whiteSpace=wrap;rounded=0;dashed=1;dashPattern=1 1;" parent="1" vertex="1">
          <mxGeometry x="560" y="209.5" width="40" height="20" as="geometry" />
        </mxCell>
        <mxCell id="zVxx0Tfb6Su1z6snV0Rm-44" value="" style="outlineConnect=0;fontColor=#232F3E;gradientColor=#F78E04;gradientDirection=north;fillColor=#D05C17;strokeColor=#ffffff;dashed=0;verticalLabelPosition=bottom;verticalAlign=top;align=center;html=1;fontSize=12;fontStyle=0;aspect=fixed;shape=mxgraph.aws4.resourceIcon;resIcon=mxgraph.aws4.ec2;" parent="1" vertex="1">
          <mxGeometry x="419.75" y="292" width="39.5" height="39.5" as="geometry" />
        </mxCell>
        <mxCell id="zVxx0Tfb6Su1z6snV0Rm-46" value="" style="outlineConnect=0;fontColor=#232F3E;gradientColor=#F78E04;gradientDirection=north;fillColor=#D05C17;strokeColor=#ffffff;dashed=0;verticalLabelPosition=bottom;verticalAlign=top;align=center;html=1;fontSize=12;fontStyle=0;aspect=fixed;shape=mxgraph.aws4.resourceIcon;resIcon=mxgraph.aws4.elastic_load_balancing;" parent="1" vertex="1">
          <mxGeometry x="559.75" y="169.5" width="40" height="40" as="geometry" />
        </mxCell>
        <mxCell id="aNmgcQQb_zwe8nAP0Jao-2" value="EC2" style="text;html=1;strokeColor=none;fillColor=none;align=center;verticalAlign=middle;whiteSpace=wrap;rounded=0;dashed=1;dashPattern=1 1;" parent="1" vertex="1">
          <mxGeometry x="710" y="328.5" width="40" height="20" as="geometry" />
        </mxCell>
        <mxCell id="aNmgcQQb_zwe8nAP0Jao-6" value="" style="edgeStyle=orthogonalEdgeStyle;html=1;endArrow=none;elbow=vertical;startArrow=block;startFill=1;strokeColor=#545B64;rounded=0;" parent="1" source="zVxx0Tfb6Su1z6snV0Rm-44" target="zVxx0Tfb6Su1z6snV0Rm-46" edge="1">
          <mxGeometry width="100" relative="1" as="geometry">
            <mxPoint x="500" y="348.5" as="sourcePoint" />
            <mxPoint x="600" y="348.5" as="targetPoint" />
            <Array as="points">
              <mxPoint x="520" y="298.5" />
              <mxPoint x="520" y="189.5" />
            </Array>
          </mxGeometry>
        </mxCell>
        <mxCell id="aNmgcQQb_zwe8nAP0Jao-7" value="" style="edgeStyle=orthogonalEdgeStyle;html=1;endArrow=block;elbow=vertical;startArrow=none;endFill=1;strokeColor=#545B64;rounded=0;" parent="1" source="zVxx0Tfb6Su1z6snV0Rm-46" target="4EBb9_S77bTPxn-zLxTV-99" edge="1">
          <mxGeometry width="100" relative="1" as="geometry">
            <mxPoint x="500" y="348.5" as="sourcePoint" />
            <mxPoint x="715" y="310.5" as="targetPoint" />
            <Array as="points">
              <mxPoint x="640" y="189.5" />
              <mxPoint x="640" y="310.5" />
            </Array>
          </mxGeometry>
        </mxCell>
        <mxCell id="aNmgcQQb_zwe8nAP0Jao-11" value="" style="outlineConnect=0;fontColor=#232F3E;gradientColor=#4D72F3;gradientDirection=north;fillColor=#3334B9;strokeColor=#ffffff;dashed=0;verticalLabelPosition=bottom;verticalAlign=top;align=center;html=1;fontSize=12;fontStyle=0;aspect=fixed;shape=mxgraph.aws4.resourceIcon;resIcon=mxgraph.aws4.rds;" parent="1" vertex="1">
          <mxGeometry x="370.25" y="483.75" width="49.5" height="49.5" as="geometry" />
        </mxCell>
        <mxCell id="aNmgcQQb_zwe8nAP0Jao-12" value="" style="outlineConnect=0;fontColor=#232F3E;gradientColor=#4D72F3;gradientDirection=north;fillColor=#3334B9;strokeColor=#ffffff;dashed=0;verticalLabelPosition=bottom;verticalAlign=top;align=center;html=1;fontSize=12;fontStyle=0;aspect=fixed;shape=mxgraph.aws4.resourceIcon;resIcon=mxgraph.aws4.rds;" parent="1" vertex="1">
          <mxGeometry x="740.25" y="483.75" width="49.5" height="49.5" as="geometry" />
        </mxCell>
        <mxCell id="aNmgcQQb_zwe8nAP0Jao-13" value="RDS (Primary)" style="text;html=1;strokeColor=none;fillColor=none;align=center;verticalAlign=middle;whiteSpace=wrap;rounded=0;" parent="1" vertex="1">
          <mxGeometry x="362.75" y="538.5" width="64.5" height="20" as="geometry" />
        </mxCell>
        <mxCell id="aNmgcQQb_zwe8nAP0Jao-14" value="RDS (Stand by)" style="text;html=1;strokeColor=none;fillColor=none;align=center;verticalAlign=middle;whiteSpace=wrap;rounded=0;" parent="1" vertex="1">
          <mxGeometry x="732.75" y="538.5" width="64.5" height="20" as="geometry" />
        </mxCell>
        <mxCell id="aNmgcQQb_zwe8nAP0Jao-15" value="" style="edgeStyle=orthogonalEdgeStyle;html=1;endArrow=block;elbow=vertical;startArrow=none;endFill=1;strokeColor=#545B64;rounded=0;" parent="1" target="aNmgcQQb_zwe8nAP0Jao-12" edge="1" source="aNmgcQQb_zwe8nAP0Jao-11">
          <mxGeometry width="100" relative="1" as="geometry">
            <mxPoint x="424.5" y="498" as="sourcePoint" />
            <mxPoint x="524.5" y="498" as="targetPoint" />
            <Array as="points" />
          </mxGeometry>
        </mxCell>
        <mxCell id="aNmgcQQb_zwe8nAP0Jao-18" value="Replication" style="edgeLabel;html=1;align=center;verticalAlign=middle;resizable=0;points=[];" parent="aNmgcQQb_zwe8nAP0Jao-15" vertex="1" connectable="0">
          <mxGeometry x="0.267" y="-2" relative="1" as="geometry">
            <mxPoint x="-41" y="-2" as="offset" />
          </mxGeometry>
        </mxCell>
        <mxCell id="4EBb9_S77bTPxn-zLxTV-1" value="Edge locations" style="fillColor=none;strokeColor=#5A6C86;dashed=1;verticalAlign=top;fontStyle=0;fontColor=#5A6C86;" vertex="1" parent="1">
          <mxGeometry x="920" y="-90" width="340" height="130" as="geometry" />
        </mxCell>
        <mxCell id="4EBb9_S77bTPxn-zLxTV-8" value="" style="outlineConnect=0;fontColor=#232F3E;gradientColor=#60A337;gradientDirection=north;fillColor=#277116;strokeColor=#ffffff;dashed=0;verticalLabelPosition=bottom;verticalAlign=top;align=center;html=1;fontSize=12;fontStyle=0;aspect=fixed;shape=mxgraph.aws4.resourceIcon;resIcon=mxgraph.aws4.elastic_block_store;" vertex="1" parent="1">
          <mxGeometry x="312.75" y="258.5" width="40" height="40" as="geometry" />
        </mxCell>
        <mxCell id="4EBb9_S77bTPxn-zLxTV-9" value="" style="outlineConnect=0;fontColor=#232F3E;gradientColor=#60A337;gradientDirection=north;fillColor=#277116;strokeColor=#ffffff;dashed=0;verticalLabelPosition=bottom;verticalAlign=top;align=center;html=1;fontSize=12;fontStyle=0;aspect=fixed;shape=mxgraph.aws4.resourceIcon;resIcon=mxgraph.aws4.elastic_block_store;" vertex="1" parent="1">
          <mxGeometry x="800" y="258.5" width="40" height="40" as="geometry" />
        </mxCell>
        <mxCell id="4EBb9_S77bTPxn-zLxTV-10" value="&lt;font style=&quot;font-size: 9px&quot;&gt;EBS&lt;/font&gt;" style="text;html=1;strokeColor=none;fillColor=none;align=center;verticalAlign=middle;whiteSpace=wrap;rounded=0;" vertex="1" parent="1">
          <mxGeometry x="312.75" y="298.5" width="40" height="10" as="geometry" />
        </mxCell>
        <mxCell id="4EBb9_S77bTPxn-zLxTV-11" value="&lt;font style=&quot;font-size: 9px&quot;&gt;EBS&lt;/font&gt;" style="text;html=1;strokeColor=none;fillColor=none;align=center;verticalAlign=middle;whiteSpace=wrap;rounded=0;" vertex="1" parent="1">
          <mxGeometry x="800" y="298.5" width="40" height="10" as="geometry" />
        </mxCell>
        <mxCell id="4EBb9_S77bTPxn-zLxTV-15" value="" style="shape=image;verticalLabelPosition=bottom;labelBackgroundColor=#ffffff;verticalAlign=top;aspect=fixed;imageAspect=0;image=data:image/png,iVBORw0KGgoAAAANSUhEUgAAAKsAAACrCAYAAAAZ6GwZAAAgAElEQVR4Ae19B1RUWbZ2vflHEZQgsRJFjqIoUVDJQTJIRnI2iznnDCgoOSnBiCiikoM52znZberpnu4J/Sb1hJ437833r3MuhYgXFagC7OGudde559a9O3z7O/vsc6pQTlyVLeKrbTFa2tgKW4RnWSNoozX8FlnDPdIaTl62mO1gh1mzZ8LBaQ5cXZ0QFOaJBfvnjRq7Rwt+xA7D6RrQ09WEkZEOjI31YGqsi2nTjGE2xQBTzAxhaWUOW1sLzHachcB5gViRsRwLi/xGFQ/Y8OTEUaLadBtqgxHp59shbIEjZnlMh4WFGWZMN4HFDFNMNzeBgb4WdAjwhrowNNCGrq4m9HRFmDbVBFGLvEfG3qoRxusN+vVNuDDQ04KBgRZ09YTQ1RVBX08EoUADPL467RsZ6lBCk/t6OiLEx0cgsdB5VOPJiauyodmJacn18PcjD1nD3EwfJsZ6MDTUhoGBNgVXT08EPk8dfAKwthC6OprQ0RFCX18LutqaiIgJGBF7yagfSbzepF9LpAEjA4KjVvfgJgNcE4JusupoC+h9bW2CpTaEAi78/eYittB+VOPJIY7HVjIEHbH2mA2EfBUY6jMA6+gSMEXdADNkJSTV0xOCAqwngkDIReg8f8SV2Y24/XGRPrCZOR0WllPpjGBrPQ0ODtaYPdsS9rOs4eg0i5YxHt6eiI2Lw/ZtW2iCkAbekQVWEArVoK+rBT1dgpeIDnBtLQF4PDXw+RrQ1hHSjEtaMnNpCrgICQ5ATPlMqdklCZ5xCGCxVTY04CPZmlgKYKAn6skGZLrX0RZScElmFWkJe0AnRNYU8hAc6Iv4w84jbj9XXYmWKGRWMDTUoX4YGelByFcHX6AOQ0NdmBrrQVdXyMwYOlrIWLZAKnaHZlnA1EgL06YawdREj9asxkY60NPTgkiTB5EmH9razAxFCEywFIr4iIqaJxV7JMkvhqzdhI2ptGZIOwJ9Cy9tkOmJTFc0q+prUYAJYSmoOkytqqsjgp6+Fg2C92KrEbOXDGwxXiKh2kuzgo6OiBKTlDBcnlp3CSOis4KBvg4dgKEhAT3viwMqljeU/rwdMzDVVBdGhlowMdaFqak+ppkZwNhIl5ZRBvraMDTQpXW/jo4mdPW0YGSgg5TF86ViD/VFQnzivARQ5YsAiJUM1+fOCUYwMdKG2RRDCvAUU32Qkyyq9PW0YGpigCmmhkzmMtCmmcol2uwFWQkgI2S/lvDlGlFfjxlYAkGvEkZfSKdfUkeSaTc8bJ5U7PVfPx2mxiSTakJPnyxMtTHFRB80u+pq0mxrNsUIZIFF1gZkt2CW1zTEHmPKweGK92D4RTNrzDEmo45k67/BHGYmOjA2IgDqUFCnTiEZgQAvhKmJLkxM9Gh24Au4tGZ1dJ6JkhO7MJJ2E9D5ApWXakRSC4pEfHC5TI2o1WvaJTsZPIEGosKDpWJ3+DYb2NkZQV1FHsrKCuDxVKCpyYW6hgpUVJSgpcWnJCVZldT/hgZamOM3hRk4o4AHNOH0YweHBLrnrOx1Te4PYz/soAWmmOjSmk5bRwAdbT6zwBJqQHbiBExWVoTBNE1MdRLBNtgAG1el4FD2CpoRRtp+EwNNTJtqTGcCMu1OMdWDkSEZWEJad9NdDG0htLTIwkYLQr4G0pLjpY5vWL4Fgvabw2ezGVyWGsEuQRd2UfqwCdKHmbMIplY6mDrVGJGRgThYs0rq9gyVT5Ss0ZSYNqDtMWumrRz+vqujBTQ1lKAuVILhTC5sQ/XgtMAInptNEVls9ZJ9G2vCUV29CeUlu5B4dA5iRsBeMV7mUwg5SY2oQ7P/9GlGMDPVh462Jq0Vp001hbGhLvQNmAXYjBlmI2qvON5baqJQe3If9lcnI7bS9iV8RxJPsX1ifMV9Tu8b5Hok+xGZNgjLs6CZXmzL6+zZeCAIaflOb/28WCbJxOLr18kXP/Om58UzAtmAN9AX0Xra1EQf2jp8mBiR7GUIY2Mya2jRGnKqib5E9b/Jvtd9vrM8GhVl27C+PLLHptc9Lwm8BiufkjX6KJO13rV2xcG5WHLYHSNtt7erLQRqClBUnAQVFXkIhOpQU1fGf/2/X0BRUR6aIj54GmpQUFLEZJXJ0BQJce5U+YjbTXBbsW8u0nIdEH3MZlTYQxNEP3zk0EAftWYMfcfa1WV+2FMRi+jSbqDfAfsbz+Tj3InMUYP3luwQpBU5jhp7XsdHTvRRa8wnTCZtRXf7jvTjKmYi4fAsxC23e6fsP1m1FeUl+0YF3tlHU5FW6vxO4MchBCVk7TnftX55L9uJH++A/ZvWB40qvOPS7DG/iElaoxk/DiFpVHeA39WWlgHl1u+MH7t3RFGySgrvuHJ7rKjwe2f8H6zfHPpiRTdh39E2Y7MPUnIcaFaVlD/JNc7Y1ZiKnY2pr7RVd7Jw9r1i1L1X/FJbdG0b6/NEDpFHshaxr/roRoZYEsI7rdAJuzPje+SL9bxNS56JKbWVqD1vo3cwcaJkjaqwZBwtt6RGv2v9ldn+WJ8TggU5Hkg47IDX2b++Pgo7G1MgJtzVLy/is+8f0PNv//wLhuMgeuJjZuGz7x6g6ZMTlPCU6JdTsOwMyZADi0fsYWss3uaI9FLHAccvPn8WVq8LfCfiz4nqRVAC0kj1F1a4YXV54KD0r6sKREHFYqzaHoqY1S40i4kJ2fTJ8WEloqTI/vy/H1G7SQYvpBk7hZK4b3yWVzljVbUrFpe6Yn2xP+LLbZFYMQvRNGu/OZ7pBc7YujeSkT2C8afce4N+mlkjuwk7km16vgvWbvOnmeF1diSXzUFGqSc2FgZiV3kEzURZbStQe78QtecPY8/uhZLiy6iUQ0h89csGOjPsuJyCg2fmofxkDNLK5iChdCa2FwbhRMlynC5dhbK8RcgrWICsohTsyo/GtqIwbC6dhzXFPlhU4QKC86oqH1RUrMaebWlYtN33jfiT6ft18ZHm5xyieDScUcVWSNkzC5kFcdSexPJZyCj3wMYif+wpjEJO0QIUHlmGokNLUF24ArnbYrFnQzQyt6ZSUv3f//0vGk7l4vaN+mEj2YmyPYPWtWFZyKDf7f3iH3//OW7dLMOF63nIPbkIO3bOw/ZNwSjcm4qqnAycKlqH06WbUVOwFlVHMlCamY7DuxKxZf88ROdZU6znl1ohZLMNQlbYjQou9MdHhqxlDGEjyiwYY0egv+OED6LLrJBe6oyoMiuUFabjeOFyVOYuRdXhFagt24SzZVtxPG8VjucuR+neZBTsTsbZsvX4249/wN/+8jv8/ukd/Osfw1N3EsIsjXHozZsBXe/dmDSg5/t7+KuHLbh2sQof3GrFd18/wv/88x94/sMjtHUcxuWaTajKWYii3Qko3Z+C6twlOJa1AIe2xGLvukgs3s9k1+VZ7sjcFoXlhzxGLP6EoG/iHyeih5iWiCwjL4iJO7z90+cTcLgiAikls5F5JBJ7tkSisngTGqp34VzZOhw7uABHNkei6vBydDYU4qM7l/Dsi3v4039/B/z737h/bhuuZXnjy7Yy/PjDd/3Ftt/7n33/EOQkCy5SJ4rPytvZdIW/43Iqdl5OBW0bu9vLqag8suL1n9/O7pFFZIr11J/ZjoP7l2LNsvn92vSmDx5dOYPWXYE4mmiC8jQrXNgfg1/dv4yffvgG//evf1Lifv/bJ+i4cwIFdStpCbC9ZB72FocjvzIFqyt9kVA2E4nlNjT2JMOOVPyp3jfwj2ZWMaNHss2ui8DJpk149O1D/POnv+N///dfNFa/+/ZzfP3lPfz214/x09//ir/98B1+/X4XPmsoxu0ji9G2zA6t4ZNwI1YBV9KN0LAxBB93nnspzn/7548vEbHw6lZKsCWnfGkmGYzfXReX92QC8v6J0mU4X7kOVXnLcPTIMlQUrkXJkRXIz16EmrLVKM5Ox+nyda/o8w20x9rzkdQe8QAhuxOkNn3dcb3+GI4u9UNFlBmuLDTFzRQRrkar4mqUErpCZVDn+V8o91XD6XhL1K/0QceeBNwtWoeW4sUoO+iHjbumIGO/IY4d9sSVwjBsKnN8yZ/emW4w+EjjfQ4x5MXJpOLh7Bdc3YJPv3uAP/7mGdpP5aBs73KcyluHj26exx8/u47nlwtwJ3cJ6jPmoirMAOU+6jgTpo1LaTPQkjYNHdFauBYhQHOYFipj7XEwORB5q+NQsmcBqk9sxYKj7lLx71rjYlTnp1PZRQfisHl5IA5ujcXRg0tRc3gVzh/dgrNl23CyYA2OH1qG/SuDsSLVF8vinXvsObAxAtl7Ynr6JLu8wJ7ExZISmQwucVYmA682fyf2JvtjlecMbJk3B0WJc1EVa49zMdPQtcgSd1bNxN11jri90g4tYXycdZuI8wECNC+wRuMiKzRECHApQB6dIbK4laCCG0tNcbtsDTKOer6iv689I9mnZA0vZYBhWgtIu7/4lC8aPzmOv3bva/7rp7/h48vFOL/MAs1puuhK4qEzfBKuzZ+MrlgNtMTrozXJBE0BKrjsrYKuNFvc3OiD5uSZKPA1wwpfB2SEBmJ15DysjwlFwdpVOLw4FnvTAlF8YAkWFbjRwA+Hf13nduPC0XXI3xmDnPUhKNobj1MFGagtXomT+cvRXrd/UPiSEo18JXpgdSjWh7lhoYs5lnjYYFNsINZHBGFtsAfW+Ttiv88MtCba4sZKd9zfGYC7e0Jxb18Ybm7wxc1Nfuhc4ojzkWY4EWqKc6EGqI80wrHkuShM8cCiYmYgSTv+g5XPIS+GlzEEpddS7BOSXnnU8NLs9u9//xu//vJD1Cx2RVWUCdrSzXEl0Ri3UkzQtdgKN5bNxK01rri/3Qf39kfiw5JFuLMzFDfWeqEzzR4Xom1Q6Dcdm53MsNnXHjv8HbAzOhRrIsOxZ3E6tkT7oWhTOjbnBSOy1IoSRRL+Vqx2RIqXKbKXB6DxTBYjl2D3lvhdLI3HzZLwt3qe2J10eBb2LA1Hht9sJNmbIsXVGiu87bEjZA7yw+1REm2PmrjZuJRsj2sZTri90Qv3tvjgykpP3FrljOsrnHFjzVx0pNihat50bPaxRUaAJ9bOD8Xa6CAcSIvBkWXzcbEmGxmnAgfsTw933tL/wTzPkLV0Rrdx0mkXn/J5haQ9jP33v1G+NQ3bAm2wJWg2DiUGYWukD5b6OGGvjwVaUmfh5lpP3Nvqi6urPHElxRKtEcZoDjVCo58WLntrojFIF3dXeeFqrAXOhZijep458t2MsMHRHKsDPbAubC6yl8Ui62ACUkucED5Ef89v8MP1lTPw5SoRbicpoyN8IjpDZNARyMEpVw4OO8qgzGMyCr3UURnAxfFgTZwIFaDaSwbn5nJwJXwc7qWq4lbGNNw+TYjeP+7RxTZYctAV+xaGIc3VAgnO1ljkYolMX3OUh1qgdv4MXImbimsp09AZbYRWPx7O247DiWm/QM2UX6J6mixOW05C3SwlXPQUoClIF82hpqgJNEOWrxVWe8/CqhA/VOzci7wlSTiwYB46asvQ9UUDSNwYUvVv33B+3k1WC4T1AMZkB0n0EysdUfuwqGe67yFor4uzBbuwKcINi1wtsC7cC2tCfbHOzwE5YbNRlzgLrQkz0BSij/OuGqiZJotKfQ5qTP4Lp6b+ArUW41BrI0vP8+5CNMzVRGOAPpoCDXDRTxeXfTRx1EWIHW7TsNZnDjbHz0PegSXYfCx80P5WbE1GdrgdtjrpoC5pJjoTzXA3xQgfrLHBvbV2uLvOCffWzEZ7iDouOI5Hc7AO7mzzx61tPriZMgXX5mvjZqgaWiM0cSzNH/kp7pQQbHgnlMzCuoMB2J0ehhRnayQ6WmKXuynOzjPExVADNAVroy1QiDY/Lpo8lXDJURZNjjJodBiHc7bjcdZmPE5Z/BKnZvwSp2eMQ+2MX6LWSgbnHZTQ6K+NW8vc0RE5DcVeZljhNhMrI8KwZ1ESspdG41ZTLY0SiR+JI5t9vbPjcHxOyRpWwowcSbbbL6Xgd3/5dS9avnp5t+Uctsf5YoHLDCxyt8a6wDkoiJiJlgX2uJUxC52RBmh0VcA521+i1vKXOGM1Dmesx9Eg1NmMRx25thqPs9bjUWcjg7O2sjhrp4DzTqq44M7FRZJ1vQW44KaGUidN7HIzw7oQDyza4IqoYmsM1N8ja2KxMdQFybNMsTUxDDuTYrEy3B+LvRyx1W0qWuOtmVpxdxDuH4rHRxXLcD8rHjc2+KExcjqy3Uyw2Gs2loUFY2P8fKyLCUJmeiwyk/xwqSLzFXtWH/LD7kWRSHe3wSZnE5zx0USzPx/NPupo9VJGo5sCGl3k0eaugAZXJZx1mozzjhNxYc4EXJo1ARfsZdA4SwYX7MbhfC+8zhDMZk7ChblaaPTXQWe8FZpDDJEzRwer5zpg/fwg5K9LxSe3O2jQyNoiq3XFK/YNFL+hPs8hAiR9Xv74+KvM7HPn2RcfIWd1Mha4WCB5zlRs8LZGYYglLsWYoyNCH40eirjoOAEtTjJodhiPi/YyDPizZVBpLYPMqbLYbCyLPaayKDGXxVmbCThhKYdam4mon62AegclXHBSxSVPHhrncnHJSR7nXSajxEWEtT4zsW1TKBaUu72174dXRGNVoCOS7I2Q4TsbG6J8sNjHhdZ+BZEOqE9zwo11nriz2YfWip3LXHEt3QpXUi1xY5UbbmQ4ozPZHqX+5lhtb4xk9zlYFhKAil37kL80BdtjPXHq0MYeexJyZ2HhwtlY7jEdOa4itPiqotVrMi65KqDJWQ6dLnKoc5iE/JnKOGirhl3WalhlroaFJiqYr6sEL6EifASKiNFRQrqhItL1J2GNoRxyzSag2kIG52xkUEcG90x5nHfWwCU/XTT6aaPGXQtbPCywKtwX5TtX4Nnn7/dEruvRBSQcc+ixUdK8eZM8StbQbsIOtY0/5oBnP3zR41x/F3/5ww8ozszAYm87WoOt87TE8SBjNIXp05qr1VMJLe6KaHCZjFNz5JFjORHLjeURpqUAP6ES5mkrw1OgRIMRKVJAgEgZviJlrDBQxO4pCjhsoYRTdoq47KCIemcVXHJXxWVXRVx2lkOLuzwaPJSxxm0GjuVtoMC/ye+slbFY7jsbsZa6SPawwzJPO+zwt8D15Bm4u9YJNxbboiNUF+dnjscJ81+g2oiDCj0OqvQ4qDbk4JQJh5YsF13V0BKih/e3huB67AyUeJpghYs1lgQHY+/SRdga7YPqzDVYXuKLtcv9sMVrOo57qKHDRxFNvqq47KmENlc5nJklh+3mClgwRQWxxhoINuAh0EAAbz0ePLXU4KWpDE+hEtz5ivAUKNJrD4ESAoUKSNBRwGojeeSaT0SNpRzO2k7EudnMbNTgLcQlbyFqXPnY5W6OtWHeOHF4J37/3fOeUJL4kjgTYr0JN0l/ziECxafYgMH035aod5+0Y9uRSKwL80CckxXWOk9B8zxtdISI0OyljAYneVzxUMAl18nYZaWKhVPUEKk7GT6iyXATKMCdpwRXnjwcNRTgrC4PVw0F+AiV4Ks1Gb4CZczVVEWsviqSjVSxe4YqmpyVcdlNGS2eKrjsIo8W1wno8pbHBTdF7PKzwsa8EMwvsX0J+N7+F2xIQbrrdMQ5WSLJ1Q6HvU1xcf5U3EixQHuEMc149XPG47LDeDQ5klpxHOpsZWi5ctqK1NQytGyptRqPU5YyOGM5HhcCTGkWu5JijytRpiix5yJj9nSsiAjCtmgf5G5chF0BVqj1UUWHnzxavCejzXsyLrtNwqapCojSm4wQfVX462rQM0BHA/5a6vDV4WKuLhdumipwUp2E2YpysFeQw6zJspijOhEu6vLw5CtirlAZ4dqTscFIAeWW8jg3SwH1cxRxwVkVl70EuOShjpPOGtjtZoatsQG40XS2h6zkgpQFq+siegjbGy/xNWmHwie29xmyFk9nBBdPZ4g7wH780TlvzKjk++ptF5OxoNgNe5ZHIcnZBgfcDNESKESTlypa3RXQ4SKLCntFrDXXQKgRH34GQnjqcuEuVIGzhiKclCfCTkEOnqLJCJ3OR4S1DgJNeHBSlIGT/DhE6qvDT1MJ3nxCXlUE6/OQaMxDvp0qLhLCErK6TECH5wRc9ZPDGXdFVC0LRvrB2az+l+1eigWuNohytMEKRzO6WOqKMkDTPCEuOk1Cq+tEtLgroNlNGV3uE9HhIoM2hwk4ZzceLXNkcWnWL9FgOx7nrH+J81bjQQhLa21bGdSSjDZHFQ2+umgJ0kOrFxeZs7WwdVEK1vrY4Ly/CrqCJqHNVwGNPso47SyPREMlBGipwFukAm8tFbhxVeCny0WagwGC3bTh4yRCbIAx1qXMQM7aWSje7IxDqxywNdEGC7zMEDxVAHcNeXioTYQPXxFeQhVE6apgt7kyzs5SRIPjZDS4qeOSmwouO8vjtIsadrmb4ejeDfj999+8QlgSd0rOAfIldJDPc8iLocUzMJSW1DKvO848KOqRfzArCUuDXLDL1Qj13hponquMi05yuOggi3wbeSyYoooQAw3MM+Bhnj4XPjo8BEwRIsVVH9sTZqBkiwuO7HXD1h0OWLjRGpHrzDBvmymKquKQuTEAIX7aiPcxReRULczlTYa/Lg9hhnzstlLD2TmT0OE2AZ2eMrjiK4MbQbI47c/FitVGPfaJcagt2IqFfo6Inm2Jcg8tXJ3HR5OXGlo8lNDmJIN6R3lc81REo9tkHLRVwcbpqkgzVIK/SBEuPDJgFBGhqwqv7ul4oZ4cskzlUG8rg3obWZy1lkPdLHmcnzMZ5z14uBygiyZ3ZWyPDUCNjxquh0xEu/9EtPvI47izIhKMlBGmrQxvkTKcVeQRZMjDzgRbxKZOwcrttogrsKRxTCmzQkTxDESUzEBEkQW9n5hrjYS9lohcOQW+EZpID5iGVBt9BGkpw09TmQ7sxaZqODlbhQ68RndlOgs1u07CSRc17A20ReuZCvzj7z++FOZPfn3/FdzE+Emj5RCihhQxhA3pJu5A+gdaVrzkQO8O+Wpw28WUHvmhhTOwcOEcrHczxem56mj2VUWjpxKaXeSQYzkJMQbK8NNVp1Obn0gNPjoa8J6liYgEYyRtn46EHAsaADb7wogf3fYnHbJH7OYZiEoyQeR0bQQZ8BCqo4pN5kqod56Aa94yuOY3ATfmyaIjaAIqE0VYu9+1530if2WUOyJsTHHJRwOdfpPR6D4ZFxwmoNN5Aq64yiHbejJijPgIMBDA10AIdx0NWjcTMrl3lyvuQgW48CfDW6CEIKEi3AQqdJZYbaiAExZyuDhLHvVzyBQ8GQ3uGmjy08I+Ry7uR0zAlSBZdPrK4aTLJEQZqGG+ngrmCeRhpySH/QsdMH/DVKwtnoOoEssefIn/p0+6I7nUCuWVHkgutaYE7ovX9qMBWL/JFQFOfAQaacBPSw1+ujykmvBQNUcFLR7KaHJVRLOrHDo8J6HUhYeC5VF4+vkHvcNLr0ki6itfWn0OEUycHGzb34KKEHXV2fCX5C7a7Y4NQbNx1F0D7T6KaPVWRrOnIvZayMNPpAwvLVV4aarCQ6CGxR6m2LJ/Fn0/ucwKm47ZY0mpLbIqnBBdZIX0cntqd3q5Aw6cCKHPRZfYvqQvNG860nPssG3BHMyfIYIXTwHrzOXR6cVk1VvhcrgTIYMr0UrIS5/Sg8PupdFIsTbAVX8ltHkr4pKfBhpdJ+KqmyyOWEzEXG1VWp4E6jMzQIghD966fMzhKWOWsjwclWQxU14OMydNgJ2SDOwmT8RsNXn4ChVpbe0jVIGbQBXLTFRQZauERgcFnHXRQGGwJVr9xuN2mAyuBcmhwWMikk1U4KujCleBIly0JiPogBmSCmxQecKbZjUSt60Vs7C5ejYyym1x9uRcRJVYUBz27HZG3bloxJRZ0/7+48GILrHq8ZPEfet2HwRN49I6Nkifj1QzHupclNHiPIkpmebKoWWuPHK8TfCgrQH/+p//eYmwZHtyKPwZCO84RFFwN2EH2q6sDX/J8N4dQtTe8hYUe6Bgy1LsctZCZ4ACWn0UcdlLGYV28vDRVIa3pgo8BZMRbaWNrE2OCMsx73k/tdQalTWuCC+agaQCKxzM8kRB7TxEFlkhpyoSp+uWIrbYHrml6QgrtsDiXE8KINVfNB2RRZbYl+mGWHsduKkrocheHndCJuBOlBzux8jgfqIMLkdPoPrOluxHzMwp6PSfjA7fiWj2UkGnz2TUO8khTHsyXISqCDVUB1nUBOiqw5uvChflyZirxcMirynYm26Fos2OOLbbE6U7PZC90gWrwmwQNpUPu3H/BWeFcZinMQkB2ioI1FKFt7Yatk9Xw0VXFeR7CnA3XAY35k1Am58sNlgowV1bDa4iNQTO0URwgTmiiy1RUuqB1UdnIa/KDbk1Lrhc64uC064oPO6Emnp/JBVNQ2SROchMllhGBvAMHDwWgcbzaxBZaolVJQEUp97xSfOfCi+BCoIM+NhkroJGJzm0uzMl01U/WZx1V8Txzan479+8une+vznjBd5D4FNve9h4yREHlLTik7BdfP26z08/KOrNz55rMjX0fT8s1xJLfGeh2W8SXTgQsta6KyHOUBmh2spwE0xGkqMBIhaZIKN0Fn0/ssgCiytssemoPS6dC+yRGVcwDSvzTLD9kDFaj87DtXOxCCuagcRiC4QWTceqHD9kVUYiosiKvkMCRj7P2GeLUCshFhgr4dY8OdyLksWDhAl4P2U8rqf+Aom5Jkj2dcZFb3lcC56IZm9FNPmp4ozjRHhrToavSBXeWmRbSAUzFRURbCpC2RY3mrX6+ttfv/P0BmwJd8TsSb+Ap4YC/LTV4afHx4bpKqjzGIc74RPQETAR5U6T4KWtCl99dcTZGfb4nlJsg4bKQNQcn4sLZwKwvdIBmVVzsC1LDyv3GWNVpiney9HBe/t4uL1bHZ2ZPJw+oI+OY4FoP59Ay4KtJRGUwCQ0C0kAACAASURBVMl5jlSuON5563wwV10RgTqqOGo/EVfmjscVUjL5y+Bm8ETk+xrgz799laxs8e7Pf3JfrE/8zNv2aRkQXMhkMdLSF9+yf/p+YQ9Be1+srA1jwO0lLzN3FXY7CnErjFk4tHpPwoYZKojRZ2qxOcZK2LLbEZnHXBFTZEHfP1ntjtq6ucipdsC24044XmyC6wdFuL9DHfe2qqNrDR9dawzQtVIHXasm4aMiS+w5aITYvClYVu6OQ8eC0VifjEv1sUgttwPxL2LrFLhOU8NRp4m4E86Q9cPU8aiLmYDSnL3YaaeKB5ET0eY/CZ2+CjjnpoBQPRW6uPHUVMYcBTlEmmvhyvEIKq83Xq21XhS/81U+r/hPA9MLD9LPWx0JZ4XxSHe0QE2SPa4G/T/cDpPFJR95rLdQhKu2Gpa7GeHSBkecP5qDleX2uHwyALUlPjha6Y1dJdbI36uF3PVauLFcFZ1J6uiI00BnEg/tCVx0JPPRmcpFRzoPXRl6aN9qjCMHRNhXYYuwQitsPhiG5NLZ1A9iT3SeBfLWe2Cm/EQkGSmha+54XPOfQBeiN8PkUOcxHn/45jH9sXvveBMesPk3UD696XkOeUCsaKDt0ZuZvW3uuSYZt6/chbGzcWmeMq4Fy6LTTw5HHeURb0RqVCW4CBURsNEYi4ptsbvCCQcrXVF3yhst9YHYUmKFzfsMkL1eG03LNdGVxkNHIg8dSaTloiNJA53JGuhI0EBbtCq6UuVRtIaP0mx97Cu3xr4SL6wrdUZ8CZNliV0xC01wyFsDLQET8CBeBh+ly6AuRg5pjuZ4GDEBXUGyaPOVQ9NcOUToq9MBFcSfBGsFWdTs787wLLidq/bo8Ttrhyu6GlN7+s31K/rFeXuIHS4kmuJO+DjcDZNDjbs8IvQVMX86D1UxBrgWo47sJHtUHfRE68kgtNR4oT7TDKfXCnBzFUNGQsyuFD660riUoJ0pXHSl8tCZwkNnMjk10JWshutLVNGx2wSrs3QRV2KH/Ko4xJTY0BmJlAvJh6yxKngaPDSUUO04EbeCJ4DU9ncjZHAjQhan10b0xFl8QXjQN97S6HOCC6djXjfwtB1Af/OF/v+OiNSzveVtSBSihYzSEFm0+8phq5USfLRVMVdHDUGpBjSQe0udUHbUE2dP+SL7uBtCC6ahaIcI1xaroTORkJILEgR6kkCQIKSQDMKlBO5M46I1iY+2BC6uLFJH+y4RSsvNsLHKEdtrXJBUbIk1ZbZYV2KLM5vNUe08Hu/FyeCDBRPQuWASjjlMwL1IGVwJlMMNPzksN1NGgK4aXHgKcCbfnBGcCqejszaE2kv6F2vm4solf1w67Yn2pnD6OX2uqBvXwuk4U70QzRc20PerS9e/gnfGIkOcD1ami707IXLYZ6cAf2N17LZXwo1l+riQ642j6WaUEIcrLXAnxxgdS3gg/t5aI8QHu4S4nsFD10Ieri7loY2SVIMhLcGGYEROMsgTNNCRpIK65crIyDLGulI7nDmZiI5LqaisDUFowXTEb5qGqClc7LZUwINwWdyJksX9WBncjpuApkWWYo72tIQHJNGJ8enrv6T6HCJosCeZ7vs7/vrTX0A+J7Lj9lijMMYYt0PH4VbIBJz1nIhkU2W4i1Th5S7EvAJzRBbNQHaFK+or/FFa6YWdeaa4tVqFEo9mjVQ+rizkop1kihQNGihC1PZkLtoTubixiofrOzRRG04+51MCd6ZqoHqFAJH5Uxk7ii2wrNQaEaS+3WmCYmd5PIgej/fTZLA9ai7uhf0SN0NkcDtEFmVzJsFdRx0OfGUEGPN6MLpQ6kuvm04GouNsADouzuv5jPj6YZEe3j/Ax4Odanh/vxo6d4lws8INN88xWIixztmX3vPe2mg+LgfJ4m6kLG4ETcJyMwUs8ZmCs1Ei3AybiHu7puHqiQDUZYYhe5sOuhZx0Z7KQ1sKDw828PE8TxMf7xPi3iYBbm8ToHGxAG3JPFxZwENHGhftZBZK4uL6Cj66VvDRGM+juF5dpo5zBYZYXWyPzBIvWtcT+4JzpiFovi4WGcpTst6LnoCHSRPwIHkcPthl/0rI02u8enwR+yeNlpI1qGAao6yAIe5A+q9Y3usGIey+5uUIy5mBhP3TsWqHHprDJqHSZSI8tVQQPEWAoiwvEH0riu3RfioIDcf8UJ9rgYZlPFxfLsSdTZq4sZKHtjQ+bq/jo2GRJppJ5kznozOdi6tL+bi8XID0g6Y4sZCP+kguulJ46CBnMh9tKVy0rp6MjApzOigIiERfWP40NC7Wwf3wcXgvWRZZMyfiftQEXAuSxa1AGQTqqdIFjptQmT5PwS8wx+XKeWg76Y+uC6E98u5uUUJXsgrao9Vf1ItJfLSTTBavjvYYVXQmKOHO6vH44oxrj7wLp1ZS3NcGqaBlngzuRMqhy38S4vQVsC3ABNcTubgdKYd782XwIFkOLYtV0LaYZEk+uhbwcGMZD59sF+DpQU08O6KF5wUCPCsW4N4OAZqSeZSkV5fwcS2Dj5KN2ijcroMLi/lomM+UB+2J6rixhoeyYiNsrnbCoROe1B6KzxoTrJ+jgc5AWdyPIYtQGdxJHYf3CoJ7RZi5HAhfxPiL8RxInxNECFpAAigm6sD6v/vLm/+S9O7TTqRVe9Gtl/AcM+wLVcMcoSpS3E2QXmyH0PzpyN7jgtJj7rhT64L21UJKxJZkHp7ni/B1EckaQnyZy8UX+SI0pHDRksRHczwX7+0S4FEhFx+cFuHCei7qo3i4voSPVloi8NCRykNrrBo+qjJFXNE0xs9uf68ftsStSDm0hE1EnQsHDyJk0B4oj+Ouk+AkUoOd0kTcqonrwefG+VCczJ+Ls8cCqZz3dymjMUoNXWQhkyREVyqXqRmTX9SLXSkCZhYg5InVQGukMm4s+0UP3uePpyJ/Hh+FTrK4FiKHq/5yiJ+iimg9JXwUIYu785lF4Celhri2RoR2OquQrMrF7fUCPMrUxJNMIZ4c1MKTQ0I8PSLENyU83NzCx4U4Hm5v4OFRAQ+3KzVRt1+EuiQemmJJKUUGNBlQGsher4Xggml0q2td2UyQs/xMAsrSDHB+rgwexsng0w2muLtvLm6e2vsSWZ/98KgHH4Z4A+PPQPjHYYjKZFY6Qmgg377/ya8fvGT86zodn9cjpnw2zSyuoVqI3zQdlcd8ULDbAymF1ggtMEdrli46F3DRnsajhHu0l48nOSI8y9PG0yN8PCvQxLflXHSuE6AuiosPD/DwvJKPb04KcXEtH1ULhahdJkRdNA+di/joWMCnK+Mb69SRccioG1jGv7qimWiOVseZvStwM5iDW+ET8CB0EnbZKMJaXQlbomf2PJ+/wx3N1X7oqI9EW94UXE1VwbUlAtzaKEIzraV5uL6Ui7ZUPl3MkKzfmUTqaQ10pGjQLEtW6V0LNdCWoInWaAV8UmVI5Rd4T8YRBzmc9VJAg4scljlqw05JCXdC5XA3cgIeJk/A3W3K6FzIkKwzTYOWAO2LePgiS4gnWQI83q+Jx5kCPMnRxNNcIb7KE6I2no97O7l4fozBp2MnH3WJPHSSWYksVMkAIguzRarYuU+XxmX7+QS8/6wDf/vLc1zcOR9n58rgix1z8IcH51lDS+IvzqyD4c9A+MchCgi7mZZcD6x/8cMaVif6u0lKg47PL2DFmVCqK7nIGqfO+KLhVBC25E3H2WX8nmnu7ho+Hu0jmUMTT7JFeHxQgCe5Qjw9zASjazUfH2Xx8axcgGdHNfF1FR+FRXrYtUAL9Yv4aFklwJk4HhoTuOhcpIYdu5iAiP3NOmyLE7E6KExwwoPIX+BWhCwehsoh3EgZVsoTqX3XT0Qgf5t7Dz6fnTFDR7IqOtN5aE7i4XmBFr4pFeBiogDvbeejfqkIjfFcXF0gQOcCDVpjt8Xx0JWugY+LteifuXSmCNCWyEV73GR8UmmAXDd5FDrKothJCYet5LAt0AQrw0xx0kUW9+eTenE8ri1XpFm1PVkD7anqaE/hoimRi7ubeHhymJBVgC/3aOKLA9r4KpOLp3maeJrPx+MiAZ6VCfCsUhMfHuEjd6sOKhcL0ZDAo3VvRxoPbfHqeK/QGJ98WvxS2L5+eB2PTu3Fj49uvXS/d4fEX4znCw4Nnk+v4x8tAwLzGZIyrTkG0j/Vz15rb4f6u376+y9wuGMT4stnI6LQHOV7tdG5QB2dqTwajGur+PjkgCaeZgvw1X4hviLZI4uZ7h4f4uPLXAEe5fLw+RE+vigU4PlRAT7M5eHKdh5uHeDj9BI+ykMFaE/lgwTlyEYtCqzYv7U5lqhNM8Y+Vx4eRI3DdZLJguQwmz8Za0Omd+NgjgeXI9B0Ipj2O1NUqDxx5n+WTciiha8LRHherIFn5SJcSOKiLZGP9mQebq8V4OoKHiX78cUC1IVr4Goaj/ExmY+WWGXke06mZUCegyL2WUzCkWgT3GjwwV7z8fgwdhzuJcqhjdTEqRpoTdVAR5oGOlK5aEvioTGZiw/2CfDkoABf7BHi9gYRHmzm4d52Pj7cw8Vn2Vx8cpiPJ2VCfF3JR3GmDg7GCdCwgI/WpQK0EKwTNHBzowb+/PxGf6Hq9z6JvxjPwfCHEP1t3+eQB4dybqpP7NeRgXzw3vuHcLXAGm1k3zSNS4NB6s5rGVx8eVCApzkCfLlXgI+3a+LOBk083MrD/R18fLCbh4+zBPiU1GulfDwt4eNXlQJ8ViJAQTgPTWQlTFbEqVwcX8l/ydekg9NwOsUImfaT8H7sONwOn4QrPvKwVFbE5bygl54lGN3cNBltCQJ0pQlwZREX720S4GmWCE+yRHh6RBdPDvHwrECE746q41yaEA2RGvj8iADfntLAt3VCnF/DRX042T4ig5FsvfFxOUGIkiARCh0m4PBsRWTaKCA/3oDq3mMtTwfRvWRZNMWpoJVk40QNtCVr9ODUGMtF80IunhVr0XLp4RYBHm7Txv3tItzfwsXHBwT48IAmnhBsyvh4P5uHG3v4uHuQj4o4AepiSbnFxdWVPPz1+8/7DRn5rQfbQeI/FP4M5N1usk5lFOZ1t/lv3++PrJ1fXEDn56//6WBf5//2myf4qCiF7gmSqa4tmYsWUg9mcPFpNiGsJj7fJ8SdDSQgOnh/pwgf7+TiURYXT45o41meEE8LBXhcwkfLZj7y/Hl0Z4Bs45AtrualKt3AMv7NOzIVlSFa2G0zAQ9jZHArYhJavSfCRkUJQfnmCOyFx+cNVmiJU6dZjXwx0ZSogQd7NPHssAhf7ebicSYpU0iWFeEpyfgFmiiYy8U3x7h4ekyIb08JUZ3OQ30Mj+6LNiWQ7MrF5SRNlM3TRoGDDHJnKSB7phL2RWpSOxsW6OBBxDjcTZRDc7wq2hLU0ZqoQb8MubKKi8pVmji3UoBb23j41TEBPswU4VmOJh7v5eHxAS3afpWlzmBTIMCTQj6eVwjx+3MCVKRyURgkwK2d7ri5xgb/+usfAfy7b0hASEpmv1P32L+tzDgdisAB8IUh59vzq/fznICegDAZdjD9VzwEQMhKFC0/FQryu8e3Pv79f/i6rbhnqiNT6cVoHloWcfG0WBPP87TxmNSve3l4sl+EJ/sEeHZAA/e28dGxgYcvcwS4ul0DWwL42ODOR00EF61k+yqBi6trVBGba9pNWOKvOXa7KiFrtgwyZ07Ewwg5XPORQ/AMEVKK5tDnxHjc2aeOtiRmld+RRmpGPi7Fq+NXhZp4nC3EV3tE+GqvCE9ydPA0Wx3PCrXwvJCLJyWatGZ8ekyEb6q5IPJ2eWng5Dwebq8RoiFZBxVhush3mIDc2YrIslHA+kANqvvjHEvcDf5/uJcyCS1JymiOUceleA1UL+Kh+SAPBRs0UbRaiEu7hOjYI8TplTx8eICPT/bw8dVuAZ7sF+LJPg3c3srHnZ18fFMkwBf5XHTu1kFD1nJ8Utz/rEhISggaVWpPbSE7OmyHGB9xhpRmn2ZWsYLBtmxTBCFob3kkA5OF1dsef3p8Fz/98Xu8n+WPlqV66FjNw/MKAa6RrSpSEmTxcW8TH/c38HF3PR8VyZrIjRahJF6A/WF8rPUUICeAR4NLVuStcRq4tVuE1YVTeuyqPuqFvEAB8p1lke8oh0o3JZywk8UqHxMsL/HqeY74cSVDkfkCotcCp5lMyxka+KaMLHA08NkOIW6s08J7mzVwb8eLmvHDHGYR+HWlAE3rNFCVyKfZtpxMw6lmqJxvgrw5sjg8RwmZ1grYGyLEsmJrfFo8C02e47A6Ux9dK1RwbbsQbQUiZO3QxsI8Y+zLs0B9thbq94pwcqMmalYLULpQgJwYAcri+ehYwsXFpZo4HKuJug12+NujWnx/Jx93L+T3GwayFXnyXgHml816yX+2hEN+HkhI2jvO0uzTzEqUDeVkc4Ss+tlkkpFKwHjTn2n3RvODzkN43LUWP35RjraiCBSl83EkzQzHlk7HxSVc3FrPx/FEAQrDeChNMUF2lAlKAnloiCbbROpoTeChNpmPmiwjLC8177GLTPNp6ZpYG6yGjDQhChyUsGv6ROwPN+t5RuwD2wKHZP0LUTxcWSfA80JdfJUtxJ31fNzfqot74poxU4gP94tovfikmEez7O/qBahdrYG9HkL6ZUdzohAXE1SQvF4fqUt1sHaTKVYVWVMbCF6FJ33RsdMAdWHqOBHKRfOhWArPT3/9Br/7shI/fHoI393ZgMfNKfjgZCg+PeqEpw2L8X//+z/4+x++w2+efozfPHn1h9O9Mb7ztBO57Zte8Vvsf+9nxdfihCR+RtotJas/Jes0+B9hSDvQfn8Z803ylp0MRcMHNfjtG/59ATE4pP3zD7/Cj3/8nt76wxcX8fjienx/uwL//eVN/P3PP9D7v3uvFV9Ub8S3XVX441f38K+//xlk5+Hjb+/hzpMOnLhbgJN3C7D70lJsOJdAz5TKudT/oFwmUwTkvYxHU5zyiwVOkgatHa8s4KI1XgP1UWp4Vs7H1wU6eHJQhK/2kJpRm6kds9TwPF+H1tNPCsiOhRA/nBVimzsfXenc7sUfDx3patQuYh+xk9jLdvzjzz/gpz/9nu2jAd8jOsqu70dypSf6+tu7H1n66lesRBmJHSHoQPky2Oc5vQlFhAymTzIl27HsVOhbyyPPEjkffzuA+pZNqYTukZmBkEZ8Nsd1L3CSNNAey8XdDRrI2aCFyi1a+KJSE78/rYnalVz8ukiAXx3i4/leUjNq4uv9Gri2gYe29Tx8XyzAZzlqOBDCQ3EgF13JPAlZ+/ZiSAYVE/Rt473xPHttS+I1GL6ICf62+sXPc5gXzOjo8D8yuDa3fSMrWiRrDUZ+ZIkd9jQuQ8MH1f1mGFaFw3QzP56HzlIuSrdoYv8iATJT+dgbJ0ROqgB5STzsDBHgULgGOharo3m5JnaHi5A7X4SKJD72z+cPk5WMmo9/fZ/OIgRPgutg4iHp+A6WZxz64hGSUc3oKBlMu+FcPyPvLhl5g5dLRq34fUJ8MnWTzDCQsmE4mPHleT18Uq2Dj8v5aD+gg4c5Ijw8oIXLy7l4fkAwHCZQHQQXgg/BiSaKXviJcRxMS+SxHaSMG4y83nEdyPu0DPA7zBBqsG1EsR2bLzQzEsMGK/dN722oS0DZtf1UDykfRhuJWUGRwE2y+0L8JTMP8Z/gEFliLzWc7zxh37Z6U3wk/TmHCPQ7YkYdpdeD7LPFgAAqKfk9tr2FfXTRVJdAFyxkMUXsIOe7cojJKCYk8YEuBusSRgRPNuxIYuiJiQT40yPrNfHlEKL6dj8wlJbNoSe/+5wOhKHIlZR9veWEF9vRaXJ9XQJy2jf2kJqQgkyjxJe+J9teMhv5mV2HV98XyyO/PCN6xOfuy0tB7CADjNjV287RghtZbPY9iD/DbR+HKjzcTdghtMR4tkNS8sfkMLPfSODAFtcLH1TTzDqc9lCy+uZOYRTnTqGjZTB9kinYjsRjHhiMPDItkPcIGGPvDz0+g8WTZH22g8R7uOPD6a2QXvciyED6pVf3sfmE9XXxPYQbiLyeZwdpz9j7UxgyDRG/XZeWssaV3O/BWJxYiK4h6nvd+xzfXDP4UCVDa/sbgaVX90tEvqTsHJMzsDifuMM+Y5J4S4I3A4kHhyiUxJl41IN1BB6/ky8R+ZKwcUzGwGPd/hn7/4U7ElgyZM1hnPDOMWWINcg+G1tvP+mAzyDlDdWesfeHFk+CH9vC+a8//Uh5Mtz4cqhCQqbucyh9tk35j7691yOb6BiK/LH3hx+//ratJMGXgcaT0/sFMZEG2xJish2DlTf2nikd6COJA1s8SWkgSd68rX80s5KHJXHWv1/F5htCC20lIl8SNo7JePtYrz0bxxpPsg4ZCRwpWb0OEQemgGlNu9uB92tus/8CfW1tnETkD9U+Sb0fX+4O4uuH39zDR9/cw63H7Si+shchBcyglBSekrJ3sPbsaFjCSlZyXxJ8Gah/HPrCIYag5HoofUJKtuNgywYqd6jyR8P7Nbfz2Fyk90h9RwemhPAcaX9fl3zEtpHWe5j8pWT1OmjSTabudpD9RTVBrIEkAWacG5p8r0Mj+379e+xlTl+n156J+1n42/Yp+7/CIim+DDSenB7FYoIOse0bONJv+7QektYz3PIIAd/2IBk2JN+GIewQ8RxuP3vrIyVO34P4RhPPCPhFM+vcbsWSaNm2OojTxEFJyB8pObcfM/+Pad/g9dcvvrLvnfaX4PybP3/7inskliMVRw5RLMmzv9EoSR0jIeuVqHXfYBuc5CNxUEfCVknpZPOZlAaSkj9QOZSsntkMYSXR9lfnEMMkIX+k5LAFrrU7cL/986v/KQT5Le+77O/C6v7XHyPlF0fSiqtvsa+WV5+JoyNS0vqGSx4bWUlWPfewku0jeo9MowSP4Hybd464JF5sx/YLi0csjpSsntnG3QYYU1CH0ifOsB1rzsSByCXkGor8kXr/ye/Y/46fzde+93786S8MafOs3xn/+9uiIyQeqfhxehOIuX5BqMH0V59h/rWQvgEjGWYw8iRt32DlZTWv7+vSgPuEtCQTx5a69cJiaHgP1p8XsWDXf76fGSO414B7IYNJQNLu08zqkcUYLIk2OM+GNYjnH1ZBEvJJZh0pOaQOldTR+sk5xJS40kw7Uv68Ti/bQpn4PpL4c4jBPWd2r2tyf5B9toCSryYHK0/S9g1W3rw8a7yJsGyLLTY8xPduftWOVadjmRgMEu/B+vO6eLBtW9EYSoEvb2v/C7JmG8M9y+gl4g62T5zqexDnByuPOiNB+4YqL6tp/SukJb8PWHU6huJHPh8oaR//7nMcaForEfyH6h95n+0gA4vK7k5kwx1Pjnv3SJFke+urdjZfqaOS1EOAG83ySMZkG7is4HTfJIO66uYRBB2xHjG8FlQFsppI1h0jiTfNrO6ZTEaVVEvAZjuiS1yYAEhYn6TslpacVadiBkxagl/Lx0xdKy27+pNL7GU7iD00QYxQ/DjE4Benca9rcn9w/cLOPWy+YtWpWInIl7S9wyUvusQVrZ+w/ziEFbDumx/86i62nl846HgM1L/+kg0x5zd/+hZbzy/qjuPg+DFQe8TPU7K6UcIaw+0AQ9yh9lf2MzILOvZQJ4cq/11/f36JC93C6u+r2v6IS4hS0LEbgYetKXElFa++eL7uiw6xbWQApR0LHNZ4cojDxNieUwJ9Egy2g4xYaejrsZ34IQH7h0seIR0ZwL9h+bqWDb/e98iUnFYZKBV/P/zVqwvk3rp7X9c9OEYHTw9mUsSfQ5UcMGTIKsG2t0Pi6w9/dVfieqRl/3DLPdC0Dk9+O/B93Me//QwHGtcyhJFQ/EgGH8hBnmcGjuR51DsOTGY9YARX4igZFd3nUPuPWYAnI1ZS8odq32h9f+XJGLR8PPC69sef/kwXZGRqJhgPxb+BELX3s/kdu6UaX0pWsWOu+xnCSqLf31TSG0hJ6qNyJWj/SMubX+yCyhtHMNC6lpBHnG0DcqxeIu7b4E30sh0k67+NLaQ8Ccjt1ivheHCIA4ScPaeE+pX9bF8RAHt0Eb0S0tcj82co70DjOrDNVGyk6n2PZNvmj+uw4mT0C8zfgA95lu0gCztCQkLGNx1ksJBnaUzeoG8g8ecQgS7dAiXZ9kdWAoYk9UjL/tEoN/VowFuRhY1M3//pW+S178L8YufX4k9IyXb0jhux402DhxDWvzsxSSreHCJIfBKWi6+pgiH0M/oZofsvr+vRIUl9Q7X3XXqfkIDUh4PZRSBEvPFlG/ZdXgsyy/WNNyk92I6oImc6C4qfJzbUPej/t7xExgdf331Fvvj9weDNkHWfAWPIPgNGuAT6ZPSxHQQMFwnIp0SXoL3vqrzN5xZS8rFh/aZ7pEygxL20hiHuPgOQ/VO2oz98SPJ53UGTk4TizSHEoWwn7T5DSiRJ9dmcIDWPpORL2t53WV5UoRNdkLH9WootDmz3vvrtZyDlQt+DTPmUJ/3wgySm/hZfRJ6k4k0zq3M3YSXdsgFHRq6k9YzJYxKOGIeME9GDrm37EpX0ScwI4cTy2drXZVhiz5vef5vPOUSxtE62KYVMPdLSNyb35Vj6HbJEXvvuNy6G2Aja9x7JumfvH8WmugWILHRijSEpKdiOYzcOsz4/0HhRsjrtZZyUdNv8Efs2h6T1jMl7c/wIwc7eP8b6bwGwEext7r3/9R2Q8/qjNlz/sg1f/eYz1teOXWfIOtQ4cXoLINeS7BMj2Q4yLYh1SVKfWCYZseLrMfkviCzGZHPdApBEMtCvVdli+Tb3iD6x7qHEg+NMCarfLUwfkuyTKYPtWH58vlT0Oe2VrP3/CfJSKvxBksqb9k3Z4vg298jCy/eQhUTizSEBYVgv+Xb5cfZvQwg40tQrLX9+7nL7qznfhpT9PUMSlqRwo2WA4x6GqNJo2ZyovXeMOiANfQSYMbmDiyfZxO97IFxoOAAACkNJREFUkFKB7X7f5/r2SUbdeJYhqqTiwSGCpHn2dYL0ifPS1Dkme3AxfVOsksr9sPfSGhy9fpjGsG/pQAhKsvORtl3wOWgh8RhTsjrs0XtJsCT7bKPy+z99IzV9hKiStP8/RR4hF9tBZsHRgifHoTuzSqslWxpsh7T0jcllsupAcVhaM58tTDSLMgN2cHIHasfrnmcy624mszpIoSVTBttBphRp6KPASsGPn7tcMr2zHctq5o+aOHEIYRx261ODmGvJ9vdeZAdhaU1UL53S0y9t/34u8o9ey2XjKhLLfKXKj4HgxyFEnbOLEFQPc7qJK8l+f9MLKcKloU/a/vxc5ZNvodiO0eQvhxCTkEZarVfWDDYMUHEtV6p6peXPz1Xu+yzbVuQXU6PJXw5DVN1u4kinZWMrAWfOLunoG5M7cFzZY3RHqrwYaJw4swlhSHbtPqXRZ/uBw5e/+YzqlIY+sS+kHZP/5vj2N/vV3j06qvCjZcDsnYxD0mrff36HbeBCWvrG5A4snkuqIlnjU3E1l0koUubH28aLQx4k2UeaLalP2Y65WdOlqlfafv1c5K+vTWMLD5ZUR46q+FCyzqKE1QNtd+oy7S7J9XNbdrKCsbiKAUPa+sfkk4TUfzzLr7Ink/gSX0rW0YIfpzdBybU0+v1NM7sbVktFH5klxL5Iw5+fm/zGD+tYk4kYw9HiLyXrrB06THCl1MaX+LCCUX41R6p6pe3Xz0U+25qC/Gcdo80/DjVoh+7Lhkmhz8bWa4/aGL1S0PcS0GPyXxvfH//x51fCQwhMMytJYKMEPw4xxL47o9JWSn22P/F9jwAiJX0EaGn683OS/wpTAZDSYLThxyEGDcdJiNn3ICN6OHSP6eg/xosq2betSIk22nCjZLXbzjgjzfb03Yq+XKV9Aog09Y7Jfz2+606zb1uR+6MtLhxq0PZuh6TYll3JYSUrGdn2UtQ7XP69q3repbhQstpt12YIs02bjiZp9PsbwWvpCJa+fjogpOjfuyr/8gdnWZPIaPSHY9crgISk0uovqoxgBYWMbJKVqG4p6h+TTxLRq/FlXUv89JdRGQ+aWWd2E1baLRtbT9+pgLT1jslnZkw2HNi2rQiBSQJhe34k73OIQcN1ko3mvgcBZrj0j+l5NdZ940H6pDQYjVi9RFbbrVovGSnp/nvPXt2++u6P3/TolLS+MXmvj+eCo+FsXAUpzQhZRxt+nOE06OoXrazg9B7Fw2nPaAzIcPq/8Bj7OmLNqdRRmUBoZhUDJO22tOsQK1ljCr1eGsnStmNMPpNx+4sHybi9B/JowYtmVmLMcJw7zq9kJSsBZzj0j+l4Oc6nbpezxmO04kTJarOFOKENptXqbiXfT69gr5EONm0fFv3S9u9dk/+QZQ1B2DtcfBgoXpzeL5BrafZd90xlHclkOhLrlqZ+sQ6SOcTX/8n6yOK270EIPFrx4djQwIkwXG1fcEj/4bPbw6Z/uPx8F/SwxeLq562w2TJ8fBgIThxqGM2oou5sI92WELPv8ej7TxmAhtGO4fZ7tOmLLpjbNwy0/2KWky4PBoMHLQOsNzOGDUf7ujppOPSTaX9Mjwj9rR/IIni04sMhhllvEVED6bWU+yWd7NtXLrvNXtgwjPYMt/+jRV9/cUivCBtWPgwED0pWK0LQzSIMR3uwcTvr9ENAGg79w+XnaNdz8hb7thVJGqM1DpzhNiytIoyVrNvOMdPPcNvzn6qPbe1AAjOa8aBktdqkyWTWTZrUWGn2/bLtWclKpiWil4AlTf1j8hl82betbo9q/DmUIJsYB5hrTVhJuc/G1iuftTBkJYSVsv4x+SK2EOBFDIaXD28bDw550LKbIMPVfvfHV/8zWzItDZf+/3Q9kfns21bFnQdpohit+HCIYcN9stVLf/nHn4fdjuH2e7ToSy3vZ91Qt2JUx4Ah60aGsBYbhYyxUu6f6GclOlz6LaXs32iXn315G2sZkFIWOizxHyw+HAsSuI2aGM62uOMgK1ipZWHDasdw+z1a9PWHv9POKaMafw4FcIOwm7DdrZT7KaWhrGRdUZPE2CFl/Rb/4fIfPH31K28SEDqzkcQ1SvHhEMOIkUzLGCrtPplu2A5SHoyEPdL2d7TJ/+K7T16B/9F3n9KsOprx5xAgZ1DCana3w9N/Ba3uG4TII2EPKYMYvcPj/0jp21qXwQo9ybaj3X8OMXAkzoaHZ1hBIze3ns0YEZtGAofh0umwwxQXXoN5UcfBUY85Q9b1AsbQYWz7q1vFDL7/9BZ8DswcdrsoeYYRh+HQt6I6Cb/+w6s/tBZjTVoSjxmj3G/OjPVMZp3eY+jw9Y/fLOuNF+s1yQY+mTMxEvYxRBo+PCStL6M6Efef3GLFtfdNMsu9C/hSsooNpe16YY/hw9Enhf3bHCTTbq5dDoftpsNqHxnMI4nPQPWT2ejAxS1vzKRizHsTdTjiPVB/ej/PIQaO9Pm6+lUMqrgl33RdeHgay6sTMWe7yYjbPtLYEf3eB2bSgdz5aZMYprdqxUQdDT68jQ2UrObrGMKOZJt5aSt+/Mer/7zQm1An01xhWzaSSoIxextD3pH0g4Aubf3ETzJYa26Ugm0b6k2YEZwJ3tK2U9LyOUSg+BQDPVJ9kikHkmXZgvLrP/wKFx6cplMhIbDYF9KOtH+D0U+ImVgcTP0hM8pgyNkbp65Pm+G1f+ZLRBVjNBj7xO8OB77dZOV3B5LfHdyR7Xvttx0yaXsHiBCYZOCaGyU0C5Pgk6nTfN3o8ZcMrGVVCdQ+MtiIvaTkkdRB9lFfDN6RjS/BnRkYA8Of0ztgzCh5IWCk+ySrFLZng+2HwpIKIpFDshUhB1NSZFHCFLZl0WxGiD3Ykyx0iBxSppCWTNtiPUPNkG/jP5nuiU4mk46euA6WVzSzTlvLODKa27BcDwq8tIn7NiQYzc8Qgl54cAbLq5IwmuNJCDtQ+zjkhXftDM11x4GLW2mWGs3EGS7bmBkhGwSXdy2WA7GXknVqN2GnrmGI+671mQXIVppRvnvDNzXDRSBp6SH+dX7azNTeRcGUnO9avAZrL6c3QYmQn0N/1jZjLKtKREFbNiUwyTyD2RaTFuHeRi75epTYXXO9lM4iZED+XOJDsin1ZYB8YzLrGl43EDxmpP5M+/ZbjehiadOZ5ZTIhAjiBc+bvjt/G4K9zTNk0Ih1kpbUlwVtWSA2JRYFY+4+W0z9meJP/KJEHaR/HArMGpJReTSrjrU8hOa4U+IQ8vQ99zdsoUQnBCOZm/T7PtO3b7/VeAxfCfCLlgFm3YLMVjOEHet34zCGB01go4UPHEJQYkzPOdZ/gQXBZQyPUYMHh5B0ymouY1B3YMb6Y3jQ5DXK+MCZQgxaTQg71o7hMLp5QMuAKau4DGHH2jEcSOIapTzgEMNIVqUtuR7rj+ExSvlAywBTSlAumJbX3Y71x/BgEtlo4QeHGDJ2jmHwLnCAIetKDYawY+0YDiR5jVIecEx6DCNGcjHWFw/cMTxGGx/+P/bRfTlbD7SGAAAAAElFTkSuQmCC;" vertex="1" parent="1">
          <mxGeometry x="910" y="318.5" width="120" height="120" as="geometry" />
        </mxCell>
        <mxCell id="4EBb9_S77bTPxn-zLxTV-19" value="" style="edgeStyle=orthogonalEdgeStyle;html=1;endArrow=block;elbow=vertical;startArrow=none;endFill=1;strokeColor=#545B64;rounded=0;" edge="1" parent="1">
          <mxGeometry width="100" relative="1" as="geometry">
            <mxPoint x="730" y="296.5" as="sourcePoint" />
            <mxPoint x="800" y="276.5" as="targetPoint" />
            <Array as="points">
              <mxPoint x="730" y="276.5" />
            </Array>
          </mxGeometry>
        </mxCell>
        <mxCell id="4EBb9_S77bTPxn-zLxTV-20" value="" style="edgeStyle=orthogonalEdgeStyle;html=1;endArrow=none;elbow=vertical;startArrow=block;startFill=1;strokeColor=#545B64;rounded=0;" edge="1" parent="1">
          <mxGeometry width="100" relative="1" as="geometry">
            <mxPoint x="352.75" y="271.5" as="sourcePoint" />
            <mxPoint x="440" y="291.5" as="targetPoint" />
            <Array as="points">
              <mxPoint x="440" y="271.5" />
              <mxPoint x="440" y="291.5" />
            </Array>
          </mxGeometry>
        </mxCell>
        <mxCell id="4EBb9_S77bTPxn-zLxTV-21" value="&lt;font style=&quot;font-size: 14px&quot;&gt;S3&lt;/font&gt;" style="text;html=1;strokeColor=none;fillColor=none;align=center;verticalAlign=middle;whiteSpace=wrap;rounded=0;" vertex="1" parent="1">
          <mxGeometry x="950" y="438.5" width="40" height="20" as="geometry" />
        </mxCell>
        <mxCell id="4EBb9_S77bTPxn-zLxTV-28" value="" style="endArrow=none;dashed=1;html=1;entryX=0.671;entryY=0.952;entryDx=0;entryDy=0;entryPerimeter=0;" edge="1" parent="1">
          <mxGeometry width="50" height="50" relative="1" as="geometry">
            <mxPoint x="1000" y="318.5" as="sourcePoint" />
            <mxPoint x="987.0350000000001" y="271.82000000000016" as="targetPoint" />
          </mxGeometry>
        </mxCell>
        <mxCell id="4EBb9_S77bTPxn-zLxTV-29" value="" style="endArrow=none;dashed=1;html=1;entryX=0.5;entryY=1;entryDx=0;entryDy=0;exitX=0.5;exitY=0;exitDx=0;exitDy=0;" edge="1" parent="1" source="4EBb9_S77bTPxn-zLxTV-15">
          <mxGeometry width="50" height="50" relative="1" as="geometry">
            <mxPoint x="988" y="318.5" as="sourcePoint" />
            <mxPoint x="972.5" y="273.5" as="targetPoint" />
          </mxGeometry>
        </mxCell>
        <mxCell id="4EBb9_S77bTPxn-zLxTV-30" value="" style="endArrow=none;dashed=1;html=1;exitX=0.25;exitY=1;exitDx=0;exitDy=0;" edge="1" parent="1">
          <mxGeometry width="50" height="50" relative="1" as="geometry">
            <mxPoint x="951.25" y="273.5" as="sourcePoint" />
            <mxPoint x="940" y="318.5" as="targetPoint" />
          </mxGeometry>
        </mxCell>
        <mxCell id="4EBb9_S77bTPxn-zLxTV-38" value="" style="edgeStyle=orthogonalEdgeStyle;html=1;endArrow=none;elbow=vertical;startArrow=block;startFill=1;strokeColor=#545B64;rounded=0;" edge="1" parent="1" source="4EBb9_S77bTPxn-zLxTV-15">
          <mxGeometry width="100" relative="1" as="geometry">
            <mxPoint x="225" y="338.5" as="sourcePoint" />
            <mxPoint x="460" y="313.5" as="targetPoint" />
            <Array as="points">
              <mxPoint x="480" y="398.5" />
              <mxPoint x="480" y="313.5" />
            </Array>
          </mxGeometry>
        </mxCell>
        <mxCell id="4EBb9_S77bTPxn-zLxTV-39" value="" style="edgeStyle=orthogonalEdgeStyle;html=1;endArrow=none;elbow=vertical;startArrow=block;startFill=1;strokeColor=#545B64;rounded=0;" edge="1" parent="1" source="4EBb9_S77bTPxn-zLxTV-15">
          <mxGeometry width="100" relative="1" as="geometry">
            <mxPoint x="510" y="408.5" as="sourcePoint" />
            <mxPoint x="748" y="310.5" as="targetPoint" />
            <Array as="points">
              <mxPoint x="770" y="378.5" />
              <mxPoint x="770" y="310.5" />
            </Array>
          </mxGeometry>
        </mxCell>
        <mxCell id="4EBb9_S77bTPxn-zLxTV-45" value="Region" style="points=[[0,0],[0.25,0],[0.5,0],[0.75,0],[1,0],[1,0.25],[1,0.5],[1,0.75],[1,1],[0.75,1],[0.5,1],[0.25,1],[0,1],[0,0.75],[0,0.5],[0,0.25]];outlineConnect=0;gradientColor=none;html=1;whiteSpace=wrap;fontSize=12;fontStyle=0;shape=mxgraph.aws4.group;grIcon=mxgraph.aws4.group_region;strokeColor=#147EBA;fillColor=none;verticalAlign=top;align=left;spacingLeft=30;fontColor=#147EBA;dashed=1;" vertex="1" parent="1">
          <mxGeometry x="1120" y="88.5" width="840" height="520" as="geometry" />
        </mxCell>
        <mxCell id="4EBb9_S77bTPxn-zLxTV-46" value="VPC" style="points=[[0,0],[0.25,0],[0.5,0],[0.75,0],[1,0],[1,0.25],[1,0.5],[1,0.75],[1,1],[0.75,1],[0.5,1],[0.25,1],[0,1],[0,0.75],[0,0.5],[0,0.25]];outlineConnect=0;gradientColor=none;html=1;whiteSpace=wrap;fontSize=12;fontStyle=0;shape=mxgraph.aws4.group;grIcon=mxgraph.aws4.group_vpc;strokeColor=#248814;fillColor=none;verticalAlign=top;align=left;spacingLeft=30;fontColor=#AAB7B8;dashed=0;" vertex="1" parent="1">
          <mxGeometry x="1278.25" y="118.5" width="661.75" height="480" as="geometry" />
        </mxCell>
        <mxCell id="4EBb9_S77bTPxn-zLxTV-47" value="Availability Zone" style="fillColor=none;strokeColor=#147EBA;dashed=1;verticalAlign=top;fontStyle=0;fontColor=#147EBA;" vertex="1" parent="1">
          <mxGeometry x="1690" y="148.5" width="230" height="440" as="geometry" />
        </mxCell>
        <mxCell id="4EBb9_S77bTPxn-zLxTV-48" value="Availability Zone" style="fillColor=none;strokeColor=#147EBA;dashed=1;verticalAlign=top;fontStyle=0;fontColor=#147EBA;" vertex="1" parent="1">
          <mxGeometry x="1320" y="148.5" width="230" height="440" as="geometry" />
        </mxCell>
        <mxCell id="4EBb9_S77bTPxn-zLxTV-49" value="Private subnet" style="points=[[0,0],[0.25,0],[0.5,0],[0.75,0],[1,0],[1,0.25],[1,0.5],[1,0.75],[1,1],[0.75,1],[0.5,1],[0.25,1],[0,1],[0,0.75],[0,0.5],[0,0.25]];outlineConnect=0;gradientColor=none;html=1;whiteSpace=wrap;fontSize=12;fontStyle=0;shape=mxgraph.aws4.group;grIcon=mxgraph.aws4.group_security_group;grStroke=0;strokeColor=#147EBA;fillColor=#E6F2F8;verticalAlign=top;align=left;spacingLeft=30;fontColor=#147EBA;dashed=0;" vertex="1" parent="1">
          <mxGeometry x="1330" y="418.5" width="210" height="160" as="geometry" />
        </mxCell>
        <mxCell id="4EBb9_S77bTPxn-zLxTV-50" value="Security group" style="fillColor=none;strokeColor=#DD3522;verticalAlign=top;fontStyle=0;fontColor=#DD3522;dashed=1;" vertex="1" parent="1">
          <mxGeometry x="1340" y="448.5" width="190" height="120" as="geometry" />
        </mxCell>
        <mxCell id="4EBb9_S77bTPxn-zLxTV-51" value="Private subnet" style="points=[[0,0],[0.25,0],[0.5,0],[0.75,0],[1,0],[1,0.25],[1,0.5],[1,0.75],[1,1],[0.75,1],[0.5,1],[0.25,1],[0,1],[0,0.75],[0,0.5],[0,0.25]];outlineConnect=0;gradientColor=none;html=1;whiteSpace=wrap;fontSize=12;fontStyle=0;shape=mxgraph.aws4.group;grIcon=mxgraph.aws4.group_security_group;grStroke=0;strokeColor=#147EBA;fillColor=#E6F2F8;verticalAlign=top;align=left;spacingLeft=30;fontColor=#147EBA;dashed=0;" vertex="1" parent="1">
          <mxGeometry x="1700" y="418.5" width="210" height="160" as="geometry" />
        </mxCell>
        <mxCell id="4EBb9_S77bTPxn-zLxTV-52" value="Security group" style="fillColor=none;strokeColor=#DD3522;verticalAlign=top;fontStyle=0;fontColor=#DD3522;dashed=1;" vertex="1" parent="1">
          <mxGeometry x="1710" y="448.5" width="190" height="120" as="geometry" />
        </mxCell>
        <mxCell id="4EBb9_S77bTPxn-zLxTV-53" value="Public subnet" style="points=[[0,0],[0.25,0],[0.5,0],[0.75,0],[1,0],[1,0.25],[1,0.5],[1,0.75],[1,1],[0.75,1],[0.5,1],[0.25,1],[0,1],[0,0.75],[0,0.5],[0,0.25]];outlineConnect=0;gradientColor=none;html=1;whiteSpace=wrap;fontSize=12;fontStyle=0;shape=mxgraph.aws4.group;grIcon=mxgraph.aws4.group_security_group;grStroke=0;strokeColor=#248814;fillColor=#E9F3E6;verticalAlign=top;align=left;spacingLeft=30;fontColor=#248814;dashed=0;" vertex="1" parent="1">
          <mxGeometry x="1330" y="203.5" width="210" height="165" as="geometry" />
        </mxCell>
        <mxCell id="4EBb9_S77bTPxn-zLxTV-54" value="Security group" style="fillColor=none;strokeColor=#DD3522;verticalAlign=top;fontStyle=0;fontColor=#DD3522;" vertex="1" parent="1">
          <mxGeometry x="1337.5" y="233.5" width="200" height="125" as="geometry" />
        </mxCell>
        <mxCell id="4EBb9_S77bTPxn-zLxTV-55" value="Public subnet" style="points=[[0,0],[0.25,0],[0.5,0],[0.75,0],[1,0],[1,0.25],[1,0.5],[1,0.75],[1,1],[0.75,1],[0.5,1],[0.25,1],[0,1],[0,0.75],[0,0.5],[0,0.25]];outlineConnect=0;gradientColor=none;html=1;whiteSpace=wrap;fontSize=12;fontStyle=0;shape=mxgraph.aws4.group;grIcon=mxgraph.aws4.group_security_group;grStroke=0;strokeColor=#248814;fillColor=#E9F3E6;verticalAlign=top;align=left;spacingLeft=30;fontColor=#248814;dashed=0;" vertex="1" parent="1">
          <mxGeometry x="1700" y="203.5" width="210" height="165" as="geometry" />
        </mxCell>
        <mxCell id="4EBb9_S77bTPxn-zLxTV-56" value="Security group" style="fillColor=none;strokeColor=#DD3522;verticalAlign=top;fontStyle=0;fontColor=#DD3522;" vertex="1" parent="1">
          <mxGeometry x="1705" y="233.5" width="200" height="125" as="geometry" />
        </mxCell>
        <mxCell id="4EBb9_S77bTPxn-zLxTV-57" value="Auto Scaling group" style="points=[[0,0],[0.25,0],[0.5,0],[0.75,0],[1,0],[1,0.25],[1,0.5],[1,0.75],[1,1],[0.75,1],[0.5,1],[0.25,1],[0,1],[0,0.75],[0,0.5],[0,0.25]];outlineConnect=0;gradientColor=none;html=1;whiteSpace=wrap;fontSize=12;fontStyle=0;shape=mxgraph.aws4.groupCenter;grIcon=mxgraph.aws4.group_auto_scaling_group;grStroke=1;strokeColor=#D86613;fillColor=none;verticalAlign=top;align=center;fontColor=#D86613;dashed=1;spacingTop=25;" vertex="1" parent="1">
          <mxGeometry x="1450" y="288.5" width="340" height="60" as="geometry" />
        </mxCell>
        <mxCell id="4EBb9_S77bTPxn-zLxTV-58" value="AZ-A" style="text;html=1;strokeColor=none;fillColor=none;align=center;verticalAlign=middle;whiteSpace=wrap;rounded=0;dashed=1;dashPattern=1 1;fontStyle=1" vertex="1" parent="1">
          <mxGeometry x="1485" y="128.5" width="40" height="20" as="geometry" />
        </mxCell>
        <mxCell id="4EBb9_S77bTPxn-zLxTV-59" value="EC2" style="text;html=1;strokeColor=none;fillColor=none;align=center;verticalAlign=middle;whiteSpace=wrap;rounded=0;dashed=1;dashPattern=1 1;" vertex="1" parent="1">
          <mxGeometry x="1466.5" y="326.5" width="40" height="20" as="geometry" />
        </mxCell>
        <mxCell id="4EBb9_S77bTPxn-zLxTV-60" value="AZ-B" style="text;html=1;strokeColor=none;fillColor=none;align=center;verticalAlign=middle;whiteSpace=wrap;rounded=0;dashed=1;dashPattern=1 1;fontStyle=1" vertex="1" parent="1">
          <mxGeometry x="1878.25" y="128.5" width="40" height="20" as="geometry" />
        </mxCell>
        <mxCell id="4EBb9_S77bTPxn-zLxTV-63" value="" style="outlineConnect=0;fontColor=#232F3E;gradientColor=#F54749;gradientDirection=north;fillColor=#C7131F;strokeColor=#ffffff;dashed=0;verticalLabelPosition=bottom;verticalAlign=top;align=center;html=1;fontSize=12;fontStyle=0;aspect=fixed;shape=mxgraph.aws4.resourceIcon;resIcon=mxgraph.aws4.waf;" vertex="1" parent="1">
          <mxGeometry x="1557.32" y="123.5" width="40" height="40" as="geometry" />
        </mxCell>
        <mxCell id="4EBb9_S77bTPxn-zLxTV-64" value="WAF" style="text;html=1;strokeColor=none;fillColor=none;align=center;verticalAlign=middle;whiteSpace=wrap;rounded=0;" vertex="1" parent="1">
          <mxGeometry x="1557.94" y="163.5" width="40" height="20" as="geometry" />
        </mxCell>
        <mxCell id="4EBb9_S77bTPxn-zLxTV-65" value="" style="outlineConnect=0;fontColor=#232F3E;gradientColor=#F54749;gradientDirection=north;fillColor=#C7131F;strokeColor=#ffffff;dashed=0;verticalLabelPosition=bottom;verticalAlign=top;align=center;html=1;fontSize=12;fontStyle=0;aspect=fixed;shape=mxgraph.aws4.resourceIcon;resIcon=mxgraph.aws4.shield;" vertex="1" parent="1">
          <mxGeometry x="1640" y="123.5" width="40" height="40" as="geometry" />
        </mxCell>
        <mxCell id="4EBb9_S77bTPxn-zLxTV-66" value="Shield" style="text;html=1;strokeColor=none;fillColor=none;align=center;verticalAlign=middle;whiteSpace=wrap;rounded=0;" vertex="1" parent="1">
          <mxGeometry x="1640" y="163.5" width="40" height="20" as="geometry" />
        </mxCell>
        <mxCell id="4EBb9_S77bTPxn-zLxTV-67" value="ELB" style="text;html=1;strokeColor=none;fillColor=none;align=center;verticalAlign=middle;whiteSpace=wrap;rounded=0;dashed=1;dashPattern=1 1;" vertex="1" parent="1">
          <mxGeometry x="1600" y="209.5" width="40" height="20" as="geometry" />
        </mxCell>
        <mxCell id="4EBb9_S77bTPxn-zLxTV-68" value="" style="outlineConnect=0;fontColor=#232F3E;gradientColor=#F78E04;gradientDirection=north;fillColor=#D05C17;strokeColor=#ffffff;dashed=0;verticalLabelPosition=bottom;verticalAlign=top;align=center;html=1;fontSize=12;fontStyle=0;aspect=fixed;shape=mxgraph.aws4.resourceIcon;resIcon=mxgraph.aws4.ec2;" vertex="1" parent="1">
          <mxGeometry x="1467.5" y="296.5" width="33.5" height="33.5" as="geometry" />
        </mxCell>
        <mxCell id="4EBb9_S77bTPxn-zLxTV-69" value="" style="outlineConnect=0;fontColor=#232F3E;gradientColor=#F78E04;gradientDirection=north;fillColor=#D05C17;strokeColor=#ffffff;dashed=0;verticalLabelPosition=bottom;verticalAlign=top;align=center;html=1;fontSize=12;fontStyle=0;aspect=fixed;shape=mxgraph.aws4.resourceIcon;resIcon=mxgraph.aws4.elastic_load_balancing;" vertex="1" parent="1">
          <mxGeometry x="1599.75" y="169.5" width="40" height="40" as="geometry" />
        </mxCell>
        <mxCell id="4EBb9_S77bTPxn-zLxTV-70" value="EC2" style="text;html=1;strokeColor=none;fillColor=none;align=center;verticalAlign=middle;whiteSpace=wrap;rounded=0;dashed=1;dashPattern=1 1;" vertex="1" parent="1">
          <mxGeometry x="1750" y="325.5" width="40" height="20" as="geometry" />
        </mxCell>
        <mxCell id="4EBb9_S77bTPxn-zLxTV-71" value="" style="outlineConnect=0;fontColor=#232F3E;gradientColor=#F78E04;gradientDirection=north;fillColor=#D05C17;strokeColor=#ffffff;dashed=0;verticalLabelPosition=bottom;verticalAlign=top;align=center;html=1;fontSize=12;fontStyle=0;aspect=fixed;shape=mxgraph.aws4.resourceIcon;resIcon=mxgraph.aws4.ec2;" vertex="1" parent="1">
          <mxGeometry x="1755" y="295.5" width="30" height="30" as="geometry" />
        </mxCell>
        <mxCell id="4EBb9_S77bTPxn-zLxTV-72" value="" style="edgeStyle=orthogonalEdgeStyle;html=1;endArrow=none;elbow=vertical;startArrow=block;startFill=1;strokeColor=#545B64;rounded=0;" edge="1" parent="1" source="4EBb9_S77bTPxn-zLxTV-68" target="4EBb9_S77bTPxn-zLxTV-69">
          <mxGeometry width="100" relative="1" as="geometry">
            <mxPoint x="1540" y="348.5" as="sourcePoint" />
            <mxPoint x="1640" y="348.5" as="targetPoint" />
            <Array as="points">
              <mxPoint x="1560" y="310" />
              <mxPoint x="1560" y="190" />
            </Array>
          </mxGeometry>
        </mxCell>
        <mxCell id="4EBb9_S77bTPxn-zLxTV-73" value="" style="edgeStyle=orthogonalEdgeStyle;html=1;endArrow=block;elbow=vertical;startArrow=none;endFill=1;strokeColor=#545B64;rounded=0;" edge="1" parent="1" source="4EBb9_S77bTPxn-zLxTV-69" target="4EBb9_S77bTPxn-zLxTV-71">
          <mxGeometry width="100" relative="1" as="geometry">
            <mxPoint x="1540" y="348.5" as="sourcePoint" />
            <mxPoint x="1640" y="348.5" as="targetPoint" />
            <Array as="points">
              <mxPoint x="1680" y="189.5" />
              <mxPoint x="1680" y="310.5" />
            </Array>
          </mxGeometry>
        </mxCell>
        <mxCell id="4EBb9_S77bTPxn-zLxTV-75" value="" style="outlineConnect=0;fontColor=#232F3E;gradientColor=#4D72F3;gradientDirection=north;fillColor=#3334B9;strokeColor=#ffffff;dashed=0;verticalLabelPosition=bottom;verticalAlign=top;align=center;html=1;fontSize=12;fontStyle=0;aspect=fixed;shape=mxgraph.aws4.resourceIcon;resIcon=mxgraph.aws4.rds;" vertex="1" parent="1">
          <mxGeometry x="1360.25" y="485.25" width="49.5" height="49.5" as="geometry" />
        </mxCell>
        <mxCell id="4EBb9_S77bTPxn-zLxTV-77" value="&lt;font style=&quot;font-size: 11px&quot;&gt;RDS&lt;br&gt;(Read Replica)&lt;/font&gt;" style="text;html=1;strokeColor=none;fillColor=none;align=center;verticalAlign=middle;whiteSpace=wrap;rounded=0;" vertex="1" parent="1">
          <mxGeometry x="1341.38" y="538.5" width="87.25" height="20" as="geometry" />
        </mxCell>
        <mxCell id="4EBb9_S77bTPxn-zLxTV-81" value="" style="outlineConnect=0;fontColor=#232F3E;gradientColor=#60A337;gradientDirection=north;fillColor=#277116;strokeColor=#ffffff;dashed=0;verticalLabelPosition=bottom;verticalAlign=top;align=center;html=1;fontSize=12;fontStyle=0;aspect=fixed;shape=mxgraph.aws4.resourceIcon;resIcon=mxgraph.aws4.elastic_block_store;" vertex="1" parent="1">
          <mxGeometry x="1352.75" y="258.5" width="40" height="40" as="geometry" />
        </mxCell>
        <mxCell id="4EBb9_S77bTPxn-zLxTV-82" value="" style="outlineConnect=0;fontColor=#232F3E;gradientColor=#60A337;gradientDirection=north;fillColor=#277116;strokeColor=#ffffff;dashed=0;verticalLabelPosition=bottom;verticalAlign=top;align=center;html=1;fontSize=12;fontStyle=0;aspect=fixed;shape=mxgraph.aws4.resourceIcon;resIcon=mxgraph.aws4.elastic_block_store;" vertex="1" parent="1">
          <mxGeometry x="1840" y="258.5" width="40" height="40" as="geometry" />
        </mxCell>
        <mxCell id="4EBb9_S77bTPxn-zLxTV-83" value="&lt;font style=&quot;font-size: 9px&quot;&gt;EBS&lt;/font&gt;" style="text;html=1;strokeColor=none;fillColor=none;align=center;verticalAlign=middle;whiteSpace=wrap;rounded=0;" vertex="1" parent="1">
          <mxGeometry x="1352.75" y="298.5" width="40" height="10" as="geometry" />
        </mxCell>
        <mxCell id="4EBb9_S77bTPxn-zLxTV-84" value="&lt;font style=&quot;font-size: 9px&quot;&gt;EBS&lt;/font&gt;" style="text;html=1;strokeColor=none;fillColor=none;align=center;verticalAlign=middle;whiteSpace=wrap;rounded=0;" vertex="1" parent="1">
          <mxGeometry x="1840" y="298.5" width="40" height="10" as="geometry" />
        </mxCell>
        <mxCell id="4EBb9_S77bTPxn-zLxTV-86" value="" style="edgeStyle=orthogonalEdgeStyle;html=1;endArrow=block;elbow=vertical;startArrow=none;endFill=1;strokeColor=#545B64;rounded=0;" edge="1" parent="1">
          <mxGeometry width="100" relative="1" as="geometry">
            <mxPoint x="1770" y="296.5" as="sourcePoint" />
            <mxPoint x="1840" y="276.5" as="targetPoint" />
            <Array as="points">
              <mxPoint x="1770" y="276.5" />
            </Array>
          </mxGeometry>
        </mxCell>
        <mxCell id="4EBb9_S77bTPxn-zLxTV-87" value="" style="edgeStyle=orthogonalEdgeStyle;html=1;endArrow=none;elbow=vertical;startArrow=block;startFill=1;strokeColor=#545B64;rounded=0;" edge="1" parent="1">
          <mxGeometry width="100" relative="1" as="geometry">
            <mxPoint x="1392.75" y="276.5" as="sourcePoint" />
            <mxPoint x="1490" y="296.5" as="targetPoint" />
            <Array as="points">
              <mxPoint x="1490" y="277" />
            </Array>
          </mxGeometry>
        </mxCell>
        <mxCell id="4EBb9_S77bTPxn-zLxTV-95" value="" style="outlineConnect=0;fontColor=#232F3E;gradientColor=#4D72F3;gradientDirection=north;fillColor=#3334B9;strokeColor=#ffffff;dashed=0;verticalLabelPosition=bottom;verticalAlign=top;align=center;html=1;fontSize=12;fontStyle=0;aspect=fixed;shape=mxgraph.aws4.resourceIcon;resIcon=mxgraph.aws4.rds;" vertex="1" parent="1">
          <mxGeometry x="1457.5" y="485.25" width="49.5" height="49.5" as="geometry" />
        </mxCell>
        <mxCell id="4EBb9_S77bTPxn-zLxTV-96" value="RDS (Backup)" style="text;html=1;strokeColor=none;fillColor=none;align=center;verticalAlign=middle;whiteSpace=wrap;rounded=0;" vertex="1" parent="1">
          <mxGeometry x="1450" y="540" width="64.5" height="20" as="geometry" />
        </mxCell>
        <mxCell id="4EBb9_S77bTPxn-zLxTV-99" value="" style="outlineConnect=0;fontColor=#232F3E;gradientColor=#F78E04;gradientDirection=north;fillColor=#D05C17;strokeColor=#ffffff;dashed=0;verticalLabelPosition=bottom;verticalAlign=top;align=center;html=1;fontSize=12;fontStyle=0;aspect=fixed;shape=mxgraph.aws4.resourceIcon;resIcon=mxgraph.aws4.ec2;" vertex="1" parent="1">
          <mxGeometry x="710.5" y="292" width="39.5" height="39.5" as="geometry" />
        </mxCell>
        <mxCell id="4EBb9_S77bTPxn-zLxTV-100" value="" style="edgeStyle=orthogonalEdgeStyle;html=1;endArrow=none;elbow=vertical;startArrow=block;startFill=1;strokeColor=#545B64;rounded=0;" edge="1" parent="1" source="aNmgcQQb_zwe8nAP0Jao-11" target="zVxx0Tfb6Su1z6snV0Rm-44">
          <mxGeometry width="100" relative="1" as="geometry">
            <mxPoint x="327.25" y="388.5" as="sourcePoint" />
            <mxPoint x="427.25" y="388.5" as="targetPoint" />
            <Array as="points">
              <mxPoint x="350" y="508.5" />
              <mxPoint x="350" y="311.5" />
            </Array>
          </mxGeometry>
        </mxCell>
        <mxCell id="4EBb9_S77bTPxn-zLxTV-101" value="" style="edgeStyle=orthogonalEdgeStyle;html=1;endArrow=none;elbow=vertical;startArrow=block;startFill=1;strokeColor=#545B64;rounded=0;" edge="1" parent="1" source="aNmgcQQb_zwe8nAP0Jao-11">
          <mxGeometry width="100" relative="1" as="geometry">
            <mxPoint x="535" y="378" as="sourcePoint" />
            <mxPoint x="710" y="318.5" as="targetPoint" />
            <Array as="points">
              <mxPoint x="640" y="498.5" />
              <mxPoint x="640" y="318.5" />
              <mxPoint x="710" y="318.5" />
            </Array>
          </mxGeometry>
        </mxCell>
        <mxCell id="4EBb9_S77bTPxn-zLxTV-102" value="" style="shape=image;verticalLabelPosition=bottom;labelBackgroundColor=#ffffff;verticalAlign=top;aspect=fixed;imageAspect=0;image=data:image/png,iVBORw0KGgoAAAANSUhEUgAAAKsAAACrCAYAAAAZ6GwZAAAgAElEQVR4Ae19B1RUWbZ2vflHEZQgsRJFjqIoUVDJQTJIRnI2iznnDCgoOSnBiCiikoM52znZberpnu4J/Sb1hJ437833r3MuhYgXFagC7OGudde559a9O3z7O/vsc6pQTlyVLeKrbTFa2tgKW4RnWSNoozX8FlnDPdIaTl62mO1gh1mzZ8LBaQ5cXZ0QFOaJBfvnjRq7Rwt+xA7D6RrQ09WEkZEOjI31YGqsi2nTjGE2xQBTzAxhaWUOW1sLzHachcB5gViRsRwLi/xGFQ/Y8OTEUaLadBtqgxHp59shbIEjZnlMh4WFGWZMN4HFDFNMNzeBgb4WdAjwhrowNNCGrq4m9HRFmDbVBFGLvEfG3qoRxusN+vVNuDDQ04KBgRZ09YTQ1RVBX08EoUADPL467RsZ6lBCk/t6OiLEx0cgsdB5VOPJiauyodmJacn18PcjD1nD3EwfJsZ6MDTUhoGBNgVXT08EPk8dfAKwthC6OprQ0RFCX18LutqaiIgJGBF7yagfSbzepF9LpAEjA4KjVvfgJgNcE4JusupoC+h9bW2CpTaEAi78/eYittB+VOPJIY7HVjIEHbH2mA2EfBUY6jMA6+gSMEXdADNkJSTV0xOCAqwngkDIReg8f8SV2Y24/XGRPrCZOR0WllPpjGBrPQ0ODtaYPdsS9rOs4eg0i5YxHt6eiI2Lw/ZtW2iCkAbekQVWEArVoK+rBT1dgpeIDnBtLQF4PDXw+RrQ1hHSjEtaMnNpCrgICQ5ATPlMqdklCZ5xCGCxVTY04CPZmlgKYKAn6skGZLrX0RZScElmFWkJe0AnRNYU8hAc6Iv4w84jbj9XXYmWKGRWMDTUoX4YGelByFcHX6AOQ0NdmBrrQVdXyMwYOlrIWLZAKnaHZlnA1EgL06YawdREj9asxkY60NPTgkiTB5EmH9razAxFCEywFIr4iIqaJxV7JMkvhqzdhI2ptGZIOwJ9Cy9tkOmJTFc0q+prUYAJYSmoOkytqqsjgp6+Fg2C92KrEbOXDGwxXiKh2kuzgo6OiBKTlDBcnlp3CSOis4KBvg4dgKEhAT3viwMqljeU/rwdMzDVVBdGhlowMdaFqak+ppkZwNhIl5ZRBvraMDTQpXW/jo4mdPW0YGSgg5TF86ViD/VFQnzivARQ5YsAiJUM1+fOCUYwMdKG2RRDCvAUU32Qkyyq9PW0YGpigCmmhkzmMtCmmcol2uwFWQkgI2S/lvDlGlFfjxlYAkGvEkZfSKdfUkeSaTc8bJ5U7PVfPx2mxiSTakJPnyxMtTHFRB80u+pq0mxrNsUIZIFF1gZkt2CW1zTEHmPKweGK92D4RTNrzDEmo45k67/BHGYmOjA2IgDqUFCnTiEZgQAvhKmJLkxM9Gh24Au4tGZ1dJ6JkhO7MJJ2E9D5ApWXakRSC4pEfHC5TI2o1WvaJTsZPIEGosKDpWJ3+DYb2NkZQV1FHsrKCuDxVKCpyYW6hgpUVJSgpcWnJCVZldT/hgZamOM3hRk4o4AHNOH0YweHBLrnrOx1Te4PYz/soAWmmOjSmk5bRwAdbT6zwBJqQHbiBExWVoTBNE1MdRLBNtgAG1el4FD2CpoRRtp+EwNNTJtqTGcCMu1OMdWDkSEZWEJad9NdDG0htLTIwkYLQr4G0pLjpY5vWL4Fgvabw2ezGVyWGsEuQRd2UfqwCdKHmbMIplY6mDrVGJGRgThYs0rq9gyVT5Ss0ZSYNqDtMWumrRz+vqujBTQ1lKAuVILhTC5sQ/XgtMAInptNEVls9ZJ9G2vCUV29CeUlu5B4dA5iRsBeMV7mUwg5SY2oQ7P/9GlGMDPVh462Jq0Vp001hbGhLvQNmAXYjBlmI2qvON5baqJQe3If9lcnI7bS9iV8RxJPsX1ifMV9Tu8b5Hok+xGZNgjLs6CZXmzL6+zZeCAIaflOb/28WCbJxOLr18kXP/Om58UzAtmAN9AX0Xra1EQf2jp8mBiR7GUIY2Mya2jRGnKqib5E9b/Jvtd9vrM8GhVl27C+PLLHptc9Lwm8BiufkjX6KJO13rV2xcG5WHLYHSNtt7erLQRqClBUnAQVFXkIhOpQU1fGf/2/X0BRUR6aIj54GmpQUFLEZJXJ0BQJce5U+YjbTXBbsW8u0nIdEH3MZlTYQxNEP3zk0EAftWYMfcfa1WV+2FMRi+jSbqDfAfsbz+Tj3InMUYP3luwQpBU5jhp7XsdHTvRRa8wnTCZtRXf7jvTjKmYi4fAsxC23e6fsP1m1FeUl+0YF3tlHU5FW6vxO4MchBCVk7TnftX55L9uJH++A/ZvWB40qvOPS7DG/iElaoxk/DiFpVHeA39WWlgHl1u+MH7t3RFGySgrvuHJ7rKjwe2f8H6zfHPpiRTdh39E2Y7MPUnIcaFaVlD/JNc7Y1ZiKnY2pr7RVd7Jw9r1i1L1X/FJbdG0b6/NEDpFHshaxr/roRoZYEsI7rdAJuzPje+SL9bxNS56JKbWVqD1vo3cwcaJkjaqwZBwtt6RGv2v9ldn+WJ8TggU5Hkg47IDX2b++Pgo7G1MgJtzVLy/is+8f0PNv//wLhuMgeuJjZuGz7x6g6ZMTlPCU6JdTsOwMyZADi0fsYWss3uaI9FLHAccvPn8WVq8LfCfiz4nqRVAC0kj1F1a4YXV54KD0r6sKREHFYqzaHoqY1S40i4kJ2fTJ8WEloqTI/vy/H1G7SQYvpBk7hZK4b3yWVzljVbUrFpe6Yn2xP+LLbZFYMQvRNGu/OZ7pBc7YujeSkT2C8afce4N+mlkjuwk7km16vgvWbvOnmeF1diSXzUFGqSc2FgZiV3kEzURZbStQe78QtecPY8/uhZLiy6iUQ0h89csGOjPsuJyCg2fmofxkDNLK5iChdCa2FwbhRMlynC5dhbK8RcgrWICsohTsyo/GtqIwbC6dhzXFPlhU4QKC86oqH1RUrMaebWlYtN33jfiT6ft18ZHm5xyieDScUcVWSNkzC5kFcdSexPJZyCj3wMYif+wpjEJO0QIUHlmGokNLUF24ArnbYrFnQzQyt6ZSUv3f//0vGk7l4vaN+mEj2YmyPYPWtWFZyKDf7f3iH3//OW7dLMOF63nIPbkIO3bOw/ZNwSjcm4qqnAycKlqH06WbUVOwFlVHMlCamY7DuxKxZf88ROdZU6znl1ohZLMNQlbYjQou9MdHhqxlDGEjyiwYY0egv+OED6LLrJBe6oyoMiuUFabjeOFyVOYuRdXhFagt24SzZVtxPG8VjucuR+neZBTsTsbZsvX4249/wN/+8jv8/ukd/Osfw1N3EsIsjXHozZsBXe/dmDSg5/t7+KuHLbh2sQof3GrFd18/wv/88x94/sMjtHUcxuWaTajKWYii3Qko3Z+C6twlOJa1AIe2xGLvukgs3s9k1+VZ7sjcFoXlhzxGLP6EoG/iHyeih5iWiCwjL4iJO7z90+cTcLgiAikls5F5JBJ7tkSisngTGqp34VzZOhw7uABHNkei6vBydDYU4qM7l/Dsi3v4039/B/z737h/bhuuZXnjy7Yy/PjDd/3Ftt/7n33/EOQkCy5SJ4rPytvZdIW/43Iqdl5OBW0bu9vLqag8suL1n9/O7pFFZIr11J/ZjoP7l2LNsvn92vSmDx5dOYPWXYE4mmiC8jQrXNgfg1/dv4yffvgG//evf1Lifv/bJ+i4cwIFdStpCbC9ZB72FocjvzIFqyt9kVA2E4nlNjT2JMOOVPyp3jfwj2ZWMaNHss2ui8DJpk149O1D/POnv+N///dfNFa/+/ZzfP3lPfz214/x09//ir/98B1+/X4XPmsoxu0ji9G2zA6t4ZNwI1YBV9KN0LAxBB93nnspzn/7548vEbHw6lZKsCWnfGkmGYzfXReX92QC8v6J0mU4X7kOVXnLcPTIMlQUrkXJkRXIz16EmrLVKM5Ox+nyda/o8w20x9rzkdQe8QAhuxOkNn3dcb3+GI4u9UNFlBmuLDTFzRQRrkar4mqUErpCZVDn+V8o91XD6XhL1K/0QceeBNwtWoeW4sUoO+iHjbumIGO/IY4d9sSVwjBsKnN8yZ/emW4w+EjjfQ4x5MXJpOLh7Bdc3YJPv3uAP/7mGdpP5aBs73KcyluHj26exx8/u47nlwtwJ3cJ6jPmoirMAOU+6jgTpo1LaTPQkjYNHdFauBYhQHOYFipj7XEwORB5q+NQsmcBqk9sxYKj7lLx71rjYlTnp1PZRQfisHl5IA5ujcXRg0tRc3gVzh/dgrNl23CyYA2OH1qG/SuDsSLVF8vinXvsObAxAtl7Ynr6JLu8wJ7ExZISmQwucVYmA682fyf2JvtjlecMbJk3B0WJc1EVa49zMdPQtcgSd1bNxN11jri90g4tYXycdZuI8wECNC+wRuMiKzRECHApQB6dIbK4laCCG0tNcbtsDTKOer6iv689I9mnZA0vZYBhWgtIu7/4lC8aPzmOv3bva/7rp7/h48vFOL/MAs1puuhK4qEzfBKuzZ+MrlgNtMTrozXJBE0BKrjsrYKuNFvc3OiD5uSZKPA1wwpfB2SEBmJ15DysjwlFwdpVOLw4FnvTAlF8YAkWFbjRwA+Hf13nduPC0XXI3xmDnPUhKNobj1MFGagtXomT+cvRXrd/UPiSEo18JXpgdSjWh7lhoYs5lnjYYFNsINZHBGFtsAfW+Ttiv88MtCba4sZKd9zfGYC7e0Jxb18Ybm7wxc1Nfuhc4ojzkWY4EWqKc6EGqI80wrHkuShM8cCiYmYgSTv+g5XPIS+GlzEEpddS7BOSXnnU8NLs9u9//xu//vJD1Cx2RVWUCdrSzXEl0Ri3UkzQtdgKN5bNxK01rri/3Qf39kfiw5JFuLMzFDfWeqEzzR4Xom1Q6Dcdm53MsNnXHjv8HbAzOhRrIsOxZ3E6tkT7oWhTOjbnBSOy1IoSRRL+Vqx2RIqXKbKXB6DxTBYjl2D3lvhdLI3HzZLwt3qe2J10eBb2LA1Hht9sJNmbIsXVGiu87bEjZA7yw+1REm2PmrjZuJRsj2sZTri90Qv3tvjgykpP3FrljOsrnHFjzVx0pNihat50bPaxRUaAJ9bOD8Xa6CAcSIvBkWXzcbEmGxmnAgfsTw933tL/wTzPkLV0Rrdx0mkXn/J5haQ9jP33v1G+NQ3bAm2wJWg2DiUGYWukD5b6OGGvjwVaUmfh5lpP3Nvqi6urPHElxRKtEcZoDjVCo58WLntrojFIF3dXeeFqrAXOhZijep458t2MsMHRHKsDPbAubC6yl8Ui62ACUkucED5Ef89v8MP1lTPw5SoRbicpoyN8IjpDZNARyMEpVw4OO8qgzGMyCr3UURnAxfFgTZwIFaDaSwbn5nJwJXwc7qWq4lbGNNw+TYjeP+7RxTZYctAV+xaGIc3VAgnO1ljkYolMX3OUh1qgdv4MXImbimsp09AZbYRWPx7O247DiWm/QM2UX6J6mixOW05C3SwlXPQUoClIF82hpqgJNEOWrxVWe8/CqhA/VOzci7wlSTiwYB46asvQ9UUDSNwYUvVv33B+3k1WC4T1AMZkB0n0EysdUfuwqGe67yFor4uzBbuwKcINi1wtsC7cC2tCfbHOzwE5YbNRlzgLrQkz0BSij/OuGqiZJotKfQ5qTP4Lp6b+ArUW41BrI0vP8+5CNMzVRGOAPpoCDXDRTxeXfTRx1EWIHW7TsNZnDjbHz0PegSXYfCx80P5WbE1GdrgdtjrpoC5pJjoTzXA3xQgfrLHBvbV2uLvOCffWzEZ7iDouOI5Hc7AO7mzzx61tPriZMgXX5mvjZqgaWiM0cSzNH/kp7pQQbHgnlMzCuoMB2J0ehhRnayQ6WmKXuynOzjPExVADNAVroy1QiDY/Lpo8lXDJURZNjjJodBiHc7bjcdZmPE5Z/BKnZvwSp2eMQ+2MX6LWSgbnHZTQ6K+NW8vc0RE5DcVeZljhNhMrI8KwZ1ESspdG41ZTLY0SiR+JI5t9vbPjcHxOyRpWwowcSbbbL6Xgd3/5dS9avnp5t+Uctsf5YoHLDCxyt8a6wDkoiJiJlgX2uJUxC52RBmh0VcA521+i1vKXOGM1Dmesx9Eg1NmMRx25thqPs9bjUWcjg7O2sjhrp4DzTqq44M7FRZJ1vQW44KaGUidN7HIzw7oQDyza4IqoYmsM1N8ja2KxMdQFybNMsTUxDDuTYrEy3B+LvRyx1W0qWuOtmVpxdxDuH4rHRxXLcD8rHjc2+KExcjqy3Uyw2Gs2loUFY2P8fKyLCUJmeiwyk/xwqSLzFXtWH/LD7kWRSHe3wSZnE5zx0USzPx/NPupo9VJGo5sCGl3k0eaugAZXJZx1mozzjhNxYc4EXJo1ARfsZdA4SwYX7MbhfC+8zhDMZk7ChblaaPTXQWe8FZpDDJEzRwer5zpg/fwg5K9LxSe3O2jQyNoiq3XFK/YNFL+hPs8hAiR9Xv74+KvM7HPn2RcfIWd1Mha4WCB5zlRs8LZGYYglLsWYoyNCH40eirjoOAEtTjJodhiPi/YyDPizZVBpLYPMqbLYbCyLPaayKDGXxVmbCThhKYdam4mon62AegclXHBSxSVPHhrncnHJSR7nXSajxEWEtT4zsW1TKBaUu72174dXRGNVoCOS7I2Q4TsbG6J8sNjHhdZ+BZEOqE9zwo11nriz2YfWip3LXHEt3QpXUi1xY5UbbmQ4ozPZHqX+5lhtb4xk9zlYFhKAil37kL80BdtjPXHq0MYeexJyZ2HhwtlY7jEdOa4itPiqotVrMi65KqDJWQ6dLnKoc5iE/JnKOGirhl3WalhlroaFJiqYr6sEL6EifASKiNFRQrqhItL1J2GNoRxyzSag2kIG52xkUEcG90x5nHfWwCU/XTT6aaPGXQtbPCywKtwX5TtX4Nnn7/dEruvRBSQcc+ixUdK8eZM8StbQbsIOtY0/5oBnP3zR41x/F3/5ww8ozszAYm87WoOt87TE8SBjNIXp05qr1VMJLe6KaHCZjFNz5JFjORHLjeURpqUAP6ES5mkrw1OgRIMRKVJAgEgZviJlrDBQxO4pCjhsoYRTdoq47KCIemcVXHJXxWVXRVx2lkOLuzwaPJSxxm0GjuVtoMC/ye+slbFY7jsbsZa6SPawwzJPO+zwt8D15Bm4u9YJNxbboiNUF+dnjscJ81+g2oiDCj0OqvQ4qDbk4JQJh5YsF13V0BKih/e3huB67AyUeJpghYs1lgQHY+/SRdga7YPqzDVYXuKLtcv9sMVrOo57qKHDRxFNvqq47KmENlc5nJklh+3mClgwRQWxxhoINuAh0EAAbz0ePLXU4KWpDE+hEtz5ivAUKNJrD4ESAoUKSNBRwGojeeSaT0SNpRzO2k7EudnMbNTgLcQlbyFqXPnY5W6OtWHeOHF4J37/3fOeUJL4kjgTYr0JN0l/ziECxafYgMH035aod5+0Y9uRSKwL80CckxXWOk9B8zxtdISI0OyljAYneVzxUMAl18nYZaWKhVPUEKk7GT6iyXATKMCdpwRXnjwcNRTgrC4PVw0F+AiV4Ks1Gb4CZczVVEWsviqSjVSxe4YqmpyVcdlNGS2eKrjsIo8W1wno8pbHBTdF7PKzwsa8EMwvsX0J+N7+F2xIQbrrdMQ5WSLJ1Q6HvU1xcf5U3EixQHuEMc149XPG47LDeDQ5klpxHOpsZWi5ctqK1NQytGyptRqPU5YyOGM5HhcCTGkWu5JijytRpiix5yJj9nSsiAjCtmgf5G5chF0BVqj1UUWHnzxavCejzXsyLrtNwqapCojSm4wQfVX462rQM0BHA/5a6vDV4WKuLhdumipwUp2E2YpysFeQw6zJspijOhEu6vLw5CtirlAZ4dqTscFIAeWW8jg3SwH1cxRxwVkVl70EuOShjpPOGtjtZoatsQG40XS2h6zkgpQFq+siegjbGy/xNWmHwie29xmyFk9nBBdPZ4g7wH780TlvzKjk++ptF5OxoNgNe5ZHIcnZBgfcDNESKESTlypa3RXQ4SKLCntFrDXXQKgRH34GQnjqcuEuVIGzhiKclCfCTkEOnqLJCJ3OR4S1DgJNeHBSlIGT/DhE6qvDT1MJ3nxCXlUE6/OQaMxDvp0qLhLCErK6TECH5wRc9ZPDGXdFVC0LRvrB2az+l+1eigWuNohytMEKRzO6WOqKMkDTPCEuOk1Cq+tEtLgroNlNGV3uE9HhIoM2hwk4ZzceLXNkcWnWL9FgOx7nrH+J81bjQQhLa21bGdSSjDZHFQ2+umgJ0kOrFxeZs7WwdVEK1vrY4Ly/CrqCJqHNVwGNPso47SyPREMlBGipwFukAm8tFbhxVeCny0WagwGC3bTh4yRCbIAx1qXMQM7aWSje7IxDqxywNdEGC7zMEDxVAHcNeXioTYQPXxFeQhVE6apgt7kyzs5SRIPjZDS4qeOSmwouO8vjtIsadrmb4ejeDfj999+8QlgSd0rOAfIldJDPc8iLocUzMJSW1DKvO848KOqRfzArCUuDXLDL1Qj13hponquMi05yuOggi3wbeSyYoooQAw3MM+Bhnj4XPjo8BEwRIsVVH9sTZqBkiwuO7HXD1h0OWLjRGpHrzDBvmymKquKQuTEAIX7aiPcxReRULczlTYa/Lg9hhnzstlLD2TmT0OE2AZ2eMrjiK4MbQbI47c/FitVGPfaJcagt2IqFfo6Inm2Jcg8tXJ3HR5OXGlo8lNDmJIN6R3lc81REo9tkHLRVwcbpqkgzVIK/SBEuPDJgFBGhqwqv7ul4oZ4cskzlUG8rg3obWZy1lkPdLHmcnzMZ5z14uBygiyZ3ZWyPDUCNjxquh0xEu/9EtPvI47izIhKMlBGmrQxvkTKcVeQRZMjDzgRbxKZOwcrttogrsKRxTCmzQkTxDESUzEBEkQW9n5hrjYS9lohcOQW+EZpID5iGVBt9BGkpw09TmQ7sxaZqODlbhQ68RndlOgs1u07CSRc17A20ReuZCvzj7z++FOZPfn3/FdzE+Emj5RCihhQxhA3pJu5A+gdaVrzkQO8O+Wpw28WUHvmhhTOwcOEcrHczxem56mj2VUWjpxKaXeSQYzkJMQbK8NNVp1Obn0gNPjoa8J6liYgEYyRtn46EHAsaADb7wogf3fYnHbJH7OYZiEoyQeR0bQQZ8BCqo4pN5kqod56Aa94yuOY3ATfmyaIjaAIqE0VYu9+1530if2WUOyJsTHHJRwOdfpPR6D4ZFxwmoNN5Aq64yiHbejJijPgIMBDA10AIdx0NWjcTMrl3lyvuQgW48CfDW6CEIKEi3AQqdJZYbaiAExZyuDhLHvVzyBQ8GQ3uGmjy08I+Ry7uR0zAlSBZdPrK4aTLJEQZqGG+ngrmCeRhpySH/QsdMH/DVKwtnoOoEssefIn/p0+6I7nUCuWVHkgutaYE7ovX9qMBWL/JFQFOfAQaacBPSw1+ujykmvBQNUcFLR7KaHJVRLOrHDo8J6HUhYeC5VF4+vkHvcNLr0ki6itfWn0OEUycHGzb34KKEHXV2fCX5C7a7Y4NQbNx1F0D7T6KaPVWRrOnIvZayMNPpAwvLVV4aarCQ6CGxR6m2LJ/Fn0/ucwKm47ZY0mpLbIqnBBdZIX0cntqd3q5Aw6cCKHPRZfYvqQvNG860nPssG3BHMyfIYIXTwHrzOXR6cVk1VvhcrgTIYMr0UrIS5/Sg8PupdFIsTbAVX8ltHkr4pKfBhpdJ+KqmyyOWEzEXG1VWp4E6jMzQIghD966fMzhKWOWsjwclWQxU14OMydNgJ2SDOwmT8RsNXn4ChVpbe0jVIGbQBXLTFRQZauERgcFnHXRQGGwJVr9xuN2mAyuBcmhwWMikk1U4KujCleBIly0JiPogBmSCmxQecKbZjUSt60Vs7C5ejYyym1x9uRcRJVYUBz27HZG3bloxJRZ0/7+48GILrHq8ZPEfet2HwRN49I6Nkifj1QzHupclNHiPIkpmebKoWWuPHK8TfCgrQH/+p//eYmwZHtyKPwZCO84RFFwN2EH2q6sDX/J8N4dQtTe8hYUe6Bgy1LsctZCZ4ACWn0UcdlLGYV28vDRVIa3pgo8BZMRbaWNrE2OCMsx73k/tdQalTWuCC+agaQCKxzM8kRB7TxEFlkhpyoSp+uWIrbYHrml6QgrtsDiXE8KINVfNB2RRZbYl+mGWHsduKkrocheHndCJuBOlBzux8jgfqIMLkdPoPrOluxHzMwp6PSfjA7fiWj2UkGnz2TUO8khTHsyXISqCDVUB1nUBOiqw5uvChflyZirxcMirynYm26Fos2OOLbbE6U7PZC90gWrwmwQNpUPu3H/BWeFcZinMQkB2ioI1FKFt7Yatk9Xw0VXFeR7CnA3XAY35k1Am58sNlgowV1bDa4iNQTO0URwgTmiiy1RUuqB1UdnIa/KDbk1Lrhc64uC064oPO6Emnp/JBVNQ2SROchMllhGBvAMHDwWgcbzaxBZaolVJQEUp97xSfOfCi+BCoIM+NhkroJGJzm0uzMl01U/WZx1V8Txzan479+8une+vznjBd5D4FNve9h4yREHlLTik7BdfP26z08/KOrNz55rMjX0fT8s1xJLfGeh2W8SXTgQsta6KyHOUBmh2spwE0xGkqMBIhaZIKN0Fn0/ssgCiytssemoPS6dC+yRGVcwDSvzTLD9kDFaj87DtXOxCCuagcRiC4QWTceqHD9kVUYiosiKvkMCRj7P2GeLUCshFhgr4dY8OdyLksWDhAl4P2U8rqf+Aom5Jkj2dcZFb3lcC56IZm9FNPmp4ozjRHhrToavSBXeWmRbSAUzFRURbCpC2RY3mrX6+ttfv/P0BmwJd8TsSb+Ap4YC/LTV4afHx4bpKqjzGIc74RPQETAR5U6T4KWtCl99dcTZGfb4nlJsg4bKQNQcn4sLZwKwvdIBmVVzsC1LDyv3GWNVpiney9HBe/t4uL1bHZ2ZPJw+oI+OY4FoP59Ay4KtJRGUwCQ0C0kAACAASURBVMl5jlSuON5563wwV10RgTqqOGo/EVfmjscVUjL5y+Bm8ETk+xrgz799laxs8e7Pf3JfrE/8zNv2aRkQXMhkMdLSF9+yf/p+YQ9Be1+srA1jwO0lLzN3FXY7CnErjFk4tHpPwoYZKojRZ2qxOcZK2LLbEZnHXBFTZEHfP1ntjtq6ucipdsC24044XmyC6wdFuL9DHfe2qqNrDR9dawzQtVIHXasm4aMiS+w5aITYvClYVu6OQ8eC0VifjEv1sUgttwPxL2LrFLhOU8NRp4m4E86Q9cPU8aiLmYDSnL3YaaeKB5ET0eY/CZ2+CjjnpoBQPRW6uPHUVMYcBTlEmmvhyvEIKq83Xq21XhS/81U+r/hPA9MLD9LPWx0JZ4XxSHe0QE2SPa4G/T/cDpPFJR95rLdQhKu2Gpa7GeHSBkecP5qDleX2uHwyALUlPjha6Y1dJdbI36uF3PVauLFcFZ1J6uiI00BnEg/tCVx0JPPRmcpFRzoPXRl6aN9qjCMHRNhXYYuwQitsPhiG5NLZ1A9iT3SeBfLWe2Cm/EQkGSmha+54XPOfQBeiN8PkUOcxHn/45jH9sXvveBMesPk3UD696XkOeUCsaKDt0ZuZvW3uuSYZt6/chbGzcWmeMq4Fy6LTTw5HHeURb0RqVCW4CBURsNEYi4ptsbvCCQcrXVF3yhst9YHYUmKFzfsMkL1eG03LNdGVxkNHIg8dSaTloiNJA53JGuhI0EBbtCq6UuVRtIaP0mx97Cu3xr4SL6wrdUZ8CZNliV0xC01wyFsDLQET8CBeBh+ly6AuRg5pjuZ4GDEBXUGyaPOVQ9NcOUToq9MBFcSfBGsFWdTs787wLLidq/bo8Ttrhyu6GlN7+s31K/rFeXuIHS4kmuJO+DjcDZNDjbs8IvQVMX86D1UxBrgWo47sJHtUHfRE68kgtNR4oT7TDKfXCnBzFUNGQsyuFD660riUoJ0pXHSl8tCZwkNnMjk10JWshutLVNGx2wSrs3QRV2KH/Ko4xJTY0BmJlAvJh6yxKngaPDSUUO04EbeCJ4DU9ncjZHAjQhan10b0xFl8QXjQN97S6HOCC6djXjfwtB1Af/OF/v+OiNSzveVtSBSihYzSEFm0+8phq5USfLRVMVdHDUGpBjSQe0udUHbUE2dP+SL7uBtCC6ahaIcI1xaroTORkJILEgR6kkCQIKSQDMKlBO5M46I1iY+2BC6uLFJH+y4RSsvNsLHKEdtrXJBUbIk1ZbZYV2KLM5vNUe08Hu/FyeCDBRPQuWASjjlMwL1IGVwJlMMNPzksN1NGgK4aXHgKcCbfnBGcCqejszaE2kv6F2vm4solf1w67Yn2pnD6OX2uqBvXwuk4U70QzRc20PerS9e/gnfGIkOcD1ami707IXLYZ6cAf2N17LZXwo1l+riQ642j6WaUEIcrLXAnxxgdS3gg/t5aI8QHu4S4nsFD10Ieri7loY2SVIMhLcGGYEROMsgTNNCRpIK65crIyDLGulI7nDmZiI5LqaisDUFowXTEb5qGqClc7LZUwINwWdyJksX9WBncjpuApkWWYo72tIQHJNGJ8enrv6T6HCJosCeZ7vs7/vrTX0A+J7Lj9lijMMYYt0PH4VbIBJz1nIhkU2W4i1Th5S7EvAJzRBbNQHaFK+or/FFa6YWdeaa4tVqFEo9mjVQ+rizkop1kihQNGihC1PZkLtoTubixiofrOzRRG04+51MCd6ZqoHqFAJH5Uxk7ii2wrNQaEaS+3WmCYmd5PIgej/fTZLA9ai7uhf0SN0NkcDtEFmVzJsFdRx0OfGUEGPN6MLpQ6kuvm04GouNsADouzuv5jPj6YZEe3j/Ax4Odanh/vxo6d4lws8INN88xWIixztmX3vPe2mg+LgfJ4m6kLG4ETcJyMwUs8ZmCs1Ei3AybiHu7puHqiQDUZYYhe5sOuhZx0Z7KQ1sKDw828PE8TxMf7xPi3iYBbm8ToHGxAG3JPFxZwENHGhftZBZK4uL6Cj66VvDRGM+juF5dpo5zBYZYXWyPzBIvWtcT+4JzpiFovi4WGcpTst6LnoCHSRPwIHkcPthl/0rI02u8enwR+yeNlpI1qGAao6yAIe5A+q9Y3usGIey+5uUIy5mBhP3TsWqHHprDJqHSZSI8tVQQPEWAoiwvEH0riu3RfioIDcf8UJ9rgYZlPFxfLsSdTZq4sZKHtjQ+bq/jo2GRJppJ5kznozOdi6tL+bi8XID0g6Y4sZCP+kguulJ46CBnMh9tKVy0rp6MjApzOigIiERfWP40NC7Wwf3wcXgvWRZZMyfiftQEXAuSxa1AGQTqqdIFjptQmT5PwS8wx+XKeWg76Y+uC6E98u5uUUJXsgrao9Vf1ItJfLSTTBavjvYYVXQmKOHO6vH44oxrj7wLp1ZS3NcGqaBlngzuRMqhy38S4vQVsC3ABNcTubgdKYd782XwIFkOLYtV0LaYZEk+uhbwcGMZD59sF+DpQU08O6KF5wUCPCsW4N4OAZqSeZSkV5fwcS2Dj5KN2ijcroMLi/lomM+UB+2J6rixhoeyYiNsrnbCoROe1B6KzxoTrJ+jgc5AWdyPIYtQGdxJHYf3CoJ7RZi5HAhfxPiL8RxInxNECFpAAigm6sD6v/vLm/+S9O7TTqRVe9Gtl/AcM+wLVcMcoSpS3E2QXmyH0PzpyN7jgtJj7rhT64L21UJKxJZkHp7ni/B1EckaQnyZy8UX+SI0pHDRksRHczwX7+0S4FEhFx+cFuHCei7qo3i4voSPVloi8NCRykNrrBo+qjJFXNE0xs9uf68ftsStSDm0hE1EnQsHDyJk0B4oj+Ouk+AkUoOd0kTcqonrwefG+VCczJ+Ls8cCqZz3dymjMUoNXWQhkyREVyqXqRmTX9SLXSkCZhYg5InVQGukMm4s+0UP3uePpyJ/Hh+FTrK4FiKHq/5yiJ+iimg9JXwUIYu785lF4Celhri2RoR2OquQrMrF7fUCPMrUxJNMIZ4c1MKTQ0I8PSLENyU83NzCx4U4Hm5v4OFRAQ+3KzVRt1+EuiQemmJJKUUGNBlQGsher4Xggml0q2td2UyQs/xMAsrSDHB+rgwexsng0w2muLtvLm6e2vsSWZ/98KgHH4Z4A+PPQPjHYYjKZFY6Qmgg377/ya8fvGT86zodn9cjpnw2zSyuoVqI3zQdlcd8ULDbAymF1ggtMEdrli46F3DRnsajhHu0l48nOSI8y9PG0yN8PCvQxLflXHSuE6AuiosPD/DwvJKPb04KcXEtH1ULhahdJkRdNA+di/joWMCnK+Mb69SRccioG1jGv7qimWiOVseZvStwM5iDW+ET8CB0EnbZKMJaXQlbomf2PJ+/wx3N1X7oqI9EW94UXE1VwbUlAtzaKEIzraV5uL6Ui7ZUPl3MkKzfmUTqaQ10pGjQLEtW6V0LNdCWoInWaAV8UmVI5Rd4T8YRBzmc9VJAg4scljlqw05JCXdC5XA3cgIeJk/A3W3K6FzIkKwzTYOWAO2LePgiS4gnWQI83q+Jx5kCPMnRxNNcIb7KE6I2no97O7l4fozBp2MnH3WJPHSSWYksVMkAIguzRarYuU+XxmX7+QS8/6wDf/vLc1zcOR9n58rgix1z8IcH51lDS+IvzqyD4c9A+MchCgi7mZZcD6x/8cMaVif6u0lKg47PL2DFmVCqK7nIGqfO+KLhVBC25E3H2WX8nmnu7ho+Hu0jmUMTT7JFeHxQgCe5Qjw9zASjazUfH2Xx8axcgGdHNfF1FR+FRXrYtUAL9Yv4aFklwJk4HhoTuOhcpIYdu5iAiP3NOmyLE7E6KExwwoPIX+BWhCwehsoh3EgZVsoTqX3XT0Qgf5t7Dz6fnTFDR7IqOtN5aE7i4XmBFr4pFeBiogDvbeejfqkIjfFcXF0gQOcCDVpjt8Xx0JWugY+LteifuXSmCNCWyEV73GR8UmmAXDd5FDrKothJCYet5LAt0AQrw0xx0kUW9+eTenE8ri1XpFm1PVkD7anqaE/hoimRi7ubeHhymJBVgC/3aOKLA9r4KpOLp3maeJrPx+MiAZ6VCfCsUhMfHuEjd6sOKhcL0ZDAo3VvRxoPbfHqeK/QGJ98WvxS2L5+eB2PTu3Fj49uvXS/d4fEX4znCw4Nnk+v4x8tAwLzGZIyrTkG0j/Vz15rb4f6u376+y9wuGMT4stnI6LQHOV7tdG5QB2dqTwajGur+PjkgCaeZgvw1X4hviLZI4uZ7h4f4uPLXAEe5fLw+RE+vigU4PlRAT7M5eHKdh5uHeDj9BI+ykMFaE/lgwTlyEYtCqzYv7U5lqhNM8Y+Vx4eRI3DdZLJguQwmz8Za0Omd+NgjgeXI9B0Ipj2O1NUqDxx5n+WTciiha8LRHherIFn5SJcSOKiLZGP9mQebq8V4OoKHiX78cUC1IVr4Goaj/ExmY+WWGXke06mZUCegyL2WUzCkWgT3GjwwV7z8fgwdhzuJcqhjdTEqRpoTdVAR5oGOlK5aEvioTGZiw/2CfDkoABf7BHi9gYRHmzm4d52Pj7cw8Vn2Vx8cpiPJ2VCfF3JR3GmDg7GCdCwgI/WpQK0EKwTNHBzowb+/PxGf6Hq9z6JvxjPwfCHEP1t3+eQB4dybqpP7NeRgXzw3vuHcLXAGm1k3zSNS4NB6s5rGVx8eVCApzkCfLlXgI+3a+LOBk083MrD/R18fLCbh4+zBPiU1GulfDwt4eNXlQJ8ViJAQTgPTWQlTFbEqVwcX8l/ydekg9NwOsUImfaT8H7sONwOn4QrPvKwVFbE5bygl54lGN3cNBltCQJ0pQlwZREX720S4GmWCE+yRHh6RBdPDvHwrECE746q41yaEA2RGvj8iADfntLAt3VCnF/DRX042T4ig5FsvfFxOUGIkiARCh0m4PBsRWTaKCA/3oDq3mMtTwfRvWRZNMWpoJVk40QNtCVr9ODUGMtF80IunhVr0XLp4RYBHm7Txv3tItzfwsXHBwT48IAmnhBsyvh4P5uHG3v4uHuQj4o4AepiSbnFxdWVPPz1+8/7DRn5rQfbQeI/FP4M5N1usk5lFOZ1t/lv3++PrJ1fXEDn56//6WBf5//2myf4qCiF7gmSqa4tmYsWUg9mcPFpNiGsJj7fJ8SdDSQgOnh/pwgf7+TiURYXT45o41meEE8LBXhcwkfLZj7y/Hl0Z4Bs45AtrualKt3AMv7NOzIVlSFa2G0zAQ9jZHArYhJavSfCRkUJQfnmCOyFx+cNVmiJU6dZjXwx0ZSogQd7NPHssAhf7ebicSYpU0iWFeEpyfgFmiiYy8U3x7h4ekyIb08JUZ3OQ30Mj+6LNiWQ7MrF5SRNlM3TRoGDDHJnKSB7phL2RWpSOxsW6OBBxDjcTZRDc7wq2hLU0ZqoQb8MubKKi8pVmji3UoBb23j41TEBPswU4VmOJh7v5eHxAS3afpWlzmBTIMCTQj6eVwjx+3MCVKRyURgkwK2d7ri5xgb/+usfAfy7b0hASEpmv1P32L+tzDgdisAB8IUh59vzq/fznICegDAZdjD9VzwEQMhKFC0/FQryu8e3Pv79f/i6rbhnqiNT6cVoHloWcfG0WBPP87TxmNSve3l4sl+EJ/sEeHZAA/e28dGxgYcvcwS4ul0DWwL42ODOR00EF61k+yqBi6trVBGba9pNWOKvOXa7KiFrtgwyZ07Ewwg5XPORQ/AMEVKK5tDnxHjc2aeOtiRmld+RRmpGPi7Fq+NXhZp4nC3EV3tE+GqvCE9ydPA0Wx3PCrXwvJCLJyWatGZ8ekyEb6q5IPJ2eWng5Dwebq8RoiFZBxVhush3mIDc2YrIslHA+kANqvvjHEvcDf5/uJcyCS1JymiOUceleA1UL+Kh+SAPBRs0UbRaiEu7hOjYI8TplTx8eICPT/bw8dVuAZ7sF+LJPg3c3srHnZ18fFMkwBf5XHTu1kFD1nJ8Utz/rEhISggaVWpPbSE7OmyHGB9xhpRmn2ZWsYLBtmxTBCFob3kkA5OF1dsef3p8Fz/98Xu8n+WPlqV66FjNw/MKAa6RrSpSEmTxcW8TH/c38HF3PR8VyZrIjRahJF6A/WF8rPUUICeAR4NLVuStcRq4tVuE1YVTeuyqPuqFvEAB8p1lke8oh0o3JZywk8UqHxMsL/HqeY74cSVDkfkCotcCp5lMyxka+KaMLHA08NkOIW6s08J7mzVwb8eLmvHDHGYR+HWlAE3rNFCVyKfZtpxMw6lmqJxvgrw5sjg8RwmZ1grYGyLEsmJrfFo8C02e47A6Ux9dK1RwbbsQbQUiZO3QxsI8Y+zLs0B9thbq94pwcqMmalYLULpQgJwYAcri+ehYwsXFpZo4HKuJug12+NujWnx/Jx93L+T3GwayFXnyXgHml816yX+2hEN+HkhI2jvO0uzTzEqUDeVkc4Ss+tlkkpFKwHjTn2n3RvODzkN43LUWP35RjraiCBSl83EkzQzHlk7HxSVc3FrPx/FEAQrDeChNMUF2lAlKAnloiCbbROpoTeChNpmPmiwjLC8177GLTPNp6ZpYG6yGjDQhChyUsGv6ROwPN+t5RuwD2wKHZP0LUTxcWSfA80JdfJUtxJ31fNzfqot74poxU4gP94tovfikmEez7O/qBahdrYG9HkL6ZUdzohAXE1SQvF4fqUt1sHaTKVYVWVMbCF6FJ33RsdMAdWHqOBHKRfOhWArPT3/9Br/7shI/fHoI393ZgMfNKfjgZCg+PeqEpw2L8X//+z/4+x++w2+efozfPHn1h9O9Mb7ztBO57Zte8Vvsf+9nxdfihCR+RtotJas/Jes0+B9hSDvQfn8Z803ylp0MRcMHNfjtG/59ATE4pP3zD7/Cj3/8nt76wxcX8fjienx/uwL//eVN/P3PP9D7v3uvFV9Ub8S3XVX441f38K+//xlk5+Hjb+/hzpMOnLhbgJN3C7D70lJsOJdAz5TKudT/oFwmUwTkvYxHU5zyiwVOkgatHa8s4KI1XgP1UWp4Vs7H1wU6eHJQhK/2kJpRm6kds9TwPF+H1tNPCsiOhRA/nBVimzsfXenc7sUfDx3patQuYh+xk9jLdvzjzz/gpz/9nu2jAd8jOsqu70dypSf6+tu7H1n66lesRBmJHSHoQPky2Oc5vQlFhAymTzIl27HsVOhbyyPPEjkffzuA+pZNqYTukZmBkEZ8Nsd1L3CSNNAey8XdDRrI2aCFyi1a+KJSE78/rYnalVz8ukiAXx3i4/leUjNq4uv9Gri2gYe29Tx8XyzAZzlqOBDCQ3EgF13JPAlZ+/ZiSAYVE/Rt473xPHttS+I1GL6ICf62+sXPc5gXzOjo8D8yuDa3fSMrWiRrDUZ+ZIkd9jQuQ8MH1f1mGFaFw3QzP56HzlIuSrdoYv8iATJT+dgbJ0ROqgB5STzsDBHgULgGOharo3m5JnaHi5A7X4SKJD72z+cPk5WMmo9/fZ/OIgRPgutg4iHp+A6WZxz64hGSUc3oKBlMu+FcPyPvLhl5g5dLRq34fUJ8MnWTzDCQsmE4mPHleT18Uq2Dj8v5aD+gg4c5Ijw8oIXLy7l4fkAwHCZQHQQXgg/BiSaKXviJcRxMS+SxHaSMG4y83nEdyPu0DPA7zBBqsG1EsR2bLzQzEsMGK/dN722oS0DZtf1UDykfRhuJWUGRwE2y+0L8JTMP8Z/gEFliLzWc7zxh37Z6U3wk/TmHCPQ7YkYdpdeD7LPFgAAqKfk9tr2FfXTRVJdAFyxkMUXsIOe7cojJKCYk8YEuBusSRgRPNuxIYuiJiQT40yPrNfHlEKL6dj8wlJbNoSe/+5wOhKHIlZR9veWEF9vRaXJ9XQJy2jf2kJqQgkyjxJe+J9teMhv5mV2HV98XyyO/PCN6xOfuy0tB7CADjNjV287RghtZbPY9iD/DbR+HKjzcTdghtMR4tkNS8sfkMLPfSODAFtcLH1TTzDqc9lCy+uZOYRTnTqGjZTB9kinYjsRjHhiMPDItkPcIGGPvDz0+g8WTZH22g8R7uOPD6a2QXvciyED6pVf3sfmE9XXxPYQbiLyeZwdpz9j7UxgyDRG/XZeWssaV3O/BWJxYiK4h6nvd+xzfXDP4UCVDa/sbgaVX90tEvqTsHJMzsDifuMM+Y5J4S4I3A4kHhyiUxJl41IN1BB6/ky8R+ZKwcUzGwGPd/hn7/4U7ElgyZM1hnPDOMWWINcg+G1tvP+mAzyDlDdWesfeHFk+CH9vC+a8//Uh5Mtz4cqhCQqbucyh9tk35j7691yOb6BiK/LH3hx+//ratJMGXgcaT0/sFMZEG2xJish2DlTf2nikd6COJA1s8SWkgSd68rX80s5KHJXHWv1/F5htCC20lIl8SNo7JePtYrz0bxxpPsg4ZCRwpWb0OEQemgGlNu9uB92tus/8CfW1tnETkD9U+Sb0fX+4O4uuH39zDR9/cw63H7Si+shchBcyglBSekrJ3sPbsaFjCSlZyXxJ8Gah/HPrCIYag5HoofUJKtuNgywYqd6jyR8P7Nbfz2Fyk90h9RwemhPAcaX9fl3zEtpHWe5j8pWT1OmjSTabudpD9RTVBrIEkAWacG5p8r0Mj+379e+xlTl+n156J+1n42/Yp+7/CIim+DDSenB7FYoIOse0bONJv+7QektYz3PIIAd/2IBk2JN+GIewQ8RxuP3vrIyVO34P4RhPPCPhFM+vcbsWSaNm2OojTxEFJyB8pObcfM/+Pad/g9dcvvrLvnfaX4PybP3/7inskliMVRw5RLMmzv9EoSR0jIeuVqHXfYBuc5CNxUEfCVknpZPOZlAaSkj9QOZSsntkMYSXR9lfnEMMkIX+k5LAFrrU7cL/986v/KQT5Le+77O/C6v7XHyPlF0fSiqtvsa+WV5+JoyNS0vqGSx4bWUlWPfewku0jeo9MowSP4Hybd464JF5sx/YLi0csjpSsntnG3QYYU1CH0ifOsB1rzsSByCXkGor8kXr/ye/Y/46fzde+93786S8MafOs3xn/+9uiIyQeqfhxehOIuX5BqMH0V59h/rWQvgEjGWYw8iRt32DlZTWv7+vSgPuEtCQTx5a69cJiaHgP1p8XsWDXf76fGSO414B7IYNJQNLu08zqkcUYLIk2OM+GNYjnH1ZBEvJJZh0pOaQOldTR+sk5xJS40kw7Uv68Ti/bQpn4PpL4c4jBPWd2r2tyf5B9toCSryYHK0/S9g1W3rw8a7yJsGyLLTY8xPduftWOVadjmRgMEu/B+vO6eLBtW9EYSoEvb2v/C7JmG8M9y+gl4g62T5zqexDnByuPOiNB+4YqL6tp/SukJb8PWHU6huJHPh8oaR//7nMcaForEfyH6h95n+0gA4vK7k5kwx1Pjnv3SJFke+urdjZfqaOS1EOAG83ySMZkG7is4HTfJIO66uYRBB2xHjG8FlQFsppI1h0jiTfNrO6ZTEaVVEvAZjuiS1yYAEhYn6TslpacVadiBkxagl/Lx0xdKy27+pNL7GU7iD00QYxQ/DjE4Benca9rcn9w/cLOPWy+YtWpWInIl7S9wyUvusQVrZ+w/ziEFbDumx/86i62nl846HgM1L/+kg0x5zd/+hZbzy/qjuPg+DFQe8TPU7K6UcIaw+0AQ9yh9lf2MzILOvZQJ4cq/11/f36JC93C6u+r2v6IS4hS0LEbgYetKXElFa++eL7uiw6xbWQApR0LHNZ4cojDxNieUwJ9Egy2g4xYaejrsZ34IQH7h0seIR0ZwL9h+bqWDb/e98iUnFYZKBV/P/zVqwvk3rp7X9c9OEYHTw9mUsSfQ5UcMGTIKsG2t0Pi6w9/dVfieqRl/3DLPdC0Dk9+O/B93Me//QwHGtcyhJFQ/EgGH8hBnmcGjuR51DsOTGY9YARX4igZFd3nUPuPWYAnI1ZS8odq32h9f+XJGLR8PPC69sef/kwXZGRqJhgPxb+BELX3s/kdu6UaX0pWsWOu+xnCSqLf31TSG0hJ6qNyJWj/SMubX+yCyhtHMNC6lpBHnG0DcqxeIu7b4E30sh0k67+NLaQ8Ccjt1ivheHCIA4ScPaeE+pX9bF8RAHt0Eb0S0tcj82co70DjOrDNVGyk6n2PZNvmj+uw4mT0C8zfgA95lu0gCztCQkLGNx1ksJBnaUzeoG8g8ecQgS7dAiXZ9kdWAoYk9UjL/tEoN/VowFuRhY1M3//pW+S178L8YufX4k9IyXb0jhux402DhxDWvzsxSSreHCJIfBKWi6+pgiH0M/oZofsvr+vRIUl9Q7X3XXqfkIDUh4PZRSBEvPFlG/ZdXgsyy/WNNyk92I6oImc6C4qfJzbUPej/t7xExgdf331Fvvj9weDNkHWfAWPIPgNGuAT6ZPSxHQQMFwnIp0SXoL3vqrzN5xZS8rFh/aZ7pEygxL20hiHuPgOQ/VO2oz98SPJ53UGTk4TizSHEoWwn7T5DSiRJ9dmcIDWPpORL2t53WV5UoRNdkLH9WootDmz3vvrtZyDlQt+DTPmUJ/3wgySm/hZfRJ6k4k0zq3M3YSXdsgFHRq6k9YzJYxKOGIeME9GDrm37EpX0ScwI4cTy2drXZVhiz5vef5vPOUSxtE62KYVMPdLSNyb35Vj6HbJEXvvuNy6G2Aja9x7JumfvH8WmugWILHRijSEpKdiOYzcOsz4/0HhRsjrtZZyUdNv8Efs2h6T1jMl7c/wIwc7eP8b6bwGwEext7r3/9R2Q8/qjNlz/sg1f/eYz1teOXWfIOtQ4cXoLINeS7BMj2Q4yLYh1SVKfWCYZseLrMfkviCzGZHPdApBEMtCvVdli+Tb3iD6x7qHEg+NMCarfLUwfkuyTKYPtWH58vlT0Oe2VrP3/CfJSKvxBksqb9k3Z4vg298jCy/eQhUTizSEBYVgv+Xb5cfZvQwg40tQrLX9+7nL7qznfhpT9PUMSlqRwo2WA4x6GqNJo2ZyovXeMOiANfQSYMbmDiyfZxO97IFxoOAAACkNJREFUkFKB7X7f5/r2SUbdeJYhqqTiwSGCpHn2dYL0ifPS1Dkme3AxfVOsksr9sPfSGhy9fpjGsG/pQAhKsvORtl3wOWgh8RhTsjrs0XtJsCT7bKPy+z99IzV9hKiStP8/RR4hF9tBZsHRgifHoTuzSqslWxpsh7T0jcllsupAcVhaM58tTDSLMgN2cHIHasfrnmcy624mszpIoSVTBttBphRp6KPASsGPn7tcMr2zHctq5o+aOHEIYRx261ODmGvJ9vdeZAdhaU1UL53S0y9t/34u8o9ey2XjKhLLfKXKj4HgxyFEnbOLEFQPc7qJK8l+f9MLKcKloU/a/vxc5ZNvodiO0eQvhxCTkEZarVfWDDYMUHEtV6p6peXPz1Xu+yzbVuQXU6PJXw5DVN1u4kinZWMrAWfOLunoG5M7cFzZY3RHqrwYaJw4swlhSHbtPqXRZ/uBw5e/+YzqlIY+sS+kHZP/5vj2N/vV3j06qvCjZcDsnYxD0mrff36HbeBCWvrG5A4snkuqIlnjU3E1l0koUubH28aLQx4k2UeaLalP2Y65WdOlqlfafv1c5K+vTWMLD5ZUR46q+FCyzqKE1QNtd+oy7S7J9XNbdrKCsbiKAUPa+sfkk4TUfzzLr7Ink/gSX0rW0YIfpzdBybU0+v1NM7sbVktFH5klxL5Iw5+fm/zGD+tYk4kYw9HiLyXrrB06THCl1MaX+LCCUX41R6p6pe3Xz0U+25qC/Gcdo80/DjVoh+7Lhkmhz8bWa4/aGL1S0PcS0GPyXxvfH//x51fCQwhMMytJYKMEPw4xxL47o9JWSn22P/F9jwAiJX0EaGn683OS/wpTAZDSYLThxyEGDcdJiNn3ICN6OHSP6eg/xosq2betSIk22nCjZLXbzjgjzfb03Yq+XKV9Aog09Y7Jfz2+606zb1uR+6MtLhxq0PZuh6TYll3JYSUrGdn2UtQ7XP69q3repbhQstpt12YIs02bjiZp9PsbwWvpCJa+fjogpOjfuyr/8gdnWZPIaPSHY9crgISk0uovqoxgBYWMbJKVqG4p6h+TTxLRq/FlXUv89JdRGQ+aWWd2E1baLRtbT9+pgLT1jslnZkw2HNi2rQiBSQJhe34k73OIQcN1ko3mvgcBZrj0j+l5NdZ940H6pDQYjVi9RFbbrVovGSnp/nvPXt2++u6P3/TolLS+MXmvj+eCo+FsXAUpzQhZRxt+nOE06OoXrazg9B7Fw2nPaAzIcPq/8Bj7OmLNqdRRmUBoZhUDJO22tOsQK1ljCr1eGsnStmNMPpNx+4sHybi9B/JowYtmVmLMcJw7zq9kJSsBZzj0j+l4Oc6nbpezxmO04kTJarOFOKENptXqbiXfT69gr5EONm0fFv3S9u9dk/+QZQ1B2DtcfBgoXpzeL5BrafZd90xlHclkOhLrlqZ+sQ6SOcTX/8n6yOK270EIPFrx4djQwIkwXG1fcEj/4bPbw6Z/uPx8F/SwxeLq562w2TJ8fBgIThxqGM2oou5sI92WELPv8ej7TxmAhtGO4fZ7tOmLLpjbNwy0/2KWky4PBoMHLQOsNzOGDUf7ujppOPSTaX9Mjwj9rR/IIni04sMhhllvEVED6bWU+yWd7NtXLrvNXtgwjPYMt/+jRV9/cUivCBtWPgwED0pWK0LQzSIMR3uwcTvr9ENAGg79w+XnaNdz8hb7thVJGqM1DpzhNiytIoyVrNvOMdPPcNvzn6qPbe1AAjOa8aBktdqkyWTWTZrUWGn2/bLtWclKpiWil4AlTf1j8hl82betbo9q/DmUIJsYB5hrTVhJuc/G1iuftTBkJYSVsv4x+SK2EOBFDIaXD28bDw550LKbIMPVfvfHV/8zWzItDZf+/3Q9kfns21bFnQdpohit+HCIYcN9stVLf/nHn4fdjuH2e7ToSy3vZ91Qt2JUx4Ah60aGsBYbhYyxUu6f6GclOlz6LaXs32iXn315G2sZkFIWOizxHyw+HAsSuI2aGM62uOMgK1ipZWHDasdw+z1a9PWHv9POKaMafw4FcIOwm7DdrZT7KaWhrGRdUZPE2CFl/Rb/4fIfPH31K28SEDqzkcQ1SvHhEMOIkUzLGCrtPplu2A5SHoyEPdL2d7TJ/+K7T16B/9F3n9KsOprx5xAgZ1DCana3w9N/Ba3uG4TII2EPKYMYvcPj/0jp21qXwQo9ybaj3X8OMXAkzoaHZ1hBIze3ns0YEZtGAofh0umwwxQXXoN5UcfBUY85Q9b1AsbQYWz7q1vFDL7/9BZ8DswcdrsoeYYRh+HQt6I6Cb/+w6s/tBZjTVoSjxmj3G/OjPVMZp3eY+jw9Y/fLOuNF+s1yQY+mTMxEvYxRBo+PCStL6M6Efef3GLFtfdNMsu9C/hSsooNpe16YY/hw9Enhf3bHCTTbq5dDoftpsNqHxnMI4nPQPWT2ejAxS1vzKRizHsTdTjiPVB/ej/PIQaO9Pm6+lUMqrgl33RdeHgay6sTMWe7yYjbPtLYEf3eB2bSgdz5aZMYprdqxUQdDT68jQ2UrObrGMKOZJt5aSt+/Mer/7zQm1An01xhWzaSSoIxextD3pH0g4Aubf3ETzJYa26Ugm0b6k2YEZwJ3tK2U9LyOUSg+BQDPVJ9kikHkmXZgvLrP/wKFx6cplMhIbDYF9KOtH+D0U+ImVgcTP0hM8pgyNkbp65Pm+G1f+ZLRBVjNBj7xO8OB77dZOV3B5LfHdyR7Xvttx0yaXsHiBCYZOCaGyU0C5Pgk6nTfN3o8ZcMrGVVCdQ+MtiIvaTkkdRB9lFfDN6RjS/BnRkYA8Of0ztgzCh5IWCk+ySrFLZng+2HwpIKIpFDshUhB1NSZFHCFLZl0WxGiD3Ykyx0iBxSppCWTNtiPUPNkG/jP5nuiU4mk46euA6WVzSzTlvLODKa27BcDwq8tIn7NiQYzc8Qgl54cAbLq5IwmuNJCDtQ+zjkhXftDM11x4GLW2mWGs3EGS7bmBkhGwSXdy2WA7GXknVqN2GnrmGI+671mQXIVppRvnvDNzXDRSBp6SH+dX7azNTeRcGUnO9avAZrL6c3QYmQn0N/1jZjLKtKREFbNiUwyTyD2RaTFuHeRi75epTYXXO9lM4iZED+XOJDsin1ZYB8YzLrGl43EDxmpP5M+/ZbjehiadOZ5ZTIhAjiBc+bvjt/G4K9zTNk0Ih1kpbUlwVtWSA2JRYFY+4+W0z9meJP/KJEHaR/HArMGpJReTSrjrU8hOa4U+IQ8vQ99zdsoUQnBCOZm/T7PtO3b7/VeAxfCfCLlgFm3YLMVjOEHet34zCGB01go4UPHEJQYkzPOdZ/gQXBZQyPUYMHh5B0ymouY1B3YMb6Y3jQ5DXK+MCZQgxaTQg71o7hMLp5QMuAKau4DGHH2jEcSOIapTzgEMNIVqUtuR7rj+ExSvlAywBTSlAumJbX3Y71x/BgEtlo4QeHGDJ2jmHwLnCAIetKDYawY+0YDiR5jVIecEx6DCNGcjHWFw/cMTxGGx/+P/bRfTlbD7SGAAAAAElFTkSuQmCC;" vertex="1" parent="1">
          <mxGeometry x="1140" y="320" width="120" height="120" as="geometry" />
        </mxCell>
        <mxCell id="4EBb9_S77bTPxn-zLxTV-103" value="&lt;font style=&quot;font-size: 14px&quot;&gt;S3&lt;/font&gt;" style="text;html=1;strokeColor=none;fillColor=none;align=center;verticalAlign=middle;whiteSpace=wrap;rounded=0;" vertex="1" parent="1">
          <mxGeometry x="1180" y="440" width="40" height="20" as="geometry" />
        </mxCell>
        <mxCell id="4EBb9_S77bTPxn-zLxTV-105" value="" style="endArrow=none;dashed=1;html=1;entryX=0.671;entryY=0.952;entryDx=0;entryDy=0;entryPerimeter=0;" edge="1" parent="1">
          <mxGeometry width="50" height="50" relative="1" as="geometry">
            <mxPoint x="1230" y="320" as="sourcePoint" />
            <mxPoint x="1217.1" y="272.3600000000001" as="targetPoint" />
          </mxGeometry>
        </mxCell>
        <mxCell id="4EBb9_S77bTPxn-zLxTV-106" value="" style="endArrow=none;dashed=1;html=1;entryX=0.5;entryY=1;entryDx=0;entryDy=0;exitX=0.5;exitY=0;exitDx=0;exitDy=0;" edge="1" parent="1" source="4EBb9_S77bTPxn-zLxTV-102">
          <mxGeometry width="50" height="50" relative="1" as="geometry">
            <mxPoint x="1218" y="320" as="sourcePoint" />
            <mxPoint x="1200" y="275" as="targetPoint" />
          </mxGeometry>
        </mxCell>
        <mxCell id="4EBb9_S77bTPxn-zLxTV-107" value="" style="endArrow=none;dashed=1;html=1;exitX=0.25;exitY=1;exitDx=0;exitDy=0;" edge="1" parent="1">
          <mxGeometry width="50" height="50" relative="1" as="geometry">
            <mxPoint x="1175" y="275" as="sourcePoint" />
            <mxPoint x="1170" y="320" as="targetPoint" />
          </mxGeometry>
        </mxCell>
        <mxCell id="4EBb9_S77bTPxn-zLxTV-108" value="&lt;font color=&quot;#ff3333&quot; size=&quot;1&quot;&gt;&lt;b style=&quot;font-size: 15px&quot;&gt;Maple Syrup: Grade A&lt;/b&gt;&lt;/font&gt;" style="text;html=1;fillColor=#d5e8d4;align=center;verticalAlign=middle;whiteSpace=wrap;rounded=0;strokeColor=#000000;strokeWidth=1;perimeterSpacing=0;dashed=1;" vertex="1" parent="1">
          <mxGeometry x="910" y="218.5" width="110" height="55" as="geometry" />
        </mxCell>
        <mxCell id="4EBb9_S77bTPxn-zLxTV-109" value="&lt;font color=&quot;#ff3333&quot; size=&quot;1&quot;&gt;&lt;b style=&quot;font-size: 15px&quot;&gt;Maple Syrup: Grade A&lt;/b&gt;&lt;/font&gt;" style="text;html=1;fillColor=#d5e8d4;align=center;verticalAlign=middle;whiteSpace=wrap;rounded=0;strokeColor=#000000;strokeWidth=1;perimeterSpacing=0;dashed=1;" vertex="1" parent="1">
          <mxGeometry x="1145" y="220" width="110" height="55" as="geometry" />
        </mxCell>
        <mxCell id="4EBb9_S77bTPxn-zLxTV-110" value="" style="edgeStyle=orthogonalEdgeStyle;html=1;endArrow=block;elbow=vertical;startArrow=none;endFill=1;strokeColor=#545B64;rounded=0;entryX=0;entryY=0.5;entryDx=0;entryDy=0;exitX=1;exitY=0.5;exitDx=0;exitDy=0;" edge="1" parent="1" source="4EBb9_S77bTPxn-zLxTV-15" target="4EBb9_S77bTPxn-zLxTV-102">
          <mxGeometry width="100" relative="1" as="geometry">
            <mxPoint x="1000" y="379.5" as="sourcePoint" />
            <mxPoint x="1100" y="379.5" as="targetPoint" />
          </mxGeometry>
        </mxCell>
        <mxCell id="4EBb9_S77bTPxn-zLxTV-111" value="Cross-Region&lt;br&gt;Replication" style="edgeLabel;html=1;align=center;verticalAlign=middle;resizable=0;points=[];" vertex="1" connectable="0" parent="4EBb9_S77bTPxn-zLxTV-110">
          <mxGeometry x="0.1649" y="-1" relative="1" as="geometry">
            <mxPoint x="-13.5" y="-2.5" as="offset" />
          </mxGeometry>
        </mxCell>
        <mxCell id="4EBb9_S77bTPxn-zLxTV-112" value="" style="edgeStyle=orthogonalEdgeStyle;html=1;endArrow=block;elbow=vertical;startArrow=none;endFill=1;strokeColor=#545B64;rounded=0;" edge="1" parent="1" source="aNmgcQQb_zwe8nAP0Jao-11" target="4EBb9_S77bTPxn-zLxTV-75">
          <mxGeometry width="100" relative="1" as="geometry">
            <mxPoint x="552.75" y="660" as="sourcePoint" />
            <mxPoint x="652.75" y="660" as="targetPoint" />
            <Array as="points">
              <mxPoint x="270" y="520" />
              <mxPoint x="270" y="630" />
              <mxPoint x="1060" y="630" />
              <mxPoint x="1060" y="510" />
            </Array>
          </mxGeometry>
        </mxCell>
        <mxCell id="4EBb9_S77bTPxn-zLxTV-113" value="Replication" style="edgeLabel;html=1;align=center;verticalAlign=middle;resizable=0;points=[];" vertex="1" connectable="0" parent="4EBb9_S77bTPxn-zLxTV-112">
          <mxGeometry x="0.185" y="3" relative="1" as="geometry">
            <mxPoint as="offset" />
          </mxGeometry>
        </mxCell>
        <mxCell id="4EBb9_S77bTPxn-zLxTV-118" value="" style="shape=image;verticalLabelPosition=bottom;labelBackgroundColor=#ffffff;verticalAlign=top;aspect=fixed;imageAspect=0;image=data:image/png,iVBORw0KGgoAAAANSUhEUgAAAiMAAAJACAYAAABfSmZFAAAgAElEQVR4AeydB3hVVfb2N0VaegARpPfepUpPuQkg6uh/7IqiSO8l9PTeCFVEQFRsYEFUBgUEFaQj0jsB0kivt/6+Z++TKMyM3zjzqGDY93lObjv3lPfse/ebtd71LoG+aQQ0AhoBjYBGQCOgEbiNCIjbuG+9a42ARkAjoBHQCGgENAJoMqIHgUZAI6AR0AhoBDQCtxUBTUZuK/x65xoBjYBGQCOgEdAIaDKix4BGQCOgEdAIaAQ0ArcVAU1Gbiv8eucaAY2ARkAjoBHQCGgyoseARkAjoBHQCGgENAK3FQFNRm4r/HrnGgGNgEZAI6AR0AhoMqLHgEZAI6AR0AhoBDQCtxUBTUZuK/x65xoBjYBGQCOgEdAIaDKix4BGQCOgEdAIaAQ0ArcVAU1Gbiv8eucaAY2ARkAjoBHQCGgyoseARkAjoBHQCGgENAK3FQFNRm4r/HrnGgGNgEZAI6AR0AhoMqLHgEZAI6AR0AhoBDQCtxUBTUZuK/x65xoBjcDvhYDD4eDihUtcuHABq9X6e21Wb0cjoBH4ExDQZORPAFnvQiOgEfhjEbh8+QpTpkynT6+BeA3xJTAwiPT09D92p3rrGgGNwO+GgCYjvxuUekMaAY3A7UDg6tVkBg4cTPv2nRg+/FGeevJZnn76GaZOnc6NG5m345D0PjUCGoH/EgFNRv5LwPTqGgGNwJ2FwNixY2nUqDEDBgzi4RGP8czTL/Dqq+N46aWXmTUrAIvFcmcdsD4ajYBG4F8Q0GTkXyDRL2gENAJ/JQQefvgRGjVqQp9eD+JnGsHjjz/Js88+x9///gQvv/wqubl5f6XT0ceqEbgrEdBk5K687PqkNQLlB4ERD4+gTt26dO36AIMH+TLU/yEefuQR/PyH8uyzz1NQWFR+TlafiUagnCKgyUg5vbD6tDQCdwMCsoImKiycup41adG4MT27daF/nz707zeQvj0HMW7MJIqLNRm5G8aCPse/NgKajPy1r58+eo3AXY9AduYNBg8ciKerG43vb0Crpk1p2bgB7dt2ZN/+o3c9PhoAjcBfAQFNRv4KV0kfo0ZAI/CrCOTk5jBt8hRaNGtO/Xr306BeA5o3b433YC+KCgt/9XP6DY2ARuDOQUCTkTvnWugj0QhoBP5HBEa9OIpOnTry1JNPMurlVxnkO5wHejxAfm5O6Rbt/+OW9cc0AhqBPwMBTUb+DJT1PjQCGoE/BIGzZ8/y008/MWHiBB577DFeHTOGKRMnMPKZJ3n6hReJWLKKxHc+I2b9Nt7acYUN31zSi8ZAj4E/YQy8+80l1my7wMkrub/pu6/JyG+CSa+kEdAI3IkIHDlyhDNnzmCz2bDb7VisVixmM3ar4S2yastuRO0pVBwUTg2/pVQzJVHdtFgvGgM9Bv7QMZBEDd/FiH6xJG488pt+OjQZ+U0w6ZU0AhqBOxGBw4cPc/369VsOzY4du9VIy6z45CtEi0Dc/KNw8ZFLDC6+0XrRGOgx8EeOAfk9845CPBhG0saDt3w/f+2JJiO/hox+XSOgEbjjETh06BBXr1695Tht2FSkRL5okJEFuPlH4+IdjatvDG6mWL1oDPQY+APHgPyeufpEI/qFsWSTJiO3/EDpJxoBjUD5Q+BXyUhp195ln2xDNFuAx9BoXE2xuPvF6UVjoMfAnzEGfGMQ/cJZ8tGh3/TDoyMjvwkmvZJGQCNwJyLwn8jIcklGmi/EXZIRP01GNBnTZPRPGwOajNyJP5n6mDQCGoE/AgFNRvTk+qdNrn9GNKE87UOTkT/iJ09vUyOgEbgTEdBkRJMRTUbu0DGgycid+JOpj0kjoBH4IxDQZOQOnYjK03/4+lz+N42NJiN/xE+e3qZGQCNwJyKgyYgmI/8aGdHaoH/F5DaME01G7sSfTH1MGgGNwB+BgCYjt2GSkZEC3zhcTXG4+sklVj12M8XgqpbS0mm/GNx843CT75eVVPtGU7aefP3nSVOWmfoZn3P2icHJJ5oa3jE4eUerxdk7GrUon5iy/cXhcdP+Xf1ikIu7KU6V7aryUrlfWWYq7+W68phNMbir9WJw9401FtNtwrE8R100GfkjfvL0NjUCGoE7EQFNRv78SdTNNxYXv2jcfeXEH42bbxTuPjE4m6JwMcXi6bVYLZKIuEhy4huBx9AYPPzjcDctxsVrMTUGxHBPrxBEj2BEtyDEA4sQD4QgeoZRtXcwTn2Cce8bhOvAMFwGhuM0MITq/cOo8mAwovciRK9ARI+FiK7z1Wfv6RlGtf5ROHvJY4vDdVg8Tn7xuJni8fCNxsMnSh2vJCZuPnG4SDLlZxyfk788xpuIUXkmCH/muWkycif+ZOpj0ghoBP4IBDQZuQ1kxDsWV79wXP1C8TCFq4ne0zuGWl7x1PSKoeqwcO4ZEYLTQyG4D5PRkiVU7huCaDUd0Wwmon0Qnl5h9Bv5Bi8FfsSi1d+wZONe3t16kI93HeMfR8+z89Qldp+9wr5zmew/l8ueUxl8f/Ia2w+fZcv3h3j/6z2s/Og7glbvZEzEZnxHr6Xx0HhExymIpqMRzachuodQwz8U50cScH4ogRr+4TgPDcLTFIGHKUqRKEVKfBNLoyWakPwcqfo9SIsmI3/ET57epkZAI3AnIqDJyJ9PRpx9Y/HwDcfVNxIXUzxOpsU4mxKpOnQpVR9KpLZvOJ7SCrxXHKJpCBWazKSebxiBSz5g3+FTHDmfxuW0FE5kJLP10Hle//QgwSu+YlLwhzw35x18J66h79g36Dr2TXqPXE7v5xPoP2oFg0Yvw3fSKh6bvZHnQ79g5ortJG0+yIcHLnAo5QbXbtzg5LlrfHf0Kgnr9/DgY0sQzRYiGoxDPDCDaj6xOHmvxXVYBK5+ESpiUtMrnjqDFisyckva6PeYjO/2bWgycif+ZOpj0ghoBP4IBDQZ+fPJiItfLB4+ESpFU8MviRpDE3H3j8NlcBAVegQh2kbRsGMY/o8m8I8t35JZfINTF1LY+dNFxq/YQ9tn1+HWL5SKnQIQbecg2s5HtAtGtJiHaDkf0XKWEdloMhHRehqizUxEmxmI1jMQ7WYh2sxFtFpYej8T0XYmosMUXB6cRoeH45kW+hm79h/l+LkM0vPNfPPDZYaP+pTWPcOp0GUaonMc9wxYgpP/Utz843EeGoGrb/Qv+pW7nUT8Xuevycgf8ZOnt6kR0AjciQhoMvI7kxEp/lSi0F/EqW5S7OkrRaOGwNTFNxZPn2ilAZEdkEWfIETrUbj1XMioye/w9ud7ySGTLXuPELl8O11eWIloPRVx30TE/RMQDSch2i5C9Aillk84/Z9O4OVpqwiM20Tw8h2Erfue+A17WPnhHl7fdJTVHx1j1cbDLHt3P/GrdxG2/EtCFn/AjHlr8H9xJU2GJiF6RxuEptk0RKNxiPqjES0ncP8jCwlcvJm3th0nz17CrgOHmBPyKU29JKF5FdFzHhVNCYqUyBSFIbQtFcFKQa0S35aJdUsFsjcLb3+vibs8bkeTkTvxJ1Mfk0ZAI/BHIKDJyO9HRmQlihSnqmoXWYFiks+jkJGQan4JuPrEc69XNG5DI6nuHYboEo1ov4iezyTyzjcnSE7N5mTyRZ6Z8S4d+yYgmsxB3D8d0VDqROZzv380w+Z9wJLN+zlw/CzHLtzgckYOxXYrdhycv57Jtj3HWf/JHqLWbCcgaSvTY7cwM+4zpsd9zqLXviJp417Wf3OKHeeukm6xYHVYSMvM5afL1zl09iybth/hxcAvaPrIa1TsHo5oNgdRbxKi4XiadF3E4Je+YPvB3WTl5fP1wdM8OnM9lbqEILoEUmVgBJ4+cTj7LTEEukpXIvEIw80vTOHi5puAmxTvakLynyNJmoz8ET95epsaAY3AnYiAJiO/IxkxRePiH4a7XwSevuHU9IlECVOVODUB12FS9BmEaD+Xe/uFM3LOpxw/k8GVjGySNu6h6bBgRP1JiPpTEW0DaOAVwogpq1n1+RHSsvLJyMzjQnIa+45fI+ndvfx9xioa+EdSsUsQouFcRN0piHvHI2qOQ9w7DlFnLKL2GMR9Y43ntSci7p2CqD0dUTcA0XAGFdtMpebgUHq/+Bozlmznk31nOZWcwpW0TNILc9my9yz/F7SBto8uRXRYgKg3Xm3Do+90Zq74glMX00hLSWPe8h00GxyK6DCLKv1Cqem/WBEzV1MY7j4yLSUX2fE5SkVPNBn5DeNOk5E78SdTH5NGQCPwRyCgychvmBR+YwrAzceIArhIUmJKwMUvESefxdQ0RVFzaBii5QKqdQokatmX5KblsG3/Yf4evRbRIx5ReybC7VVq9ghmZuhHbN57Egdw6kIqaz7YzathH9HysZWIbpJ0jEVUn4xwkuRiPKLtbBoODqLPk3EMHfs6T85+l5eCP2F83FZGx2zllbgvGR2zjZFBn/BUwAaGjlpOz7/FUH9gMKJ9MKJOgLEtp/GI2jMQbQNxNSXiPetTIt/+nh0HTgEW9l9IIWT1bro+vBjhOQFRcyKi8yRMo9ax9tODZNiKWffxARoPDlQpJRevaJweTqKG70qcfZbj6i+jRCGKnPyuVSe/8fr85fapycgf8ZOnt6kR0AjciQhoMvI7khHfGDy9I5CakGr+SdTwk1qKGMTApYiGs5gStJqrV1LY+v0FOgxbSqWOoYjG0Yiak+g5LJA9uw9xPSOb1JISxoZ+REeveVR/IADRaRGipYxmTEI0CaDFsOVMi17Du1/tY//xCxy/lMLVrCzyiguwYPuPw8zisJFTVMiVGzc4djGNvccusnHXIaYt3kCrh2MR909DeErdyDhE+3mIXpG09InkkTGLOXD0BHkFOew/ep5HJq9E1J1oCGg7J9LUK5LYtz/gWmY6b39xBNFoNqJjIK5D5+I8IoAapnicvV7H3S9Sp2l+C4HSZOQ/jmW9gkZAI1BOENBk5H8kI6ViVMOJVPqGxOFskmQkEhe/JJz9E6kyKAjRcQLdH53P8R9Pc/FaDq0eX4K4/0VEhzlU7hZNr5dj2HvlBJm5Rezaf4mWj0ci6r1gTPBdE6nSM4SWQ6byf1M/ZKeMltiLwfHvCYcFC1a1FOCgALsjBxt5WMnDRi52+RqFOOTn7b8ygB12LDj47OQ5/i/yDVp4BePcYw6i8wKDmNSbhFvPcaz44HuS0/LJyC/i2Tmrce89FdFxEaJ5KFU6zWDn3oOcTcvh8RnLqNJ2GlV6xODsG43r0CDcfaTIN9owfDPFK9dXXRb8b8ahJiO/Mkj1yxoBjUC5Q0CTkX8zCfyG/1qlMNWwS0/ESYpW/aKp6R1JLd8YnIbGItrMoqHXIjZsPURKejZTg99DNJiBqBtI5Z5BjFrwHgcvJJOTZyZxyffUGhiLcH4Fcd84RJ8w+ox6jUXLtrPjYP4tY85BLiX2QixWBxaLA6vVjtVqxW4twWw3Y3WYsWCmxF6CXeZ5brpZbRbMdjtWmx2r3YbDblPPCx0OimwWLLYS7BSrlMxNH2PfmVSC13yD7/g1VB8UiWgxDuE8HtF6Ea8s/ICjZy5yLc9KSNLb1PEOQjQLQXi+jP8zwfx4+hx7frrCkNGLEa1mUHnIMmXk5uaVQHVTIm6mUDx843GR4l8tar1V1KrJyM3DUD/WCGgEyjMCmoz8D2TEFEcN/whc/COpOWQZlYfF4eQfRePBQTgPDEA0CmJW0LukZGSS9O4u7usRhWg0A9F4IiMD3uHKlRxSUnN4JfQdaveLQzQIRNR5mTqmOcxcvo29J9PIK7GWDjsZwrCCxY7dCjaHAzNWbHYzdrsFi92hXgMbdqvZICaOfOz2YuwWC2eSL7P7cDJXrl4Hhxmb3UGB3YrZVoL8zC83+diKVRIZSzH2EisWy63ExGy1c/xKKpHvHKb1Y1GI+hMRdaYh2i/A9PxKdh26QU6OhcWrtiK6hSAaTqBit6k8EfIZKVm5bPhsD5W6LqJCj4XU9l6Gk99iavhHU8tLCnvLyn7/h+vxG8jjX04vIs9Jk5Ffhqd+pBHQCJRvBDQZ+V8mv2hqmBbj7htBkyETqe0dQeWH3kL0jMG9Qzib95/i0rUUuo0IRjSfj2g+ip6DEvjxlHROzeeFiOWGELXVDEST0bQ1zWTNP37A8vNQMwPZmCnALNMyVkspkZBJGCkldWC3OcAmyYKD5Bt5rNz0LVCCZCy2AodKw5gdebiYpiOqj2XN5t3G1q0OsOSpx6s2bOXpWSv4dMchTl+4ytW0TMy2MhIEFmsRDsmAJEmxykhKWW7HuN965Dz9nl9MhZYzEa1HIzrNoO8LH7Pn6HWycwoY+dK7iEYBiFbzceoXwUc7T5CelkJP0xxEhwAaDZmnUlpV/Bbj7h11a1SgvBKM/+a8NBn5+RuhH2gENALlHAFNRv43MuLmk4SHXxTOI+ZQ3e9NRP1pPPbCQk6fK2DZmn8guo1R4k239tEELX0fKCB69VaqtF+BaD0P0WwcvR6JYtWn398ywhxWcMioiCQNt9wk8cjDYTFjl+kZB+qxpCZZxVZEizG8GrDU+IQkKtZC9bjx0+8g3EJYv22feu6w2iR/4VJmARWaTkBUehFRbwqiXQC1B09nxPgE5sVsZs0HexTRcaiaHgd2u10tVpsVh9x5GS8Bvjx+lCdejkc0mIJo8wqi/UuMnLye9ALYuvskzQdMQbSYgWg1h1embOT09VzCl36EaBFIrX5ROA8P1I32/h1J0WTklm+AfqIR0AiUYwQ0GfktZMTQM7iZZNdcqQ+JU71jXIYmIoa/hmg2lYDQt7Dai+n6lCzhlQ3tonngkXgyrl7hx+PXaNP7dSXuFJ2fwGPgPNZtOkyhtTQKYS+SDASbo4gS+y8akUKbhW9/PMHXB8+QYy4jJzYcRYUGMVBC1kJFFzweSkJ4zqTL48EUqfFqbLv/K6sQruNZ9fE241VJIhxZpFxPY/XG75VB2tDxaxEPxiF6BiFaTUR4BCBaT8f2cyREflTu34jLFDkcWO0WsBWp9FHZ1+OrPcfp/FQkomUkov0MqvecwspPdnOjqJBxMe8jWo5FtA7DrV8MJ5Ov8OXu04h2kVQZsMDA1SQb7Ul8Jd6/5bqU83U0GSkbWvpeI6ARKO8IaDLynya0WFxMMUpg6eobhfQSUbbuwyIQ/WJx7zSX1zd8zrWcXBr1DkU0nUbFB+YxNXaLEpDOWLod0WAqouVLVO0RwAuhW41qFjm9S+2GtRiHzQYWmT6R0Qwb6TkFvBK2AdHsRUTNpxGeTyMajuPJgDeV+ZkMS1htZvIUP5HUw067JxKo3CcW0W4uDfrMZ9/p62ro+i1aj/CYSti6neq5wyb1JjmYy4gQsPm7E4jW82kyIpx9J64wasFauj8WTL6llCwp0nOzvuSXb4UkLA5zEUWO3J9fXLzxJ+4zJRh28Q0C6Dp2PRZLCRu27KVe/3mIVgGI+vP4avdJvjl+hpb9pIPrQtz8Y5VbratJ2sdHo8jf3UxKNBn5eUzpBxoBjUA5R0CTkf9ERiKp4rseN1M4tX3ncI9qDpegGto16hfI8R/Ps+Gzg7j3nIhoNpuGfRL48dwF9p5OpveTaxB1JiIaz8Z73Er2nb7y82iyyXSHw64kpA5JKiQhAa6nZdN6eDji3pcQLWfT9Yk36PrUMkS7ScpJtZn3Yq5lZAFmiizy81KIaqf3qBVU6BVClT7zVcO8Sl0X8NGXe5i8/GtE3RcYE71Lbd9uK8bmKKBEch+bJD92ng/ahKg9lecWrvv5+HILCim2WrHJlI/d0JicT83k3S0/sOTjXby1+StOnL9srG/OBks2NqtDnZPcZmZeLmODvkG0no2oNwa3B2fz7iffUlBsY9gzMYhmASp1MyvqXVJT0nho7GuIJtOpaYrDc8hKqvtF4uwbhbuMRt2thESTkZ/Ho36gEdAIlHMENBn5/092Ml3gYVpE3cFh1BqyksqPxCH6BNChZxC5efnMjf8I0SMa0SAU7xFTyCmys+HzfVTpGoNoGYZo8RJLN+1WVS9qKNnNSI2oIiC3jC1ZJWPjkdmrEE0juO+BQHYeOkNOYRE5+SV8e+o8tfpNQTSJ5vFZb2KV4hKblJYakRGvqRtUWXDCxr10HrEI0WAmTr4J1HtkCaLTZP5v+mZFPOy2EqyOfBySZCCFsg4eeGYxwvVVXv/sR+OIzHYjK+OwgNUgIgtXfk7NAdJvZAaiQzCi8zw8+wbwSvjbpWdRqKI7dqsdm0w7ld52HbtIg/4hiPsDFKF6POgNZCIqYN7riEaBiDaB9Hs+nBy7mefnb0I0nkEtv3nKtVWWTt/VtvGajJQNI32vEdAIlHcENBn5z2SklmkB7l5LqDZcNreLp1OfMCzk8nzAe4jOYxDNA3h63Bou5RcyK349onEQosV82nnP55uTpdEQRwG2omIcVruqhHH8KxvhyKVrVBywEHHfdLbul2kWSRaugdRnALtPJxt9ZfpGcCY5Xb1mc0hhKzy24ENElefZ9PkP5BWZ8X8iFtEqEGFag+gVytBRbyoyYrOXKJ8SozLGQUZOMS59gxF1x7Dv8AWjjLjEgcNuBruMupQwNXKjUcLbcQH1+0yj7aPRNOohDd2iEY2m8PzslUaZsMOCw+xAchibRRKaG0AR2flmHhu9CtFmNqJTIL2fnsX59BusWfE1ov00ROco2viHK2I0ds5niM6zqO0XiofPYtz87uIqG01G1NjWfzQCGoG7AAFNRv4dGTGElEZ6IIqq/quo8Gg0okM03QYHqVEx8qX3jD4uHRaxfPHb5Gem0+eFZQj3ecrw7Ok5qyixGIRBlttKAzKr3aEkoEWOImwysvFPty+/O4toNImaXtOMd+x5FMjP2OTEXqDIRDNpqFbrJbbsO2Gs4zCqZl6J2oxwGk3s65+VbtXK/Mi3Ea0nILrNpuczr6vJXmpGCqwlyAiGvH197DKiaQC1es7l4tU0QIpjHVgchpB22/6TiAZjlW/IpPnrbio/tjAn4XNE54UI94l8sfMntT2L1YJD5oBs0v/EilWJYI1jT1j7NaLFbETjGBoOmM/O02fZvfMYVTvORrSPoqXXMkVqZgRsRjSdgeewcFx941WapkzQelcZo2kyUjqW9Z1GQCNQ7hHQZORWMuLmK4mIrOaQJlyxyniqpm8sosccOjwSq8bDkxMTEXUXILrOZcPmPVzPyqblkBhE80mIziEsWG9UrsjARpEtD7ssp725FvamUaU0qKXPP9l9AtFkCh5eUQZxsOeR67BhNcuUjEFe2j0Wi6g5no0HLhrrICd6mPP6doTT84yL+0jty2GWUQn46Ot9VGrxAu59I9RzaSVfaC/6uVImYsN2RJ05mJ5dQbEUrDqKlEOrGalLgQkBaxBNJzN4wmrj8xRjs8jqH4OsPDRnOaLeVJ4bu1y6n2ChCEl47DYZU7FhQZYEF2K2Gse5ddcJqveahmg9lxptA/l89yEuXk7nno6y/DeIZkPCVCRo/IL3Falz94sv7f4bp2zj3f2i7x6nVk1GSsecvtMIaATKPQKajNxERmSljH8Izr5JuHutwNMrGpcRkYj+ITQbFIW5OJMxcz5CNA9HPDCGLV/sID3jBm6DohCtZ1KzeyDvf/mlGjPKKyzfRpHUX+CgxGrmi33HCX7jH7z5/gGyco2IRpHDoiIR8kM/nLuE6BuBaLiIk+eM9E6JnNWtMhVj40hqBqLRGETncH5UaRob2LLV/mYt34IQT9Dr+Xj13OGQlmmGKPbgqeu093oFsyJFDoqle6vaJgydsh5RZz6Twrerz8kci0whOSgh32xl0LNJiFbziP7Y8B0psljIkK1tFLlw8KGsxGk2h9oD5lFiLgFHHhaHFYuym5fHbcdhB6tNlgPLtBMcvJBOi4dCEK0WIpoHsnH7YbJy8qnWfzaiyWya+kQqzF4a+zqi/VyqjQinjncobqYonH1XlDbau+m6lVeBqyYjxpjUfzUCGoHyj4AmI2WTWizuPjE4+8XjYQrC3W8BTn4JVO2XRK32czl95TwzYj81RKkNJvLZJ9u4ml/Cvf3nI5pNolaPuew6eFINGLPkCPZCHOYc9fyH06cZNCoK0XwOorasuhlPK78ZXEjNMKIbkiTYwWIxM3jkYkT7GO71ns+eQ6d/HoB79p2hplcEokUAfhOTsMoZXlbSWPNUCmjpu9t5cdoaFiZuMPQbNimUlb1rDAKQk59bKnV1YJY5I0cxaVm5tOs/BVHtb0wIkZ+TxyCrfIx4TX5JCQOeDka0WEDMB9I0zYylOJ8SuWtzpjr2T78/oSInrl6zMEv7eFsBRTYbxTINdZOQtexE7DLlBJzPyqTXY+GIpnMQnebw3ldHSUtPp2qPhYj24XR7PJScEiu9H4lCdAnEwy8Jd+9EXPwCcVfRq7LrVo7vNRkpGzb6XiOgESjvCGgyUjaZycqNaKr7rqahzwzch81EPLKaKg0m8dlnewlYuRvRbpxqdvfxuwe5lp6Oc5fxiE5LaNp5LidOyrSJoTWVaQpsRpojbtNOnLqPQ7QNoGqr+Tw+ayPCNxjRcCKPz3zNGF42W2l1Cxw4fxHnbuMR7ZJw6hJE97/PofujM6nRNRzR+jVq9ZzKsatG1ESW3lpKy4NvHqcO2ctGlgoXO1QDPatFGqoZlmVSmFoi3VStFqzFRZy7nsGOAyc5efq8cfzSN+Qmce2cwKWIZtN5YFRZ1Yz0E5EpI0NU6zV1BaLOS7y8aI0iJ9iLMTvsWCW7UuEh48jKtinJiLVYbqOE1Kw8Bj8ehegYrPxRPvj6FD/9eJHKrQOU0PXhKas4ce4qDTolIgbF4zI0hpq+YUgfkrui3FeTkZuHtX6sEdAIlGcE7mYyUiaKLJvY3KS5mW8M93rF4eLzppqEA5at5x87j1GpxQRE+yASYlZzNSOb6g8EqdRMvb5zOHxG6jOsZDkMjYTsmytvX+0+hqg+DNH9NRoOj+akbFYH7Dp4EVEvCM+BAcrXFEkObLLeZEIAACAASURBVA4j4gCcvHSZtv3nIDqGIjqEINqFI7rPptVDczl/zSA5SCKCQ/XYdchog4xKmM3YbHZkMW6x1GrIShu7GYdDCmhl6kUKYS1Y7TL6IaMxxnGqg5JU4mYBS+mLXx88QYU2YxBtFvFS6Cek5haQV1JIVn4+o8PfR7SYhmi6gB+OpapPyEiMPB6HbOBnNXrayGiLtJOXN+ntptQmVln+W0RGcQn9RsxDtAuhYvsAvtp/hc1bdiGazkQ0HUPC0m18ffAwosMsqnotxmPIUlxNd0mFjSYjpaNQ32kENALlHoG7lYwo/xBf6fIZi6tfHG5+8Tib4qnpE0KlEWuVIdf0wDcoLinGo9ck5Ro6cvwbpOem0Xp4NKLpbDwGBrL30Fk1Rgrsdmy2LKxWuwxIYJX1rcDrnxxGNJ6G04OL2LP/lHot5v1diPtmM3B0knpe9sfsKPk5rSJfe2/7YcLX7SZu7W42fnu0dDUH1mIZdZDkQZqeSYmo3N8v/WKkUkTGLv4NtyjbFYYqBBw2Mw6r1JBIgiLfLv2UvJPpHCBw9ceIpq8iPCfjNnAOvZ6LwaXvPERNaeg2gcQ3DL2JJDmySMeIDNmwqVSSscuyh1LiWugoUgJXq3KctZOelUO3v4UovYhLlwAOnL1IXJIkOnOVYdyBU4fZ+PERRKPJVH8oHg/faOWC626Kxt1Xdrctp5ESTUaMwaP/agQ0AuUfgbuVjEjdgZNfPMpYyyRb2Efi4h9LXe9ZiJ6xDHwymKKiItqMWI5oGkcD31Bu5Oby2Mz3uaf9TJy6LeSTnVLUCUVyEpaN6cy5ytrdLiMR0t3UblSQjFywDlF/DE3/Fsf4yA8RjccjesfS8uEoXo34kH8clloTOfFLQuHAVlyCQ/mHGNEEYxTmgz0Hu8VKkQ1kgc3NN0lApCtIqrSTT7tC4d4fydjxLdmffkb2Z1+S+fV20vbtJfPiSdLMhSo6UbpHtRlFO+QfuwWHVWpRHEjtC4XqHTZs30fzhyMRTaci3EYh7htN678l8v52aZQmozIF2Kw2zLZirI4C7Eq4C+euZvHdMcOpVTbYk2ZtDqtcV0Z18rDYDFO1s9fSaOUt/VkCaOkVTGpOkcJatH6GKk2WcPJCLpPnrlLN9VyGL8HTOxoXnwSc/GOUsLVc6kg0Gbl5iOvHGgGNQHlG4K4lI97RVBuWoPrOePpE4eETjbN/NNW8Y3DqHsSRHy/z/IL1iE4BVGszm/TMbKI++hrRZBaicQCR7xh+HjItotISUpMhuYMUZzjsqsjVVpr3KLZYaDwsFNEphKp9F/BC6Gbu6zQe0Uxat4cg+s6loV8Qf5+8lD3npHbDQonDjsVhw15sxZZvwWEpIt9uLTV/N+zQkq9dJ+vIQU6vSST96ecp7jyQ9EYNOFPfiUsu1bngXonUqoKrVQVp1QSpzpW5XqsGqXVdyWvXjKy/PcyZhAQuHtiP5coFCmSVjTwFOxTabZgt+eRKslBqVS+1JulX8vjqWAqnbuQqvYr6btjsmO1mFZ2R6SaL7DqMg+yCHFr2Hs+WQ1LjYlPdiB03bc+o3JG9eQzCs+vgaap0W6i6Hf9trKyogXYjpPB3EW1Nc5S+pfmgBVTsLStrluHuvRgnvyic/KNw95El2eUsQqLJSHn+6dXnphHQCNyMwN1KRmSzOw9TDB7ecXjIKg3vxbj4JyE6hhH57j6+/0HqFOJUR973tn7NJ/uOG5Uf9ScxNmqjgtDmsGGzlWAvnYiLJfmwGFoMm0y5OEokrVDlrd/+cIbK7QIR3YJZ/M7HKo0SuWY7T42S5aszEPVHMTNkLVfyZHRFpjpkrsVCga2IG8j9GFctLy2VjHWrOfnqBJLr30umEJwWgnQhSK4syK/pxPXm7Ul+0MSlx4dy5pnHOPfU37ny6N+4MtiL850e4EireznlJkgTgiwhuCiXmoJL/zeUtIRErp87oeI0UuZhxYxZ5l6KisBaQInyH5EVOtKTxIxNkRYoltEhhxlUvxs4eTGZrn0Clb17donEwCAcMr905GoKy9ds5sYNqR5xYLfnUWI10lobPv8B0exlRIf5LEj4lLOX06ncewGixUImxG7i8oULVOk8HuGzmnreodTxCaWaaSnuso+N9IUpT4REk5Gbf6r0Y42ARqA8I3C3khFnvzhq+oTj7pWIq3cSbr6Lqdg7ki5ekzmemkEd7yhEo0X4j15D+g0zdduEIFrOw3+WdAmVuRnp12FTRMSIU/zzKLFhL7HiKHaU9mqxMiVuA6LzfETreWzbWdoHBjhw5Aw//FhaxisFoCVWiqwOjDZ2RvolOW0PySOfIKthfS5Wr0CuJCF1BNf79yZjfhLXPv8Cy4EDZJw+Q25qFsUFVrKxqm1IKiDpQ0lRMQU3sjGfO4/1wEFSvvqaC5GBFAzpR2atWlypKMgRglxPN876+XHpiy0qUqJOV4plbVbMeXYlgLVJIazNjN1ejE12Hla+IwahWL15N3U6z0S0XMzgcYsV4SjIsxGw9Gu6jwjmnlov8uSMOIrM8qik+NaqKnzKcFyYKFNZ8xBtw9l++CwJ675DtAtCtJ3Dx3tPMzF6I6J7EPf5hlLbKxIn0zIjVaPJyD8PQv1cI6AR0Aj8NRC4W8mIq/KqCMfZdzGupsV4+kRSqelY1UE2POwtRP1FNO9t2LL/fdQGRMPpNPGP5lJ6qqqVsZTINIrx3352Xj5bvz9L6OvbmL9uO+99/RMp6UbVi63EhkVWryhaAAOekkZf0bj0jmX7CaOctmykyMiCzZFLISXI4lezzU7hrt1cfPQFUisZUYyslg24XN+F5JAxpGZcVVU0F9asVfEXuR0p8ci8fk36pKrqW5kwUU6o0prd8ENVoldZ/isVLXKxO2yk5NpJ/XQ31198gatt65EiBDeE4Fj3ZmR/9CEFeTmGUNYqU0V21fXXKl3flTOsTO7YuZCSwVMBG5XotJJ0re0XyPikTcxb/jGVmk1GtJ2EaB5JvxfWkiXdXrEqjY1VdjC2y2oi+ZoFmdYa9EwUouU0Gj74ujJge+QZKSqezwPPLSXZXEwjnxlUGhiDi2kJNb3CcVauuTpNUzaW9L1GQCOgEfhLIXB3kpFY3HzicPaPUlUZbn5LEM1eYVL0p2ySluz3TkY0nst3+w8Tv+E7RKvZiC7j+XDHAXVtLeYc8lQTOfhs3yk6PTbfEHZWnYSoNhJRfwoNvOfw4bbDan2HOZ9iOc8CWTl5VGn1HFWaBLB+yw9ANrKTbonNgcMsow6y4BWytm3l6uOPcry6IKuyoKRBI06uXELB9i2cb9EEa8YNlfjIDJnD0drumPMyVUlvxqtjOd6rh9qXjDukrl9BUYp8z2ioJ98oLi4mV4pJZe7Hkl9q7W4coJST5qXnkL3ubdKGP6TSPzKdc7Lp/SS/+45hPi/FqbKUuDT1ciW/hLkrv8HjwZmItlOp5peEhykWd+9lOA8MpkKbAIT/KsSwOdTsOIdrKVfV8dmLrNitDvLseUr8WliaFpLbvXw9jdo9xis32qcDNnMpNRnRZCaixQRi3/6eDz/fhWgxD9cRy7nXZ5Eyq/vnUu2/fMpGp2nUONF/NAIagbsAgbuTjMTg6hNLdf8klaqpODCaNoNmquhC634ByoJ8UtQWzHnFVH8gBNF+Fs/OMnqzSLGl0WTOzp4j53HpGYRoOAXXLlN4KfoTXo56B88+AYg20xDN5/HZVwaBkROtpdQN9bWN3/H13jNqdDlsWdgtdgrNhv9Gmt1M+shx5LvW5IoQpHbrSPLAZlyfP1+lWtIe9uH62NHqWNMO7OeSENi++UY9P7w0hHNuNSk8aaSALkfM4Updd3Jlega4sfNDbnz4NdIRpNjmUKTHZi0k21aiXFMd9iKkjbyKWMh17FDwjy85POplclYlkXf2mJFWKU3emC0FzIz+gPu8YxFdF1GlfwjuQ+ORfi3upiicfJbiNiSO2r5R3DN0BaLu03x50EhHSd8Rh8WGw26hWEZIjEIiVXIsS5blbd2mPYi2ixDNpnBg3wne++YU4r5RVOkcQF5eAY+PXkmF7gvxMEWWlmfryMhd8JOlT1EjoBEojwjcnWQkDldTNB6maJyHJiDazuPNT/Ywc4nsQruIer1COHk1C//xnyNaBnKf9zTSMmQPGNm3xYggyLjAEGnx3iiYfo++zo0cKcY0NBNmHPQaGYxoE0O9h2NJLyjAgg2rPQtsRkRDij+R1uo2w7hMjq2sffv5qWsHCisKzjepzvnZMRTkW8l3q0PGh28pMnJq8hNc79QTW4mFgtMnuSxFqDt2YXXYuN6lO3mL5ynikbn9U85UrUju/r1KLGu7eIkTUqi6JlJtx1GcTdaBHVhLrJgL4YbDZuhKpHGbXQpTCzFTRHKp3qRMflpisXHkzGVGBr1JtaazEO1DEV4hyizO3d/osOsuHVJNcTgNC6X68FCqDn8D0WwhYxZ8WBpNkUkoh+qcoyqOFKZle7j1W+Y/7XVE81FU6xtKWk4hA15IRNR7mYHj3mTv0Z+o0DGYOkOicTHFoiMjt2Knn2kENAIagb8MAncnGTGMzmr6hlL5wSDa/f018rIzaDh4kWpCF5bwHd8dSzGqadqN5OPPDG2Hw3JDVcjIi7v7p1RE69lU6TKJc5mShEj9QwZ2m4wsOEi5cQPRKkRZnf9w1IgGOGzSEbVACT/z7QUUF/2i28hamUBKJUFJjYokPzeeZA8XLIlBKnpx7cWRXB/QCQtWSi5eUKkTy9ZPla7k2lPDuWYarMZbzvr1HHcR6nHymW+56O7MjZ9+VNs4W78hJV37KmJyDRvnBvtyqVljLDk5yr7dUZKFQ+o4ZDVQaUrJGMQyaQQHTl5iybqvGfJCHKKOdEddgPBfSZUR8bj5T8fVFHYLGXDxi8PTFKYiJJX6L+HeB6aRnC4JnbE9WRxUYLUZ1vNSyFqqvzH26cCuyoccnL1wnSrdZUfkuSxK2sbB0+mI7iGIxmPYeymFybM3UqFDMO7DYnGXERldTWNAqP9qBDQCGoG/EgJ3JxmJUf1NXPyiEe0n8sX+i0Sv2Y5oOxPPzkHk5hfg9+yHiFaj6f9cuHE5pRmYRUpAJdmAz3dfQbiPo9MLwaWX245MxRSpf/BzFClpPXypcihd89FutY4s15WiT+lFIiMMMpZiLy7m2riRnKkkSBWC80N7qT2kvrmeq0JgTk8h88B36j37qfMkF+dxwKcT2bs2K85wcuJLZI4crRQheTu+5GTlShTkG8d4pXcbrvbopvadvDKSQw/7q9iNeddhzkXHkJt+mgyZGFFlw7cwENIL8tj67SGmRuyg+zNLcX8wANFuFtW7B1PTKwr34SE4PzQXN78I7uv3Fm4+Sbj5GTbtMkIhyUhN72hqei9BtJ1CzMqP1XFsP3SCp+atxefZ6aRkGh2Hlc/ILYERu4qbWG2GaVzgEpmuCaVGz6lcupbHYzPXI1pPZ+CTsVy/kYVL2xlU94lWpb3STddd6lXKAynRmpHS75a+0whoBMo9AncFGSlrrKYmKRkVicbDNwqnfpF0fOo1rqSm4+qXhKgzltXv7WbzrmOIJjOo2mIOJy7K7rR2HGabyqwUKZt3O5//cAnRYBLNTaVkRSY1VJmrnFVz1WRad3AsosV0NnyzX0VLLBRQKJvI2ayKPJTkZHP2icdUOe317t3IXfYOFxrWJ23r+1huZHCwSRMyv/yIopxCMt7fQUlxtuo9k2u2YC5BlcYWWDMpsFlVhYwtN4/81Wspsaep7Wft/oa8z7aSIbvtYie3KF+ZsZWlk+Tglt4oqdmFnEnJ4tPvTjAt7hO6PZNIjQFhVGg/D9FlImJQEB4Dkmg4KJHq/hFUHxqNq28CNYdIJ1SZmlmEiykSN99YXHxjVQrMTVrt+8ZRyTuGRo+FsvfCdR4ZuxTRKhBx7zjC135Z+t2Szf6kOf0vbEQ+kvb2BapcOJ/UrCyaDZyB6BzKqzGfc/TMFSp2fx3RahxffnuQ8fFbVSNCt1K9iuwvJI9FpYv+yqREk5Fy//urT1AjoBEoRaDckxFJRHxk+D4Udx/5n3s0rtIG3pSIaLeAFZt2Effpd4j7J9DIK4ycgmLaPhKPqD2Ll4PeVCiZ7Q5jwnRYS5MMcOxqJi4PzkE0nchbn+z9ZTyVdqp9a8c+VVki2kVw+qpUXkC+zUahVfWzpSA7n8zBA7heUXCijhtZfU1qncsz5nPs0cEqOpIlK2ZsBbLlndJXmDErsadKCklLeJtNuaXKzr3Sjt5WWj4s1RilHmmlx/VL1CMlO4ud+0+z5v2vCVqyiUemrqbeI0sQPYIQ7QMQXeYgegRTdVA0NUwJuPlJUiEFqTG4+cTibJLPY3H1lRhK7U0Mrr5RuJkiqO4ve/xEUcd7oUrPVPVPpLpXPLUeWkFl/4WIXrOp2GsJnR5fTnaudFGxUSSJiGRWt6RpjKfS3basv03S+k8Q9cfiPOh1rqSkYhr7HqL5AvpNfp0bmZmIbnOp5r2cxkMWUGnYUpz8w3HzltGSv7CoVZOR0vGr7zQCGoFyj0C5JyNyMpKTqV+Ecul0KzXGqjYwlqbeEWSYc2gxaDGi4WhWfvgN739zFFHzRar0DubSddmNV8oo7EaXW5ts8FZSKr2ESUHvIFpFIDosIGrVR4qo5GEjbNmXVOyYgGixgDFBa9U2VO+afDsZMs5SUsD1hx4ivaoguY83ObnF7GtWm3OxM7AVWzCnXVP+X5J0yLSPtJlXQk+Z45GLis5I7cUvJMMYqJKCGJUohcVmjh49R+LGPTy3cCODnojggWGBNOs1GaeucxGdQxAdgqjYLQyXXvG4DjKs8SXBMCZwmeowoguymaDETd3L90sjTOo1PxkJicfTNxwZDXGWRMUvlqo+sYi+C6jaZwG1BifhMSScWqZoRPcwpiVuUodrdxQpvxKlVTFO4Je/kqTIPj2KVhnC4PsHzkLUe5VFS/Zy7HQKotlMRPsJ7D5xjdGRmxDd5lPLFEtVv+V4+oYYERpNRn7BVD/SCGgENAJ3KgJ3BRlRBMTQFLj4xCihpei+iNFBW1m/7SCiTiyNhoZzw5JH84GxiJazGR/2nkqt2B3SZfRmO3NjulcWYnYrPZ5fgWg9F9FwPBWbjaNC61GI+lMRLcMY9Hg0+cUyAiCbzqWTL0WuwJlxL3KyUmXOd6nPle5dFIFIK7xBSW4uKdK4TL5S6CBf7VtWnkh1iRHrkPQjp6iYlMw8zl7L5tuTKbzz+REWJX2IacY67n8sjsrdZnBPy0lUajQF0XQSot10RN8QxKA4hNcSqgyLp+qwCKqZwnAdFkpN/0A8TMEKF9U48L+cwJU+xCuS2t5huPgtpvLQlYg2k9i06yR/ezWWCp0XUsdnKc5eMbj0mceeYz8ZvWrshSodU9bR99bviAOHtNTHit0h8YeN3x9H1HoU0TaJ1Kx8TJPeQNSdy4jA99h94Dii5wwqm1bg6pNIrSFhpR4yZeTqL3ivIyO3Dgn9TCOgESi/CNwdZKQsXB+Ds3c0bv4xODWbyrGUXB5+MQlRazZTl3zO99sPItqEUK1XAHsPnjImTJUwsXI5r4TJiRt5/d3PKCgspFBFJYqVRfr8hPdo/egSqvZZinOfSFo/GcXUpe9SIKtELGBXPWZKVOQkJTxaiVHznO7BceAE5xPWcv2i4TlSID3I7OAouDVr8eOZTDZ9eZCFr+3k8Vmb6P70Ump7z0N0n4FoMRHRZAqixSwqtl5I1QfCqTI4iur+0biMiMbtoWg8h8sS5iic/SOoNiySmj6R1BsUSS2p9/BeirPPamr4LDc6GP8GIqKiS6Y43EqjKNJXxMUUTy2vENyHL1Z9ZUa8EK2+NIeupCE6jqHa4BgqekfRwLRAva76+tjNSE8RFez5l6+YVJFIubAdm90CDiuFRcV0fHw+wmkG8Wt38/VX5xB1F1LTK4Dr2Tn0ejocMWgxtXwjcPeJVpGcv3S/Gk1G/mVU6Bc0AhqBcopA+ScjsciqGalxcPdJUESkUo+ZNHt6HQdOZSJazaFG55mkF+fy96lvI9rNY/ArMaVXu0BNlvJJ6Fu7EOL/GPh0FIWy8Zvdqrw+sMg4BqRm5XHswgVOXEwhRXmOyPxOPoVmo/utrAvJ3LiRZHdBal1Pzjw8nJzcDKQ8Vja5LcooIdVmOJPK7ZlLiohe/TE9RiZRe0ggovssREfpBLuAe3qEU3VABFW9otS5uQ2PxcM/BtfhcpGplVg8vWKpNTgeT2+pmYlTug83ZQ4WiYwOOUvNh68kETE4+0XjIgWnv6EKxdUvBmeT1IjE4OFj+LW4+UZSye81PP1CcBk4H9F5Bsm5JWQe3Yk1/RKjVu1Q+pkKHWfSd7rRZFDqcGw2Gw6blPWWJZcUlMYfh2ygJzUy0ilWOsYZJcGRH+xCNI6mUY/par0H/RMRrcez/MPvmZ7wKaJXEPf5LKKq3xJcVCffMiKqIyM3oasfagQ0AhqBOwuB8k5GVArBR4osE3AZGkRNv8WIuoHsOXiQpW99j6g1gyFjlnDkaiE1BkSrZmxrN/xDXSSLpQSsxiR4f9/ZVGszl+9/vFT6njQxs1Fkk/+//3JTig2LNBGTfWYsmO12FVspOXmW1GYNuVZFcPnVyeoDMmVjl11vbTlYCw1Bp+xjk/TuTqrLqEeXBYgBMVTwiaOaXzyyuZ+rf4yyWq81ZDGeXrKnzhLcvJfg4rUMJ1MULlJU6meULrv5JiixqRSgysoWd984ZYMviYRaR5I0SVBMkbibIv5j11sZEZHEpeGA16jhH4UYEYKnVwIuvvG4+M/lviErEa3n89o7e6Agm8ya95L1WjwZRRZaDH0D0fBVtm0xLPJVsKPQrtJRtpsBLINSkhGblO7K3jmGfkS+9dPVG9w7NBRRfxprt5xh7rJNiPtn8ejktVy+eh2njoFUeCiUWl7RymXXze8v7D2iIyNlo0HfawQ0AuUdgfJORuSk6+kjiUgETsPicOkfSJVe0Vy8lotbr+mqNf32fedYs3kvotU83HvOULoOOQlabQYRWfXl94gGr9D06bc5poy7ykaFFWwySlKizLukK2uhFeyy0kVuIN/wEJOuH1fHPs01Ibjk7U9RfoahAJHZB9UkzvDbOJqcTa8nQhANXuQerwTcTQnU9g2nlm8ktUrvPX1lWXIEbv7huPtH4OoXgZtfZKlAV0ZAyjw2SgWov5Z2+Vmo+l9EDEyxuHrHUePRQOo9GIJ4MB6P/q9RyyuGmn5hiN4L6fz0ctUjp2DBGI5Ur8zVuh6QksbaL86qvj35WUYkyWG3kouFdCyUKDr3S2lvGbq/dj9s/luIZgsY8fxicixmqjedjug0j8Nnr9LhoUAqDlrCvd5Rhivsr53/X+F1TUZ+bQjo1zUCGoHyhkB5JyOylNfNJ5FqQ4Nw9luF6PASE+M+Z89P5xENJlB1SDhXM/Lp/+oKxP0zGB22QV1im60Eu0W2jYOhIxMRPSIRfROp1WUcw1+NZ8uhyzcNBdl1tlhFSqQtuxKgSqJRIDvmQs4/timdyOUGnhRfSVZpiXwZGpAdb61GA7v3th3Ao+04RJcwqg5dicvQZXh4R1LbN4zaXtGqLNnDJxZXSaz8FuM0NE4trn6yL0s47nLxiS0tu/1fogFlJOb/Q05KIyzCfyFtH0nk4WdfR/QcrUqBRb/lVOg5hU3fX8d2Yjd5Vapx+YFGFFerSsrTLyis+s1cRqYs6ZVSGrsFs60Es8WMwyJDI7+BjJSu8tpXRxCdAqn4wHSOXrnOwNGvIZynsmHTIT7ZtpMK9UKVI6vRmfn/cz53OiHRZOSm75h+qBHQCJRrBMo9GTHFKu2As38Yzr4rEe1fYcv2I7wc9C6i2Xwen72Oq+l5iB6LEPVf5WKyVHFInYdRQbPv9GXl9uk6IIy2Ty1XlTai4SxEk6k0fzyC+A3fcCVNfkY20LNhs0gvEgdSEyEtxuRW0jp1J1MIMt9doSIi9mIoseVjtqersfXGpj1UrT+JGn1Duc8UhqdPBG6yb45/Iq7DluDsn4STdxzVB8dQZUAU1QZG4TwgGtfBcbh6J+LuuxR3/yW4D43Dwz/O0H+ocmbp+2Esv4ffhkx5SB8Rt+6r6Tp2KVkFhWzNuMLfI76gdueZDBhr+LIk/20QqfVakt+xNlktOnOyTlXsn20kS5qsWR0U2hzIomkpBZGq3gLZJO+3fMsUGXGQ5SjB3SsM0Xgy73+5j8++PY3wnEyXJxI5dzkV0WiOcmQ1So81Gfkt0Op1NAIaAY3AbUWg3JMR3zichwbj6ZWEy+Bw6g1K5Ny1a7Twj0a0nMO6L35iy1d7EPXm0HB4NFn5RWDLocRueIKOnblOGaA9F/aOuk4bv/qJxyetoWLn8QiPiYhmATgNCeKpCctY+f73ah3Z963IblUFuZdXrCNFNrPrP1z1kpH6CKvVhl2qVoHNu/ZQqenLVBiciNOwBFylONQ/CM/hEVTuHaG2L5pPQHSahVOfOdQdOJf7Bs7ESdqzd56FaDsD0XgSosVsRNu53NMn2BCXDo3Fwy8eD98YPHyjlahVWqXL5d82lJNpG6krUdECSTrKdCUyymKURUsPEil4rT4oirqmCM6nZsPevVCUxmmLDammyfrwPbKrOXOj430kd25NeocOpDesytUeXUgrLlHkTMaCUrb9gDX9CrnYKfxXzzOFzT//kb5oNrtMetkYPGcz4v6pDJr2Olcz8hA9JyEajuV6Wg4PjkzAqVsQ7v7G+f4eROy2bENHRv55COjnGgGNQHlFoNyTER/ZJyUCD1MSVXqFM2LyKo6eyKVG3xAq9ljAt6eSeXDqJ4iarxCzfLu6zA5riXI3lf+tL0x6DyF68P2xc6VDwPC8+Ol8CouXfYJrl1cRTeYhqjzGl7uOqXVUsY0UXqamk9+8PT/VEGR++oWKimTairCRI1WZnMxMoVa/6VTvEY/b0HAqD42kyPx/EgAAIABJREFUytB47hm0BNFoBvf1n030yo/YsfcM351I4djlTM6lZHM2JYufkjP44XQaO49c5pvvT7P2/R08v/Ad3B9KomLXCCp1DuaegcFK+FptaBLOfrKaKIaapWWvqofLTWkKKXJ1ucnYzM0nAQ9vSWYSDPGvJDGmKDy9wqjuHUqVvsH8eCmbwlljOFnbk+sBk3Hs+YrTg3qRWv9eCtvWJ71TKzLaNaa4VXPOVq9MckQwWf/4mIyevTnr3oDsq8myDzI2KbCRYMtFRj/kvbRV+afMjcPhoFjpeOxs3XcOUX8GYkAUV9OzGDh6KeLeibz99R7WbNiOaBHw1+/kq8lIef3Z1eelEdAI/DMC5Z6M+MXhJFMepgSlbRi3agtvvH8U8cA8Hng8SXadoe7ABETLSWzcaRAOVcNhN2ORph/Apm17OS2jAHKWlM3bVH5BviMb3pkJWvMtvR5eQG5BIQ6HWTXMk//9p36ygWNCkO41xKi4MXgMVzIMZ9cxUUmItotwNy2jls8iqptWqBLehj2msO6zE/9+Rv7nCwjcyMri+KmzHDtxhaPHkzny00WWr99B55Gv4TYkmFpeoXj6huEuUyy+0tK9zJW2NBIiHVZ9Y3D2NzQnbrIU2BSPh3ecIiQ1/BOp4hWJ05AInIcuU+kh0XsB+89lwPp4UqtV4lz9Opyv7c7Vlo1I7dCUrPaNSe/YhJROTclv04TCNi0436gu+++rQ6ZHFfJbNSGnxGjoJ6uSpOjXbsCNNEGTrvr/5BCvXrBZ5WccpN7IRPRYqHrdfHfiBLFv71OOt/2em8vn+04ra3t5rrqa5t8MGP2SRkAjoBG40xAo92TEW6ZpIlX5a4Wec3lj52kmRWxGdJjBM9Pf4sDp64gWk2nlFU5qhtEl1iHb11tLsJuLsFiNGdIhzbfM0ptdzoUWLNId1SqdUY3qEPmWzWbBYi+gxG7HUlLIpXsbclkI8jZ+oCpM5LWPW7Gee7sP59KlPMLXfI7ouJTKI8LwNC1CdEpiyItxpU3j5IxcCCXZyAnYbrUalvSycsdWiE3O3rJBngPWb9rKE2MDqd9jNsLzBYTHKKr0jKTOIytw90vAQ0U1YnHyi6G6f7zyJlFi1zJfEdl3xru0/NnX0Jy4y3SR7OVjiqCSJCZ+wbjLXjw+a3HxikB0C2DHmRTYsYnL7tUoadUYW0sZBWlKdltJRBqT2rE5Ge2akdG+EXmtG2Fr3hBbq9akNqhNZr8emC1GqkqW8KoIiSzhdTjUOUnKUcpNbvrKGOW+mC2U2CwMm7AMUT+Q6Us/5qvvTiG6RlGv51TO5+fTyHcRTgMjf5N3ym1JwdwUlfrV/evIyE3XXj/UCGgEyjUC5Z6M+MRRQ2oeBsfgPmAR+89k4TP2A0SzCSzZ8D0zV8my3XH4vbRcXWebFKLKyIfUJqhFTvj52O1FOCTjkPOnrAJB9lWRk6fxnvywJAgOs+EoevXaZdL/PpbsdYlYHHJ9GD8lGFGxDeLeh/li10nOZ+QiWsynwkPBVPZaREOvJaQqw7QCHGRRqNISsurGKDH+l4FoKcJx03upucXsOZXMolU7afZIFKL5FETb+YgBcVTxT8JtWBwephAVIZHddWUvmbKJUDa881Qai1jc/WUzQVkaG4GzXxSiRwCh675i/Yc7qNBiCs7eIYj2c3jzUDKcO0KaWw1SOtYjtWMD0jo2UuQjq20z8ts0I791U651bsqVrk1I7XQ/WR0bc6OWB9cfNykPFpWNsdkpdlhxWOzYzVYc0om2NC50yznLtI2MmJgNa/yla7YqrU/HV1Zw4UI6NQcnUrXjbI5eyudv41ZSoXeocon9LWZuZTjcUfeajNxy+fWTvxgCQgh+z+Uvdvr6cP9LBMo9GTHF4SQjA/3nc/9Db3Dh6nkaD19LlSajyc7KYuTUdYiG85gS/7FCTvbHldJV2VtXERP1qvJ0R+YP5H/uModgt1uR3XJl5kX2T3E4rMrW3GZxKPFrgeEk8rPsIWnFZ4h7BiDaP4eoPYKZYWvUlh8etRTRajaifwjPLZL9cORkW6giBXmlnzZbLXy+Yx/PT0vC9Fwg4xes5MDh46qbr/qAVepQZBVPWSzBghULpy9lM33ZFtr6BeDRZhSi1QRE54VU6hFK9QFhOHlH4eofh/vQ/8feeYBHUXVv/CahE9LoPSEhvdFBQVRKCiAIokjvHelNiCAgNVQBBcFP7IqKiCAWUEFBRUR6h0B679t3f//n3glFxE/0L34k7OSZndnd2Zk7597Nffec97xnJRWlt6PRVESTGSqzqEybZap4XrkOsYimM0lMz1GXWvPWHhwajFDk38W7L0FcHFluFYgP9yIhzIuU0AakBTcgM6gBWUH11Zoe6EtyiB9JYT4khnuT5V6J9In9lIXM0p6S0Ku8IyrrVyGR21BG1PWljLyqE4iN7Z8fR3jNoMZji9EXWmjRay2i8RQ2v/8dw5Z+hWgqqwfHKsVZN6Wr8ifaK3firfg3j7GDEdXn9od71AL/JND4/57rHjWRvVl/wQIlHoxExVIhahUuD84iZMj7/HzqIqLFciqHz1AwouXjixFec3nnc5kJY1LhEBkBMVklGJGrEZNNPkpOpQWpkGq1yjReM1YZllGvK3fJ76x+Ni2VD/ceZPlL2xH1oxGeQ3AMHY7w64mLV0eSsjKRyTuBjyxCuPSjW0yRxokMX8hQEXD0YiJtI8chhD/CvQOi5mOIil0Qjo3oOXgmCdlFRBRLHmZTFgaTgXxZ2PeW1pxOzmHZ1l8YG/Mpnfuup3bbxYjAmYgGU5W+ilOz2cx472cmLd3JgAmv07bbCkS7+QiPoTQd8zqm/AziV2h1ZWZ8dBzh0p9xLx2AhERS61Yj2b8Buf5+ZAX5kBHkQ1pIA1JDPZWnJCvAn9wAf3ICfEkN9SHB3Rn9zAnKdjkqJdqmtFdSP99N2v49KOUVzeCYpRSLYomAXoZwVChMs83FuCzqNZ9J6ZZzOZeUQ+8ZmxSQmrH4fV7+5DCi0Rzco9dQKVJK3S/VvECRf0eD5VqW0b+8tYORW0ax/en/zAL/X7Dwv/r8/8xg9gv/ZQuUeDASuZSK0WtxCJvN08u38dmBeITXWDwfW8+xi6mUabKA0mEzOROn1YWxmSWTUoZcJEvEhlV6PCyyWJtUVpW/4G8v0KW3whc//srE+VvoED2Flq36UNunC8IlAuHaGeHbDxEyABEyEBE6FOEeReOIEaq/TAYdSzbuYPySN4v6T14Ddn93FI96D1G6bEuGzPuESgE9EOF9EaGjESGjEe4dcffqSEKyplciAYhUdMVmBFnp1qLX9m8JekjPz6XkfA7+Gs/eA+fY+uUhVr2zqyhTRV7ZrEi4P6VnseuHc1wqsKA/uFcpyJ7r9aRq2/Nb9tNi1EYMSQnkhviQ0aAmGSE+ZIV4k6W2PmQFF60h3mSGNCBTvh5Yn/SKzmS+tFoBvNQioJH13X4SnRy5EPmAYuFoFkCBFAW3CnNJk44fs/T5SL+VtjzUfa4qbvjqnl+YufItRKO1PDXhLX48cY6KzZ/HucN6TaE2er4Sv7uhUPsvA4u/41Gxg5GiXrZv/nUL/K/Aw79x3X/dmPYL3pEFSjwYiYilYtRKhN8UFu06yevbjyLcB9P3+U/48vtTiHrP4NFhOXl6OeXZ0Nl0GNArL4jVZsUiM2rkr/SblpyCAi5cTeKTz/YzcvpS6rUcTGmPR3Ao3xpR9hFEla4Iz74I/xGIoLGIkEE4BA9EyFWCEbkNnY4oF01I06c4eSEOg9WkFFwloJBZOS+9vgNRoSWibHueHrOU3Qd+xMEtChE0GRHypAZsGg1BVI+kjGsLtu4+SIFelpXTiJ9yspYhJbm9db3pVm7ZtZHw4iZOulbnzNO90C94Dg59ij79ImnPDCbXrSxXK5QmoUcP9bld8anokrPJbtaEFG8PskIa3gAi1wDJTVvpMckOrsPl6qVIfH+naqv0eiQf2sXpqhXQVSvNaY/KFH7/Exmnf6TgrfWcnD6W821ak+RUGWNGtvqMBCMWmW4DdBu9HtFgGjM3fMGW7d8igufRvM9aTiVkUrnNPMo+ugZXyYGJWKTq8rhcI+3+HXDwb3/GDkZuGZ/2p3fNAv8GCLgXr3HXDGo/8V+2QIkHI1ErqBS9AuEzha9OXWbWyt2I8oN5c8cBdn9xDFF1GOEDNiu7yYncYrJo2SvGPJU1c82gJ+Ku8Nq23YycuY7wRycgqnVBlGqDKN8OUb07wn8QImwUoslgRCMJOvohgvviENxbgREJSLR1MCJ4AA7BfXGUYKJaJML9YVo+Np7B016i34QX8XtwAMKpKSJgMKLK08Ru/oz177+HY5XHEYEzEOE9NO5J2FBEo1GI+k8iyrQm9JFhDJi8hoEzXmLg1LUMmrKGAdPXMmDGOrX2n76O/jNWM3DaJgZP28KQSa8ydMprDJ/6Kj2eXMbF+CwK9+8hSwhOe5UhtZIgvazga+8a5NX0ITGsAZmNG3C5Yjnin4gGm1mFVDIf605WXTfSbwIe170jN72WHuxDTmBdUqqWIeWHwwokZX76CXEeziR5uZDaxIt8bx8yqtfk15qCQqcypFcqQ3I1QXb5Chiy86RgK0bpsyqqrjf0hY8QdcYyYt5HnLoQj6PfFGp2Wc75pDzqRC+mXFtNP0VpzUgpfZXuWwy8IhL42MHIta+ffXs3LHC3wcE/3ebi1t5/+v5L+vnuCzAStQThN50L8Wl0G/cqotIIrlxO4ZW3f0BUG0bExA9UN8v0UrNJElQlLNGWjZ98Q5snJlI9+DFE9faIyp0QtQciGo5BhE1ENJak0BE4hvTDIWgAwn88IvAZHPzG4ug3FqeG0jMiPSGDEKGDtTVkIA4hTyBCeyGajEH4DEFU6oZw6ICoGI2o+7QGMkKHIPz74xrcjyry+AAJbIYi5HWCZchHApshiLARiNBRiNpPISq0R5R6GOHUGlH6QYTTQwjHtohSbRFOcn1I2y/XFlG6DaJsW0S5hxGiJt/9eBLOnaRQCAxBnhgCfMgM9SIjqC4mb1+uNArB6N0AU4AvcdXcONmrJ2nrV3GhURgZ/nXJkKTVm8DH7/aDfUiT+iO1K3Nx2ihSliwkp6ofCQ2roAvwIy0giNwgXwz+VSgMdicz3JuMxt5cCHQmrnEgxjwdeqMEIzasSonVSux73yNqDKPnhA8x2ow4Bz9DuY4rOH4xk6Deyyj9wAKco1fiErEE9w6rlRDaPZUx89+8LXYwcu1raN/+Uxb4pyf0f6pd/9/zlNT7+v/apTh9/r4AIx0XIkJmce5KOiGPL0e4jyMpPZtx87Yhqg9nxPKvVZcZpZaHDATY4K33d1G5dhTCqTOi6mBE7UGIBgMQvn0QkrvR8HGE1xMIz54I7ycRPk8jGj6F8O2O8HsC4f8Ewu9JhN9TCL9+iID+iMABiKD+GpiQ4RuvgQiXh/Fq2AWfBwbj3f4ZGoYNpFrNSET1Tsoz4hA2BBE8FOE9GhH+FKJRTxwDRuIUMACnIBn+GYLw6YeoHEnt2tH4tByF98Pj8X5oLN5txuL9kNyfULQt2pevPzimaB2Pd+vxeNTuxb7jl7FeOk1caUG2vydxjUJJDg/C0rA2uUF1udC4IbmB9UgK9yQp1If8WpVJqVOG/PrVSQ9qQGbwTXyR24GSQI3YmhPQgHTPquR7uBAXWofcIJlpU5/UUD/SQr3JCGtARmAY55v6YvbzJ9elGhc6dsRkMFJou+YZkbEzIx98fxpReyRNe76MpBNXbTIZ8cBixYd5ZNx6nFq+QMVoKbO/nMrtVqvtbeXw/xso+F+9Zwcjxelf6b3b1n9qor537/D2Lbtf7/v21rj3Xy3xYCRyBeXbL0e0nsPJuHRKtV2K8B7PheRMHh77H0SVycx7fVtRR9kwmHW07/UswrEFZf364hE6kJpN+lCnWV8aNB2GZ/hQvJoNxrvFELwbD6NB06HUbzwYz0ZDqB82lKpB/akWNIAqvv3w8O2Lq29fyvj0wLH+44jajyOqP4Go8TSiYiRutR/l5dc//N0gSU5I56n+zyLKRyDqDaRM6NOIsKcRwRLUDMMhqB+iUVdEk9GIGoMQVSKIWbAevT73d+f6Ky/Icn+FF+LIKl+VuLDK6L2DyAySIMGHjOCGZAd6ayTVIB8yA72KCKs+ZEjSqiSr3g6A3PKaJLEqIqvMugmWAmneZAZ5kRnkQ1aQF1lB3mQFSTDiRWpIPTLCvMl0K8ehUb1krhM6m1ll1FhMBpUafOJ8CqW851D10fnE5eVT88HFiNAX2HP4BL1mv41j66Uq3OEcuRaPiEW4dIxFS/MtBqEaOxj5K8PXfuytFvj/TMa3nqukPLfb5N7tyRIPRiJWUPbhxbh1WsWZ+AxE0FREo+cUGAl4ciWi3kzWbN+ndZDNRl5hNiNnrGPdzuN8evIsP18+SVxyIvHJaSSnZZKYkkZSegYpmTkkp+eRnJ5LYmoOSWm5JKRkcykpkcsJSVy8msD5uKucuXCJX89c5fCJS/x45BzfHzrN/p9O8cU3hzh5XpaWkwxTnbZKNoQKP2hhoo1vf0CZKq0Q1Xpr4aDQkSrk4xQ8AhEwA+EcSQ3fR/hs3w/aeWSYSaYcX9NVL3r1jjYWkPlEeWkZZNdrQJKfO1caS1l3mQlzc5bMtecaqLgOLm4BHf8NmNz8Ge3cGpD5zX6wF3kB9Yhr6ovOsSxXFk9XPGKZ9isznmSFZOnFSk4vpJz/c1R8cBanUzOp1WkNIuBZtn93guFLP8GxxQLcIpZRKfJF3COWIMXd7GGaOxoR9oOKowXsk+2d95rdVnduq3/jyBIPRiJXUKb1POo9sZZzCVkIr2co12YJ5xIzcGk/F9FwLm9+/Ytmapk9YzUzY8571KjVEsdSrahQdRDuDUfgHjAAt4BhuIaPptqDz+AfOZ7mj00gesDzDJ68mlmL32Dta5+zbfd+fvj1LPFJaaRl5pCbr8N0k0rqb/tUqr3mY7PqVbqqWWqLWMzYrLKMrZa8+sOJC3i37Ico3xThHo2o3hVRqROifBtadhnJhSQtJdlqkDLxkktRJMz22wv96TODTk/iRx+TN3IQSd41sXjV53IjfzL+LPTyF0DIfwMov3kv2EeJpmUEBpAeEkhyQw+yHwgiZ8UyEk+e0LKDjGZN6K3QiHP48zg0nc2Ry2l491qHaDiRt784wZS1X+DQfC7usjZR1ItIiXuXCCl8Vgy8IrKNds/In45b+wFFFvi7E6vdgJoF7Pb734+Ekg1GpLT5Skq3eg7fPuu5kJiNqDeOyhErFRgRD8xG+M1j+8GTWkdIPRGk8gWcikthxIQXqOTZDSGaIapGaNwP76cRdR5H1OmOqN0fUeMphMfjCPcuCNdohEs7hHsEolo0ZbyfoG6LETzYaQh9Rs9jxsJNrNi4jW27vlfXkDomMkFVYz9IoTUl8aFVrJVFZzRtL3Xs2jc+Zuio5+k3eBaDJsby1mffqNe1E1llYsvvlc5uHPGne3qrnkOD+qlaOpkhNTE0DCbbX4KBIn2QItChaYncWUjmNwDjTkDLtVCPJLoGepMSEoiuYSDn2tYnv4LgeJlynN+zS6X3Wg1mDDJwYzXh0krW9Ynhh7NphA7dgGgwis2fnmTOK3twaDYHj4ilmmek4zJcOhYTIGIHI386Zu0HwF+WW7cb7c8t8HeAyZ+f1X7En1mg5IORVZRqMZvwgZu4lJyLqDWKut3WcT45A9FiFiJwIbt/PaeZSUqSmw2atoia8uBcfCIrN+/AWWqDOD2IqCLTeAfiEDyI0sG9KR3cl1Jh/XAKk/oh/RCBAxFBgxB+/RENByAa9EXU6KmBlqrdEaWbE9zyievdItXQbVJRzWRQE6tFTrA2uUpwYcFi0aOJzl//yI0dsw2bWdbCkROzzDG5kQV046A725M4SAqNpaydogDJudAG6APrkhmk8UQypbdCipdJqfdroOFOAMYdHiPJrxmh0iMiryH5I97kBdchP8iL7KouJPr4kPXzYZXaK+XjzSbILxJzc310ASLoWb47nkLT0RsRPiPYvP0ci17/Focms/CIWEbFyBdxjZJ6I3Ywcmcjwn7UPW2Bvzph3tM3cw83zm7nf69zSjoYqRRdBEYGb+ZSSi6i2nA8O63nfFI2osUcxSH5+tAVJeouU0M1EKAUw35TN9ZgsnDk5Dk69J1BNd/eOFR9AlHrKUQ9mUHTF0f/fpQK6kuZ8F44hPRGBPdBhPRHhA5EhPVGhA5AhA5D+PanVvhQLmRqMu56k/x1b1UcCKn2KgGF9ifHQNG+RCzXFwkbip4rJHP9qOtH/K0dE0j6a54UXXt9B8muNUloWJqksEAK/L1JCpM1ZxqiaxCoAMk/6SFJD/YmJawBhobepAf6cblxQxWmSQxzJ82tPJcfbEfhpTiyJWDS29BbLViseUVadHpcH4pVqdvfnbhM8xFvIeqNZ+P2wyx++zsFRlyjluDacQ0eHZbhomrUFBNAYg/T/K2hXKI/ZJ8c/zfda7f73bd7SQcjrgqMxBA++D8aGKkxkrqd13E+KQvRcg4iYApfKjBiw2wx8Zt5/5r5jVJi/doTyDcYee3jPQyZtpxmEaMo6/k4wq0zwvVxLbvFdxQiZBwOYaMpFTRUAyRBMkV3ME5BfRFVOjBp1hrthJLjYTUqCfSiKjM3LvQv7skCdBht2Ew2BUoufrObtLoBZFdzJqVJfXS+dUlo5MW5pgFkSe/IHXo87iRUkxHkTUK4txJVSw/xJD9IXq82yU7lSOrblwKdprxqzrOoOkEmGU6zFRbVrNHh0noJImgGB05dodnwNxH1JvDazmPM2/I1okkM7pIrIgmsMkxTXPgi9jDNvzj6i8ml7nRCLCa3U2ybeaf9II+zL3dugZIORiopzsgcfPts5IL0htQaRdV2KzUya6s5iMBpfHLwsvI2WCxFnpFbzCeJpbJAm9UiiaXXGB7aQZl5hfx8Oo63d/3IqGnradBqBMJVio41Q5RtjajWFdFQApExiKAROIQPQ/j1Rbi257mVbxddyYLJrMMoi/Cpa91EFrmlLXfrqdToMFvNqKrDJu362SePcba5L2luFbnUsg4pofXQN9Syaf5Jz0hWoDfZ/n6khdQnNbweWYH1uOpUlsz5c9Gr8BOYjJBvM2G2GbFYbFhsBSpIY7TocG6+ABE2g5/OJxMw8FWVuv36Z78ye8NeHJrOxUMVypNgRIISO4H1bo0h+3nvkgXudPK7S5e3n/YPLGDvlz8wzN98uWSDkRW4Rq+gTMt5ePXYwPnELITnaCq1Wcq5xGwqtV+C8J3MW3tOqzCNzWy4rWdEh/Rc6DFgRpa8t1o0roYGTH7LHDWaTaRl57Pz4HGGLHiJgHajqdsgGtfKLRAVHkTU6ooIGo4Imohwi6bL4Nlk5cjgiFy01FyT6VqZuKKX/42NLAIoQYhZFgQEo9WmJntzfhoX23UkV5QnJ6QB+f5eitNxoyjenwid/aEH5abPBXqTGtyQhGaeGD1qEl/ejZOvblTXl01Kt0K+xEc6CzZZw8diwWzVKSn6PH0BFYJmUqbFbI4nZFK35zqE30Q+/OYkE1bsxqH5fDwil+N6LbXXrjPyb4wm+zX+CQvYJ7t/wop3/xz2fvpnbFzSwYhb9ArKtlmMW8QqzlxNRwROUZkX55NyaNBrI8JzAi9uO6jxQ8zS8/F7u0p+qVwVELFasNoMmOQqy+lZTZjMRowWo4Qqv/9w0StHzl5i7vJXeKL3JByrdtFq2vj2RVSOonztR1m0+BWSs66JlmmNsNlkmq7EKOrhxv5tY0l/eOk7e8OssoopsFnQS++MUUstvvbhrL79SHQSXA3xVAJnitga3ICMEC8t/VeKlQVLXRK5FhFRFeG1SBBNpghLkqoM8QQ1JDPYS1XylcfLME1iI2/0Hi6c8HQj+b0PVSKRSQ/ZZjMF5lzQ6zFbbJisVsyyfpBN+kwgPimBsj6TcHt4Ducz8qgZsQgRNo3PfzjD4Oc+xLHFEip3XI5rxIt4dJQ6I3bPyLU+tW/vYQvYJ7h7uHP+oGl30md/8FH7y0CJByNRK6jQbj6i1SJOXcrGvdUChO9cLiXnETlqM6LWaJ7b/K0aC2ajzGK5DRqR87Lijcr35E90mbkidS60qrgSglxbdSfOcmlwH059+5I6p0UCnFsQzpHTV5m/eDNO9WQKcE9NFr7sQ3j6RDJ84mrOZxTcGJty0rWYMdokp8WmtERs0nNyu3be+NRf37PpsVqM6M02dErnRE+uzkqHx0azYPMb6nwp8+dypooT+X51uNq0PibPIJJDQkkNraEpqAYGkBXoR1aAlH33JDPIjxw/f0V+TQj3JCvAj6zAhqSGVaPQN5TE4AByAjyJa9qQLPdyXPZtTtovBxR/RqYqSxqLYhTLGI0M0UirF9nAKtuIiS9OXEF4jcev80py9DqqtxiPaB7Lt79epNu0jYgH5uIasVJl1LhGymwaOxj564PD/ol/zQJ3MqHJY+zLvWkBe//9/X65H8CIc0fJKZjLubgcgrutQXg8oxRTxyx4F1FzJCNj9ygDWi1S+ePvL3J6TDobR07l2hwo76QASjpSu0TzMqisGRkDKVpy8gvoOyEWR49IRJ2nlNS7qPQopSs1o9vAZ/np6GlkvRy52CSfxWrEbLUhr/Nbv8W1M/79rU2qv9pM2Mw25eWRZ3rj9c8QTi0RLqGMX/iKOnn8my9x1d2ZgmoVudy8DpkBQaQG+5MR1JDUEF/SQrxJC2lAaqgnacHepAX7kib3Q+uTGuJDUpgfaUEN0Pn6c6l5DXT+lSksV46rbR4mKfmsuoZNab5JNHLrXUrtFemN0uwhIeDmr44gaoyi/aAtChJ6NH4G0XY1P52M58GhsYgHn8clcpWSgq8UFYurPUzz9weJ/ZN31wJ3MpHd3RbYz/5PWcDel3/dkiUdjFSKWoHk4H0BAAAgAElEQVT8RSyCpnMpIYnoMa8gKo3h0tVkXn13P6LKcKInbVWGs8oQzP8DjkjYoMspxPJoWzKFICf+nBIyU4JkEkBYrViKCKo2S2GRsgd8+dNJmrQdolXUbTwJETQa4Swr+D5ARM+pfLznmty7zCLRoZM6JP+Pdt5ulMiQh/LhmGW7bFyMT0NUjUT4Sf2U/oiyjxA9+AXy5T1+vouzjfw4H+5GbpA3SSGhZAVKHRJPMoK9yA5uQH6gJ9nBXqQF16fQ1xOdb32yAz1JDfEmL8CPxLD6pDV2J6t6Fc4NHUW+KV/5nKyFVowW0Es/iHKN3NxaGzarDIZZsVk0Xs3sTV8hao1hwPR3yNLlUzZosurvM/Hp+HRfhNMjS3GNXEGViMVUilqu1aaJKibeEXtq782dX7L3/2zyKtl3X3Lv7s/6Vb5vXzQLlHwwsgy3qDWIoAn8dPwik1ZtQ5Qbxhs7DvPZ7l8QVYYS0vc1zRhWA7a/U9elaDDJH/KKxzB5GPFCcGnzuqLzahubDK1IAqwNFYowyTo0si4NkKMzMPP5DQjRCOE3FNF4KsJvMKJaN0SNLrSJHk5KllTakFhBpiD/f3w42mluftTAiPTaaLyV6EGLNGXZoBE4BYzQCLdlWtCgbU/llcnftRNjJQ/Sgj1JauRNvr8nBf5eGl8k0Is8X0l29SYnqAEFft4UBviQHeCjRMzygutytpkn+hrVyWvXTXmQdNLpkWcj1SrBiA2TSYbBbniRtPvW6tLIkJUEJXLp9ezbiPqTGbXkI74+chERNIeGjy/kTHIu1TssoEz7VXh0WEnlyEVUVGCkmAARe2rvzcOz5O7bJ6uS27fX7szex9cs8d+3JR2MSNVNt8h1iMZj2fTuMV7ecRjhPpJ+z33AVwfOIrwmUvnhVeTpJCiQXIxbQwO3t5+UI7vhnNCAgSScykJuOZvWkV5aUBAx8KaQyg3wID9rlXVwFDCRGTSKHKEutOaVdxDlWyC8ByPCRuAQ2h8R0B9Rqwfl3Jsxd83rt4Rorl1ba+c1jKJtNfBz+zu45VWLvHXt3nd9ewQnt2jlEZFKsw4hAxGB0nPTmE92f48pM4ljLRuT6+hAVg1XUmtWIL2mO/G1PThTvwonvatxzrsOiQ3rctWrOie8a/FLvapcrluZxBrOpNaqSEG16uiquXJeCBLXLlH3JMmqebI+j8GG2ST5ODdsprVWEnrNqnqvVMuXS6chqxG+zzH/7W9ZtmUnImwFHYav5NiVdFxbPU+5iPVU7riSah0WUiFqlV30TDOb/fFesMCfTVL3QhvtbfjnLGDv7/9uy5IORmSYRupLiAfnMy5mB7t+PI3wnIV35+WcvJJE+abTKN0khjPnkxTnQAKKO1lkVodRckyUJLsRo1VPoQIVYDj0C3GetcgLCiRHl6dSVK1mK4U2qSMiCalWzBaZvmLBbNNq0phlto5Z+ifg9Q/2UNGjJaJ2DxzDhuMQ+BQOUr01cDDCoRmtoiZz4pJWQ8dm1mM169BZZcqxOqW6nuJVyPbcoafHIjN3rBpRtl3ncQiPx3AIGaypxkp5+3ItWLLqTdW+i3NHcSa6A+kTBlMwfQqFMdOwrVyC6dV1ZL3zKnmffYTh+GGOBPuTPW0CplOHyfn6U7K2vU3mmqVkznmW/AkzuDRxBFd6deNwUDCnj53UUnkLCzFaLCipk1u6QuIPKX0v35dBpQK9icbtpIruXD4/dJmxz7+LCF/CoJg3+PSnk5RuNIdKEatx77gct4glOEetsBNY72Rw24+5+xawT0x338b34hXs/f7HvVLSwYhr1ErcIuciHtpEu4HrOHgmDtFkIZXDYyT7gQe6Po8ImM6b244oI936W/yPLGchH6MtA70V9GYLFoNR/bqX4mFyqrzarB3xLoLMj7dpXIgCKJRcD2MBepNNhWluPrf0lsiKwVr2Dezasx/n2h0Q9fsiGg3FIXAgjkEDEaHDEW6dqFLvITa+9anWZosBvdmE1Syr9kqCq/S6SEePVctGuflCt9mXhxpt0qcDX+07jCgVjAgbhqOqszNYaaNMmLvhxieTr6p9qY6SDBwxwztf/8jeoxoBVQZQpA0yv/4W05V4ZG7QlTfeImfTeyqMJQNB0g8loZfc5udkU5Ccis1iQIcZgwSEkhLyOzAixc5MWCSCo5Cfjl2hUuhUXFouICVbT/ToLYjgWUxaf5Dnt+xDNHpO8UdcImNxlWEPldZrD9Pc6Ej73v/EAv9tQvqfNMh+0X/dAv9tDMj37selpIMR5RmJXIBTu03Ui57J6cR86nRdhpPnBK5m5TJk4lZE3QmMWvyV6v47BSMyu8VmNmKyWjAW8SxOnzxflPILcXMXkycECVNGqolZ6YnJkxuM6LGo8M3N403yI6ReicGiA8klAXZ/fxiXGq0QXoMQoWMQASMRIYNxaDQI4dUTUa4lA2euQ6fcCBaVmiulyixKA8WESXIrbr7If93XCKHVQ4pq7jQaQbmApxH+/SnXsCuTX9jAoIlLafX4OIKjxlGr9XCcQwZTpmFvhIs/3o2jOH9VepdsClBJHKSxOiD5q684JwRxzRtjkqBND/I2ZYayyayBElUg0GTAZrGolF5pgVuwiCZMJ1NtJMNVZvts/wFRbwqeT7xIuslIg24rEH5T2fhtGkNiPkA0m4t7tKxDowEQBUgkKCkuq53A+l9HbLF70z4BFbsuu6sNto+H35r3fgAjHh2XUrHdi1RsN50fT+cTMXEjosEUlry5l3mb9iPqjKX9QJlRc+eTt+R5WFXarcpB4evjybiGTUdfKLNRoCA+gXwhuOzjhiH9CmnSAyBnV5MFmbVzjdtxrTfklSWwuUZqtZjkeeG9HfsRpVogfAYgQqSkvPSS9EWEjdHWsg8R8fgokrM0FVeD1YDVJuGOCYMEBtcucAfb17fvRZR9ANFsMg7B/SgXKAv9jUME9EFU64CoEoWo2xdRV2qj9EN4DkSUCqHz01Mo0BwrWE25YMpS4RQZIZKAJKP/0xiEIPOT11U2jvTCGGS4RdblUcJuFvJsWshKeXMkSLktGJHHF4JBA07PvbQLUXsGj05+gx9PxyHaLMA5aDrnCgro0m8zpVq/UHyAx+0Akh2M3MGoLSaH2CeeYtJR/3Iz7ePihsFLOhhxjlqGe4c1VI5YgmPrBWzdcYhh6z9B+M6g94QtJFy9QtnAsdRt9QIXEmXQ4SZeatG+9C5cX29xNfxwKZuHey/FqeZwRLUYFr+6+/o5Dvd9nBQhSN2wRoUk5A96yeUwyXQaqZVxoxvUnkn5VTQtDavJiFmFI2D1pncRTmGI4OGI4CE4BPZTHhIRMlwL27i2oVnbflxJy9HOY9Yroqfis/zevXDLVW889Q1thnCKRri1R7i0RHj2084fMhQh11DpmRmLaDwQ0WgIomIrBk6ap+5NnkURYCVxpSiXWeITw+XjxDk7kdywAbqUJIVOpGS+xWzEZpOeECPI51YZgkFbJYKSrpFbDKQAm82kzpGv09O4TyzCczYr3z/Ap3t/QgTPp96DqzmVnIL7A4twbifTemOLLyCxg5Ebg7M479knnOLce3e/7fbxodm4pIMRl4hluEaup2b7uYjWy5mx7FPWf/6zEkEL7bxc/QL3jJyN8JrGe18dVUZRZM6imVFKwFusVkw26/Wwgfy1f+RkPK37rKFSzbE07LqMdw5dZNrS/+AdPpt8vZaue2XfXqU3crlyTXIPfKm8BHprAXIyxiS9FvKcst6K1JsHSWJVngwJVOTkLLkoRSms4yYtRLhGIEJHKc+IY1A/RNAATQNE8kiqdyG81eNcTpI+GFlfxoxJ1pu51QWjdfvvHs/FXWHY7PWMWfQFkxdsYc2bXxDSfQXCqxsiWF5nEI7BfSkb+CSl/QcjSrdjzKSlRXjBiE1foAiwhVjRm60Yc7IVHyRz4BgyhCBj3kLtmiYNMF1rQCE2Cmx5YLAqHRaD1GKRBQMNUkvkt2hE2kZXpD1yNSUFETwOEbiY0/HJzF79IaL+DHpO3cfHX55E+E7VeCK38zgUl9fsYOTaMCm+2/820RTfu7K3/G5Y4H4fKyUZjEiOgHuHpZTvspq6HRZQ/sHFdBizg4SLx3F7aBmi+Uz2Hb3Ak5M3IKrGsChWEkItSnZc/gDHUIDZnIelSDXVQiFb95yk7ZOLEXWG0GHU2/zn48Os/WA3od3WcflMKm6Bz7Jx+141VOXEejmyHelCkD5rKGmn4jEa08kyFaqibzJcY5bVgCWx1STVT38bVJE4wijDGJKSajLTst0gRNXOOITKLJdBiODBiBC5HajSgIVHZ0JaP0lcSqa6vs6gRwKrv7P8ePQ0VXyfQvgORYRLzor0kgxChAxDOD/K0GnrVbsk7NIVJCpQl/rBBjI+eJ2ci/GkPN0dXWom56tUJq2KO7kXLyoiq3RrXEovYPJznzE7dptygZgMmehtEozJ7CSt3o9OqYz8FozIZ1IaXy5v7PpRhdpqPfQ2SUlJhPXejHAbzuEjF1mw/luE3yTcOsksmmLEEbkVJNnByN8ZuvfOZ+73yeXe6Yni05L7ecyUZDCiiIqRsTh3XEGF6EVUbrsaj0fmc/pyKvV7SCG0Gfzno/18dfAMwnM6VdrNJyNPUyC9keIrp0Azy9/5huAOMYi6w5kZu51jZ84xb+NbeD+8kqodpuPZOJYeYz9ixWt7eaDrQvSyAjCQvWs7VyuV4Ux4VXI7PI1FZ1W8CbO1UGb2KleI1SYZHnpM1wMeN747BqsFnVHztJxLzMCpZgSi7pOIsCEaGFHAZLDmIQl/CuHWkyYP9ScpL1WFgm5Sn79x0tvtybbY5HWMHDmbiEut7oia0YjQIYiQIYjQEYjw0YjyrRgWE3udi5KydDFpc2cor0/ytk2ktnwEa76OFP8AzvfvyeXSgsKh0zR1V+DzL69S0Xs0we2W8cZrX6iWmE2FmGSWjPQVWaQnCgXStMo/NzVWekXMGjml7fCXED7jGTfnM1Iy8hGNJiHqP0tcQjqeEYtwai2L4sXiFmkHIzdZ0L77b1ngfp5U/i0bl9Tr3K9jp6SDEeUd6RhL2U5LqNJhNSJ4Eh9+eZ6xqz5FeE+n67j/kJSeg3goBlFjIqfPJ6ohfuFKEgvf2snKj/ZTvdkYPLwn8NTi3Vy4nELvya/RL2YP4+aup/HT69Xx2/ZfpHLgGN76+hCixRzOJqSrxFXFm3ikNwlCkLVwMRcOfkVq/+lq8pYpr/lSbVRmvdgkz0PLorn5O6ZCN1YzNqtWPG/3d8cQjq00IbRrQER5LAYgAocjGvVHVO5I16fmamElmxmz5GQo5HPzmX+7r0WDjCTnZhH0QF9EtUGIsAE4hPTVuCqhoxDOjeg9fuV1KkeKhC4f7yTB2YOcL/ch6xb/3KUJid99S9z2dzUCbz1n8rI0Ls75C1co5TqEiS98xvYLh/GMfIFPPjiOHpmFU6Que61ZphzFKzFfk8+XyE55eaxczTJS4ZHnEA0ms2vPUTZ+cAxRdQi9Rr/PhUtJiLrjqNBpPa4dlhZfvoj0ktg9I9dGQ/Ha3q+TSfHqpXu7tffjGCrpYESmdbpKV730kDy2BBHyHAOffZ/jV+IRtUfh1HIxCSlZdIrZjKgzmc4TNHAhR2q7IbGICn1pP/Etdv18gUWLtyKq9SA8agGeD8xg+b6TeITP4XxqKvHpBVQNnMa6HV/i3GIO312UE7BeeUEyT53jols54kNakNAqhNSJMWSmpqC/fFF5DKQ/QnkwroVpbk7JtcowjlaPRfNcwPDJqxDunRASjEh1VBmmkd4LBUaeQoSMQIh2TFryH/WFu1YT5/ffPjnD/3Z5bMAziEqttUydkAEqq0aEjUIW8IvoOQYp9iYr4+Qf/IGUD7YgGSBXJ4/l165PYcvKITPyIQoOHSSneWeuynTe1auuc22aPjCFiKHL2P/jMcrVHEXU4ytY+OLbqgEHzySwYt12Vqzaxqvbv5dl+9TrEkTJ9quliP+y+J1fEY1nUKfVC6RnGgl9bB2i8ji+2HuKFzbsQARPpUrUauUVkcXxik0qrz1Mo/VzcX68HyeR4txf93Lb77exdD+AEeeolVRpt5yyXedR7tHVOARO4mJCLvWjFiDqxfDBrp9495sjiIBnKdtkFin5Ch5wKTkHUXscew4n0KrdLJzDXuCtL44pfsTYqW8zee5rrH31R6qExFC3wSTa9lrE2/tO4xQwhbj0LDXMbaZ8JRGfsuxFUssKMssKcvOzOTplCidmzFTHyCReqbehsIgJDBbpCbFqIQuLDrNJT67kj5hkmTo9WRao0XgwwvMpLYwixdCCpRejOyJgHCJ4DML/MUTZB9n2+ffqGhaLWcnPyxCILI4jia1mmcpslRL4Gldl1LhZCKcOiEajEOGP4+QvRdaGIap0IuChIeSrlFqdUlVJ692NhLHPYErIIFGUJ/+bPaR+9D4X+vUnZfFc4ioI4iPbqnCLjEUdOJ1BpXpT2fNLHFVbTOLltw9e/zcwM/YrStfuQ9kH5lPnsVWI+kNo3HkW51I1sqtZ8mmkPYr4L+3GrUf4Taf/6K2cTUnEofY4KrdcxuXkXDxbvYBDxDyqPboclw4rqSTLAdw6yReX53bPyPUxUix27rfJo1h0SjFv5P00pko6GJFhGpeI5bh3WIFz1GLcO69B1BrCq1+f5X2pq1F1AoEDXiQuLZsaHdYgQmcyZ8Pn10dw32e20a7beJZ9cZGgVvOuv/7Z18ep32Y5cSmFLFn3KzGvfc3OE6cp12gmw6a+qvJSLVYDJrMZIzZ0ednEP9QCQxnBiUWLSe3fh8Kv95P+zV7OzBiqwjYKAhkh1ZiFwViAJc+CyVaI1WCj0GpDLydkqSYG7Pz8G0SFhxBBoyjt3weHQJl+K4mt0ksyEBE+FOH5NLV92pOYLUGMBZ3NhslswaY3qW2ezBAyauGRueveRFR4VImGycwZEfYEyiNSox/uAZHkFmo6JvLa+otnOVzKgbxDR0k+tItzPbti1JnQXdUT9+YmsqsIktw9yD1yUt2X/MzWPadVDZkjv8Yj6o7lTHIGRkwMHbMWx5pTWbV1P29+dYxVH3zP19+epk3n1Xg+/Dy5ellMEHQyQwc4cOYq5R9Zgqg7kb2/XmbInLcQtWMYPuMDDp09S7nwWBo8vIiKEWtxjpBeEbtnRA0Y+8PdtcD9NGncXUvaz36rBe6XsVXSwYj8VSzDNB4dY3HptJgKkS/i+OACfDrO5WRSEqLpOIRXDMcydYydvgURuoAmfdahK1JBPXQsAVFrILsOnMTn0fF0H7eNY0kFDJryLo0eW8uotz+gRoshPNhjG6LeEDo+tZCsbM0ror+eHFOgvCPZx06RUKYSGTXKkVDdhcLEc6S89DLZw/opb8u519eSfyVOyX1JyCHBicVcSIEsrGc1gNmg0n1lsTi59B4biyjdEQeZ4RIiU31ltktRpo0M4UiSq3M0j3Ubq46XvhAZ8pAqp1I2Xiq1yuWzb35GOLdGNOyPCBqBCO2jcU+8h+NaswUnLklOh8RXmtiYbOOlF2aATofJXIisryvfKTxxhKvedbkkBDmvvKu4JQaFnczsOXyVMtVG8uX3Zwh+/Dn8W02mfvtZVA2PYfevV3hy0kpEzbnUbzqMqu2W8c0PF/DxHsO7X/ygLq2XHhxgyYYvEQ1m4/dwjJLU9+qwHOEzkff2HWbEwjdxbPY8rh3XU7Hz/OJVh+Z23hq7Z0T1ebF4+KMJo1g03t7Ie94C98P4uh/AiIsEIxFLce60iHJRa3GO3khZ3wkcOJFI7/FrEO6LGPj8R1w6n0TZBi8gHpzCe9+dKhqfFp7s9R6+LRfwWdwRajRYhJPHaMoETOPTU5dpGrGc7pPXsXzjfrZ99iM5Kg5iQqcYodm8tfcou386j1VN2ZC7cz+JQpDrIMjfv4vLO7eTMnWsYkicq1UZ3ac7VabKmVc3U5CvU5O8wjQ2K/k2MzJp16D8DSaysgup7dsV4fU0IlyCEekVkWBErgMQsuJv8BSEYzg7vtij7sdsLlCeGum1kS6H9Dw9NX0eR9SWRNURiJA+iLC+iJABlHJvyidfaCJuUm3WZpUUVSk4Lxc9BotV1eZRfpeTKRwP8OKKEOQ9M1MBKaNilEgQJRGJjbD2U/BpupZDx64wY8mHvPjiHrZ+c4SgppNwD5/K2Yv5ZOkzEc2WMWnpLnoMeofRqz5WV5MJztm5edRosxBR9Tl2f/sT7+8+gWgwldpRC7mcmoN3j3XUfGA2paK3UKnLLFw7rCjeWiN2MKL6/p5/uB8minu+E+6DBpb0cXZfgJHIFSrNs1LkPFwiVuHW8SVEy+d5evS7fH7sAsJzJhVbzOJsVi6tesSqGjCRUz5WomHy53026dRpNoVmT7/G4bMX2PLdDxy+FE/EkFgq1o9FrxwVRXro5KFX0ELLjHn0yaV4+EvPhHyupfue3/wSv5QSpNTyJnftXOKbPIwpPY/TEWGk7N2uJvuLwgnj1t1kWws5u/hFjCnZCojkZWZgykhX4EZ+/ZZt2oYo8yAifLAmgiYzaxQYkTyS/oiQkQifwZSt3YFCndZGsxIT08I9rbqOR1SKxEEeFyLl3yWAGY4oFcbkZS+rb7jVKNXYpLKqBkRkBnCByUyhfF1K32emc6FZOGlS3Kx7JAX6fE3PHTOb39vHmSOaZyVNb6JmQAwO3lMZ/twOekzfhnAfR1jXueQarruRcAxfwdRVO+nUey2zN+1Q15APy9/Zj3AeTrnI1aRl5dD0idUqvXfK+p189M1ZRKM5VOvwAk7RG3CLWKD6vNjVo7nZQ2IHI9f7/p7dKekTxD1r+Pu0YSV5vJV8MLJcuesryYqtkXOo3HEZHu1X49puAc4PxHImOZ+WTy9B1J7G4lUfc/L8JUT1caos/dGTmpqpHPYX0vJ5sEMswq8HnpFrFdfEq+l0Pj55SMmWWwtTybLqVWkVeXxBoYGHn3qVKn7jeO2bI4yb/wZXz6WTp9Q04PLcmWQLB84LQcrsGeqblRkzjMx5y5RXQWaimD/dQYEpiZ+kpPyOz9QxSSPGca5HtAZrjJq4WasuYxFVumpk0xBZw0aGazRRtNL+PRGNJiJcH2PUrJXqHBZZoQ5YvHYLosKDiLDRlA7siQjrpcm8O3WlS/8F6hiJKqwmCzaTTd2nlKzXW3WkFKnF5ly9QnbjcM6UEmQ93I68+Gy0IBW8s+MkokYvCqROisQa5gIyrWaGPreFsHYv0KLTMuZvPCj5tHx/9BKf7j1O5DNrqOvfm4/2XaaS/wR+OnVea7M5nzKNYhD1Y3j5w6/58nA8osZQRItYzsZn0mXC+5RpOgvn6FU4Ry6ncrtVOBdnvogEJXYwUjQG79HNH00M8nX7YrfA3bLAH427u3W9f+u8JR+MFFVtjYgtKie/HJdIme67FBH+Ags3f8lX351D+E+kfOCzZGQW0nPSGkS1Z2k/cIvqBik8Jhc5H+84eJSX3v2erd+cJy1LqYgoVdBCyWkokjo/k5JLo1bPUveB5Ry+fJkOT76McH6c5Zt3qRCJPJeUgo+b9Qy5QnDFrz5J777OxT5tyHpxlfKMJMQMIXXUaMW7SPMJJD92DhmyDVs+4XQlQVp6PEVK8fx0/hyiXAeE9wgVYnEK6ENpX7k/GIfwPirkInz74+HdjbgUeRaIi0uiVKWWCL++OAYNwSmgNw6S/Oo5EP9GT5GRo+mamG06LBYrFkn+MNnQmawUWtJUG/UHjnC2hR/JQnCp/eMYkpKKQjgwa8P7bHxzD24BU/nxfLy6ptlwQ0skx2xEL1OIipbF63YiynWhWe+V7Dp0jNZdVhDVe8W1t5m+bAPCZxZ1Om8gPTuDwEGbEfUX8GTMDo6npiMCZ+HcfokKy7iqvo7Ftaharz2b5roZ7Tv/lAX+aEKwA5F/ysL28/yRBUrq2LtvwIgEIJLMqlbNW1L24fnUaP8iCck5hPVYj6g/ibGLPuHQmXhE+AxErRG89+2vakiotNvfyHJI74KOfAsUypRTi0YGPXjiCrX8Z9Ow9wq+/+U4fiEx+LZ/hrg8HQazGbNFj9VSqMiXcirOWLSS+FKC1KplMPg1IScjXQvorF/I1YceVjokhm++4aqrM1eSEsg1mUnu8AjZXXqp4wqLpv/hY1cjykciwmUhvSE4SRn3MCkTL4vqyXUEwqUjS196R91PQPOeCA+psDoUEdRXy8YJHIlwbcdn3x5SxxhMsr6NJNHq0VmzyLfqFYdVBmcSP3ifuHququ7M2T5d0eXnXAcik9a8hijdmXVbjhPZ5UXGLHhLnc9GOmbFH1FPf/OQWpjFkh1fs/SDnwh6ZALVWs7iWJJko1g5EZ+De+ulOATNYMa6r9nz8yVEs1EI/6V8d/QyXae+iwifjWunlcqbIFVXiz0QsXtGfjM+7rknfzQh3HMNtTeoRFqgJI6/+wOM3CoJrgETt8iliKAYNmz/mW0fH0I0eYFSgZO5mmlg0KzNiJAJ+D+8QvEjpBaH1SxF2yV9wgL6TPRWPflSiEuvhUve+fY8ou4o+oxZy+6vfkbUHkxIt3XXQzcyC8ZqMWKymDBajOiMktYKqVvfJM1JkOBcirN9+pFacJXkBx4gPWa2Ai25p4+r6r+WkycUG6Xw4Bccq1waoz4TWchPYqRjCYmIOp0QDaV8+2gcAqVGiAzXDMRBcUeGIer2JvLp2czd+CnCrQ2i8TOIoME4BvVFNJqAKN2Wucs2qe+u1aJDZzKCwaQAl7GoaF0aeWTOX8SJsoJ4yRGZMFaLwBR9421mDZQ17vca3Qe9yTOv7aFeiyUKVGDTY5DupdsseXkGPFssQjhPpvfw1VxOl/quUpofxr2wHdF4M84tx5GRnUnbUdsQDafTaVgsZxJSKOczA+eo5VTqKIsiLi++uiI380XsYOQ2o+QeeakkTgT3iGntzfgLFihp4/D+BCOxuB3l9tgAACAASURBVESuoHLHtZTuOJ06LdeSZcin8ZOyXk0Mg2LeI0tfgEubWITXUJatkRklNmzGbIxWq5oiC2xWcqWLoCgF+JUPv0VU6sfYee+xce8JnFwm8eTwD9B8IPI4WXDFptWLkfOxSVa8MaNX5eYg57sDpPrUpFAIkkO9SOgbTe6lM2pkpu77hp8lh+TKFfU854MPySxfFoOqZyOdMhqRdMTUxYiq3RFhz+AQ0gsRKMmsQ1W1XYdAmWEzFke/XojqEVoKb9g4nIIGaIX33DvSc5DGXZH1X2QYyWAzkmu7UWU368djxLVpQYaD4GrFMuS+tEkVv7sWbHnj/d0KGMmbPHj0IqL2EHYcvUQ1rxg+P3FJcU6MRbL2N3/lpABbNvn8fCKZ/SdTi97SQM2BIwmIsHmIeoNZ/sWv7P3hGCJsNuXqzeScPo3e/Tbh1CQG1+iVKvxWbEMytwIROxi5eYjcO/slbQK4dyxrb8nfsUBJGo/3JxhZQaWo5Srdt2rECkT4LKav/IQ3dx9ENJxJqdbPcvDoBWat+AoR8iwibDLHL8hf6iasBq3Oi1nRTLVf7kveOYgo15VFm77gzV0/Iyr0YPRSrQIw5nysFqvCIrL4nqYiauNKfAbbtu8nKVenQjFyHOYlJJPy9DAyKjhxxsORxK5dKDh/GkNhAcnf70Ov1/J0dMd/Jan7AGwWnfKU5MrzY+HclXhca3RD+A7HIexxRLAUQhtJqaDelAqQqbujVIaNY2AfRKBM4x1OqcDeqvCec70nOZ+QoorlmaXXRsEvCZggLz2ehKmjSRYO5AnBTx3DKdjzo/rqGJTgPbSb9irCtTe7f76qQJZskU+zGby44WvqDFnImJit6niTTYZeFLTTvCVIm0CuJLnapIcpDZNF1ulRhxHeZzXCewrNuj9Pdl4+gV0XqxpCI+e/yc5vjiKCZuPWYRkuUctxud2EXpxfsxNYtUFwLz2WpH/+95Jd7W35exYoSePx/gQjcuKKxS1ClpiPpUz7F6kdMJecrAy693gLUW88D41bq+TZQ6JfRTQcT/O+LyFFwySqsFjySExNJzE7jzELtyE8BvLWlxeJ3fQlouIwNr62s2hgWbAYbaqeCwYLemshBWqWNXApO4/StTszbt0eriRpxflkCEhmoqR98DqXW4STKYmh5ZxIHj+KwkM/kWHVEoTlPC1Xi82qOBiS22EtqmY7YKzU4ehOmcZdKOM3ABE8+qZQTVH6b/AQHIIH4hjYHyGVW8u2YOuuA6rNBUp/RAuQFJw4Q+LC5STWr0aSECTULE/84nkYDNcqx5jJLSjktU/2Me6V7fSY8B4OgeNp0HEq7+48yOR122jdYwUx731B6+bPY9TnKQKvdBDJttuUnFshZqsNm6EQnRkMctVp3pj5G75G+E+llO8krlzJZt2mnYiaw6nWeimmAgPtOs9DtJ2DR8d1uEQt06r0FmfwcWvb7WDk7/2DvlufKkn/+O+Wjezn/fctUFLG5f0JRpZp6pztX6RCp7m4R7+MCHieyOFLOHE2HeEjU0hHs+rtX9j1w0lEwwWI8Mks3vTl9YH25t4DePgOwa3ZdD79+hRPztyKY8hMvjt4Uh0jfRY6iRiseZhksTtZG8ZixmzVtD5mLP+EhuGzePfQJUrX7s+kmYtkDV8kr0J+zJSdS+L6DZytXFoBgfRqZUl+rC2pGzaQrSW6qOOk50Lm+mggB3KychFObREhT+EoNUOCpDrrNe0Rme5bVFRPFsGTdWcqdOKpETdk7qXfIuWTvaT3G8TFRlVVsTupH3J+9rMYLpxUdWls0pVhspGdXUiHgWsRZUfRtOMcRq3/hDcOXGDjR7/QsMMyHOuNR/i/wUv7jyqbfndYy6qRacIyQcmkhOCkKqwNKfYulVisZultsvDdsfM4NR2JqDOX2cu/49sTFxENJyDqzuKtXT+x5J3diIbPUTlyJeU6LbkOLO1hmutD1L7zT1qgpPzD/ydtYj/XvWOBkjA+71swErWcyu3X4tJpLhWjFlEpYj2i5ii+OXaAHbuPImpPpZLPsyQYTMycvxXhNx7XJsv58WdN90KOwpGLP8LJpx+nzqUS0DSG+n1eKRqcOgwmI0abFYtNhmlMSN1Tq17CjDS+O5OBqPYM3xw8QfPHXiGgwwYup6So0EhWoYY0JGNCwhZTXj4XFi0kqYar4pMklhFcqe5MfLe+JO3ehTE9HZ1BU2pVWT3AvAVvICpEIhoPQQT30wCIEkIrUmeVhFZZf6Zuf8r7difXIKvnQGFcJkerunKquiDDUZBV1pWkHoPJjLuogIK6OVsGBVYLFszkFeSQnJnN5ZR0+s39iOqeY3GuNZomvVez87sjHDj6C+36vsisze/j++hinlu3TbOPqRCLRSMDK2k4qxmjJOKqEE4BKTk6fNrNR/hNpEm3WPWZB55cgAieSedhu0jMT8XtoSmUar8Gj3ZbKN9pLm4dl+MaeStRuZg/t3tGir5P98CmJPyzl2aU9SBkvNdo1FQZ7wHT2pvwD1ngdmP0Hzr1v3Ka+xOMrECJoEVI7shCKkYtxCV6JaU6rKd0wBxOxafTvv9SROgsQh58FWz5PNolFtEwhkYPr8ZokIBB4z48Nu5jqnoOZd+BX6nj+wxdBmjCYiqgotNRIOU5rGYMEmpoWmM07vIcvSa8Qszb+yjlMoJjcZpCqQxc7PnxNDMXvMrJK5rgmgQJcsk0weU1S7kSFU1KjVJKUl7qeyQ6OnC2fRsyX1yMwWZTXpJLV5MpVaUzwrsPIlhKu1/zjGhgxCGgH46BAxAV2/Dah5pMvEmXytchXhqBtlVzrk6JIefoZcUZkdePS85k8atfYSFXcVwKDYVYrVI3RIZUim4MWL/tB7r0XYZD1RGUD1/JknVfcvz0Ff7zyQFEuZG89tkv6n50pkRMkvNik3V3ssiTmiMWrRhf78mvIupNwbnZai7FxzM6difCbzLlQuey/+xVekx7G8ewRbh1noRj9DtUb79IcYDsnBFlWvvDP22B2/2Tl68Vt+WLL77g5nt5+eWXuVLEii9u92Jv7+8tcHPf3rz/+yPvzVfuVzDi2nE5LtEv4NJuLe4dV+IWuRD3TosQzRbR69lXOZOZS8U2zyIaTmPKoh2cv5KGR5MxCK/pRA5bV9SZ+eRb4aHuq6nTdBo7fzhHOZ8R9J2xmUydAcnM1NssGFRYQ/shMn/jXspV6cWuIxep4j+J57ZomTpmnfb+O/tOIURn1uw4ws6935FdUKik3zXqKhSYIf/wIS6+8TIJg/uT7FefhFKCc0KQ/e5/iiASjJ20ClGpmxI+u17JV4ZoQgfjGDwYUb073fvMvD4oU7Zu48L4cWR99QPGzPwieq7kuUgqq4kr6XmUajSbdk+sx2YsEkQzaUlCFquVLLMZnarLo53y2MVCYl/7Bu+2sylVZSwbt35P7Gs7ERWH8M7nN+r+SJeLwWbCbJHXgef/8wXCdzwiZAabP/qZz3+9ggh/DlF7Cus++IkDP19EBE+nTNRiqj+yFo+o56kQJSX+l+FWktJ6JX/E7hm5Pj7/Zzs3/1O/ef9/1qC/eeFbgci1e1m0SMaH7UtJ8Rhd69dbt8Whh+9XMCL/0btELcatwypV1det41LcIxZRKioGEbKAN/deYsOWrVqhOf+l7PvlOPsOn0Q0exZRdya95713vXtT8gwEP/IsrXovY/uBMzjVfQrvjnNIzJDBlmR0Zo2QeSI1k3JVp7Fg0z6GTNlCkw4zlCdDL6vwWnLINpnxfGgOk2ZsYePHBxCiDSu3yqq1NqxGA2aZHqzyZ7RLyyydnIIMsk58T97alVx9901Zl1e9ue+XXynv0QnhNxDHYFk0T3JHpGektyKtVqz+AGfiZIYQ6M0mDIU6RSTVXpFJNVYMBj1myTbFQl6enmZPbqV0yEDqNh3PV4cvqc9arAVYLLlY9BasBpsCXkbNd6LeN2HlpU8OIcqN4j/bD7Hu9b2Uq9mbaRt3svtoJpgMWGwauHn3yx9wDJ+A8FnMtCXvqnutHr0S0WAcPQf9h5NxqZRpFkP51nMp13URHo9spkbHGMpGr9CAiB2MKJvbH/5BC9z6T/3a83/wEnf9VHKivdbu223vegPu8QvcCtSKs8fodv0rXysOy30LRtQvTyl+JtNCNd2RSh1XUDliGaLtGqo0m0hcUgFdh69DeD1PqRYLuJCax8qX9yCC5uAQOJH5L2vpqrKfz2XkU8V3NG17vMD7P1zkeGKy8mgYdAYsyrsArfssoHm7VXx5+AyiSi9OHdV0Q/RFuu5zX/2KKmEj+fzXZITLABZu1EIo1z6/ftvnbP7ke86mapP37caXRWaoFNWcaxY1EVGtOw4hUgitaG0yAuHQnCkrNSVWiyTXKsbIjRBySloKFoMOvRRoM5tVgbxcnR7fdivY+VMS817ZRdnafZm3QcsaMptMWM1aRV/p35CrJKhq8icaYXf9B4cQjh145ZMDTNu0F+d6I/nmx3NF9Fv49pez/9feeYBJUeRtvI2cZDDgeQYUA5gTCCZOBXYXRO+887w7T8UzfSoSJCg55wzmHDErCp6nqKeHOaCYMYunBJGcNr7fUzO7sGLP7sxOz0xV92981p2trq76/39vTdVLTwfVaTlQ3n6jdMZfR6pEZWr5p2Hymg3RHscN1JfLl6rt36ep1uG9VL/jjJj5qFcwTvXypqiBuSpq6ytRwvA3R0b8hnj2ylye2CtTMueIJMrFlYWqcj5Bvt/aiFRwcvmIUUUOW/8Oklsm2oq0GdlqwapXMFG7tp+mnc4aJe+ooWqXf0MMeavTx2rb5peqef79+v7nlTqv50x5+/eRd9hQ3TDrnXJZyvTuwsV6eO678b+LN6isZL2WlxuDO55+XV6df+q9jxZp90MvU7fhcSNjDoqYp/l+/NMm7dh0gOa+9KaO/9sdanZy//hRkLKfVRy7F730wtufyqt7npoc2k2nde6nP/S/Q3f9921t2HJ6qcwdQmIPtZN0y4Nz5dU3t3y/VNsecqG2O+zSmAk64sQL4zGaO6yWlWr9xk36fPnPmjPvI7Vtf42m3/1U/GjMRqnQfMVkrgwqLNYxHSZo5rMLNGTMI/rPgq9Vv+ml+uuF02L3UTENlqlQJbGrYspUaC7fLTGXHptbu8XPfBl161x5tS/UoOmP64c1WwzV3G+Waa+W18hrOloH5U3SohVLdUG32+Q1v1x1Dx6sDUtXa8i0h+Ud3FuNC66X0al+3sRwGpDKYxIzEh+nufr/1pN5xd+5iqem/ZqTVSti9/td03Zd3y/MR4xc1BkzsuWKi3oFk9Wk3TjV7TRRO50xXV6z/vrbRfdp8c8L9bsjBsnba5DO7HK9lqxcoxPPuUdeiyHa8cDL9eBz5qsU8zJHAUpjC7y5fbq5isbcOWRd0UbteMIgXTfleXXse4P2atVHa1eZS3jNbVjjbuXAjgPU7txbNOPxV7X9Ludr2U8rYyePbiopVOwiHElvzP9adZt21w3PfqUrRj6j5gVjtMeBl2q3Zt1Vp/Uojbrd3GitTLEDMeYhu2Vl2qn5X+U1+7u2OewybbPfufJ2bKvX55dfEVRSEjv19JTzhmuH5p312Ksfacf6XfXUO+bk2VJtWl8Su+OsOS22qKxMbc+cqln/fk2NThirDudO0iufL9Nex4/UEcf31Qefl1+2W2yOzKwxD7SRiotjX9uY2+arbHnsC6RmR/bQa1/G7yxriH26aLlatBog74Ap+t2p3fXpd99p3LR58vYdIu+IUZr13Cu684nXYjc+q583Sjt0nq4G7cfFbvseqlu/VzYhFe8xI/GPVS7+7zeZmzJXX+arh7DllK4WYT5i5KLWmJEtZsQ836Rx+wlqbC75LZigumeOltf0ao247lE9OP9H1TLPb9n9cnW95hEtX79Mx50zVV6L7tpxvz66/8n4TcOMudhUWqg1ZZtUWP71y38/+FJ7NR+sp+d/oV32/Ydueemr2MeoMPZ9SpmmPfCKdmhygV6Y/50atOiuoTf8K7Z9U+GG2AmypcWrYyeRnnXNTB3Zrr8efeNTXXHtfZr0wDyNmz1fYx9+Q10G3KqRk++N3Ym1bKO0ofwZMd1H3i6vXlt5R1wtb+dOOucSc8TFWJZilcSeRlykL39aJ2/PizX/3S/kHTVM4+6Nfz20cdOi2IPyzOOBzbGN0/9xn267Z7aa/+Nh7VvQUyf9Y7See/Nb/eHS6dp+1z/r7tkVR4mKVVZWqNKyYnPPWpWYh+MVb9DqdZv01pfxK4dMDG98+oP2bn+TttnvMtU/ubfe/maZHn3iDXn79pN32EANvO55zX3/e3nN/qm6R/eV13qSvJNGyDt+tOqZr2by40/mDd1VNJiR2BjN6f/8JvOcBpRm5+aqGfPVw9Z5PfWUOQwazVfYjxhtrbX52+YXZmSLGWlQMFH1OkxR43aTY/et2On04fpNwThtd8AMzZrzgu59+n15zYfJO/hydR/ylFZsXKY2f3tAXtOBqn1oN42676WY1GbhLjJfUcTPJdXjb32vAw+5WnNe/1CN9xquZ95ZuHlIfLF0rbzdu2rS3W/q2sEP68C2wzY//K64cIPMrdnLin+K1d+37Wh1GjpLXa65Ra3yhqrgohmq16qnmrccouPPulU3PB+/4VrZhkJtjBkN6d0PF8qrf1LshmG1m7TXWws+irW10dy91ZxoWrxKRaWF+v2pgzTq3pd0Zr879JdLborVKSn6wfgQFZe39Y+L79fI6Y+qVbcHNenhZ3TRoHu1XZPLdct/F+jRxxbK2+lcXdTvJm0of17PxtJSlZWujB0hKioyX9uYr2biUJ59/TPteeoMeftepW1PGKa3vvhaz77wmbxjh8o7+Gqdfe2teu/r73Vavyc1/pEPlN/vCU24+zUddfYMXXnDPO148lDVjZ0vYq46mRB7GnPozhvhyMjmz0lW3/hN4rZP5FkFFKLOwnzEyLVxjBnZYkbMYmYMSX3zL27zkzdJjfInacf2Y1TviH568/0fNfbmp+TtM1zekd118bjZWrJuo045e4q8A4bHrgS5dkz5PzTM/TM2mK9givXdTyvk7XuFpt45Wx3OnaFdD+ult979Vj+sWKlTzrpRLdr31zOffa4dm1ym2e+YrzAKVVRqbpZeqrIiczpoodau3qh9mvbUoDnv6+h2Y/SfBYtjM8La9Wv18dc/q9MfR+uSa+ImoqxsnfmGJLbfhuJC/b5TL3m1ztCZ518T28fcj6TYHJUp3qhi83WKpIFDZ6vemUP16rz3tcexI7R0o7n1vQm/SObiYvP6v1736orRD+qqES/K2/sSHdZmsh574UP1uusFXdrvRj375seq1eJq7d92qr7+ccsD9kpK16ik+CeVFsXbufffb6j2cX20zQH9tXPLIXr3q8V6bu6H8g7tIW+/oTrp3Alaun6jDj1tpJqeMlC3zH5bHS+9R6vXrtHHX6/QXXNe1XZt+uo3+depUfsp2tV8tVZxNCFMvzEjsXGX9f/5TeJZD4IOs0Ig7EeMXBrLmJFfmpG4IdlSZp7uu1u7Mdr2lGFq2LK/vl2ySoMnzJG3dzd5+w3TVSMe1OK1K3RGF/OE32Hyjuivv3Z7pPwKleUqLI3frn3A6KfkNeqqR1/6UP/8v7tjR1O8Pa/Q7odcq2f/85EaNx+sMwaUXy5cXKhNZebk0WKVFsWvRrn16Q+1Q9Nemvvya/J2+4sGTpgZu6/J6tJCLV+/Vj8sWaKvl65XadkGlZWuix2VKSk/QjFy4r3yvD317Y/L46eZFpv7epTFjEZRcfyGZXfN/kreHmfr1Q8Xydv/Kr335f9ic0FZJTNy9chHlXfV7Zr5yFsacuvTevT5BTrxD5N0YMtxqnfMGB3a6Qr9d8FXKjjzOnl1LtY1Ix7Wop8XS2WbpPL7iEy8cY68fS+S12yaWuQP00fff6knH5wvr+kAeQcO0CnnTdPGTWXqfMZUec1Has8zbtKlk+bolCsf1oBb79St/3pPZw97VDucMlK/KZihhnnm6cvjZc734chIVqbv8Hfi0gQefjXIMB0CfmPZlNn4woxUvYiZS3/Nv8Ab5E3TDid01e6H9NGinzdo7PUvyjvgYnkHXq5zLn5aP/60UT2mzJTXrJe8fQbqhDNHaOGy+Ncrm2J3E5HO7j5HXoPL1G3UbZo1/0M9+8oSPfnuJzq0/dXa67Cp+nGjuQNpSexcDnOHkrLiUhWWm4WeYx+Td+wArVq9Wr1nvqMTrrpNtdsM0EGth2v/w8/TJ19/ExteZea+HSVFMgchSmP3CCnV3Ffe0qW9xpcPv00qLStRiTloY54JUxo3I9+s2KA9ml6kyc9+qBZ5g3X/E+/F6peWmq984kc0ht7yrHY5bay+XL5a7S++V7sc3FXjb3xda0pWa+GydTq6YLwaHHCFnnhxnq685jYNnvyMVq6KM1i3qUz/vPpBeftfKu+gEfrrJQ/pq5XrNPSmx7Xjfn3lHTZInXvdpuUlJTrNHGk6bJDqnH6daueNVe1TBminE6fLO66nvCOv0Q5th6h23hTVKZiuhu0nq0HehNgdWDEjNs4wjsXk0uTtGFrCzREBvzGdo1Cq7BYzUpUZMSdJjletjjeocYdRamIOm7cdoF0OGqLPvv1Kkx95RdseMVLe767RoX+6Xl8uXaHH586Xd0Q/ec2H6rdHX6YnX3irnH/8UtYbH35fDdoMUNPmA9X06L7arenF2q9gmD7/n3ler7kQpyT2+Igyc9JoibnexvwnnfqH0bps9IOaftuL2rdtD10zfY5um7NAo2e9rsG3P1V+8WyRygrLVFJkLq0tiV1yax5qF2vTuA9zua2K4k8fNl/TxJ4gbC67iYd42ImjlNd/pnoNeEiX9J0dLyzbpKLyr1dG3PuyGrebpvuef1a/adZLH3xvbgdfcTP49frsm+Vq0KKXRt70ZOxE2ngD0ttfLdGhnYbLO+ByeYePVp+Jz6tw42pdMOBBeQcOk3f41frrsDv189pNOvHcKfJaDdVOnaarfv4E7Zw3TDsVjNGup9yq7QuuV+P2k1S7/MRVcxfdBh2mqkGHybETjjEjFcT5XWMCrkzcNU6QHSNHwJUxjRmpyoyYZ9dMUpP2w1WnYLJ2LLhRu+dN1vYn9Ff9oyfqpXkf6ckX31Hj1v1il6Lu8fsR+uDLH7Tg60U6rMNIeXtMkHfEQP1l/CwtKjcb5oNgHjL3wvvf6bZ/fapn3/+8wgtoQ5F5AF1Z7P4cZSXrVFpmjEOhFi4plte0u15+e4GannG3TuoyTZeMf1in/eNWbXvQIA247pnYiaHFxWtiNzwrKS7TJhWppLhYhSXGlJg7vJqvZsqNQ6n5KmdT7F4gsQtdyk9QveDq2WqeN1Tj7p+vPfPHxU2L1quoKO5WJj70irZpM1xvvfWldj90gJZvMpcmb1DJRqmoeI1Wrd+kVavjz+wxeW4okoZe97S81r3k7T1I9Y8YoFtnLVBhYYmOvnSCvP0Gqk6TAep18xzNX7RSLf8wTt7hw/Sbjndo13ZDtdupU7Vr+0mqmz9JTU6bqFpnjNPO+aNVv2CSGrUfr8btx8duemZufNawYAJf00Rulg04Yb9J25TxgoDLBFwZ15iRqs2IuWy0fr5Z9MzD9SYo9q/xjhO1/UmTVe+Qnhp/37+14PMfdPBxV8trfq1qHd1f0+//r5atWq5+Ax+U1/Aq1T5kkPYsGK4ZT2+5v8Yvx3aZSoo3xW5uVlZaGnuCbezIRvwsVL320TfyfttHH32+TNvu01f/em/L5bFPPveB7iq/rLi0/BJcYx3KzH+xJ+HGbjgSe1/hetabe5cUlqrUnMthbmhWfhnwG2+/od0OuEy3PvWVdjmyl35euUql5uTZ8hu3Pfz0PG1z8EDNX/CDvEZX675/m/urFMWeUKxNG8ovlIl/7fPf975Ri9Onxy7R9fbor7Z/mqLvFi3XPS9+of3bDJTXoo92atZTL7z8kR556QPtdtI4eS2HqEHHKarXIX5Eyly+a25uVt/8zjfvzVUz5jb+8b/Nww7N3+anYUEI78LKCay//Jhk+i+/STvTfdI+BLJBwIWxjRmp2oxsOaHVLJBm8TPPQZmiep2Gyes4Qd5Bo3Tp4Omx5f/kvBHxS38PG6RTzp2pok1FuvOhV9Xk4EHyDukp79DL1fz8W7RkafwrmZg5KNyospLVKtR6FZYWxb45MUdH4sci4v8fd8fjatNphJ749/vaZZ+/6LWvV2hjoXEIW27hXla2JnaztWTG9cqyUpmbqRUXrtT7n5lzTUw/ccdR64Ahum/mbB196FDNmf9hrDlzwzPzmvXyh9rud0P15nsL5e1wnq4acKfMs/E2xZ7cG79sd/2mYl3W71Ft12K4vNbDtP3hl6vf8Htj+188Yqa8fa+Ud+xU7dzmGq1dtVbXP/yKvIO6qm7bcWrYcUr5lUxxzg0KzO/K3Mv5x656Mlc+VWgXQiNicsOMxMZNVv7nN1mbMl4QCAMBF8Y3ZqRiQUvhd/5E7VQwTXU6TdTu7UfL22uAzrnkFq0pXK2LRz6kbY4aLa/Zpdrt2Il68dVPtWjDzzqrx2PyDr1OXpNr5B14sXpOe1CfL46f3Bkb6yVlKi4qiT2szjwvpjh299b4p6DFX27V1Gn3adJ/PtFBp46Ud/BENfv9BF076BHdPusjTX/gDT310vzkPzLFP8duQX/9Y+bKnC56/t1vtHT9MvWdMFeNmg7T3W+8qcb7Xaq3vjU3WzNeJW56JtwxS16j/9Nniz7XgoXmahtzlmz8SMj69as1/YHX1OCkCfL2vlheiyvV5uwb9e63P+rNrxer4JzJ8pr0lXfkEHXsdoO+X7FGM25/Xt5eV8QeVBi/vXsIv2rZbJhSGF8V+2BGkh/T6db0m6zTbZP9IWATAdvHOGYk9UXC3Kl1t3YTtHu70dr+jBnaJe9+eQcM1mGnD9ULb32ipkDYlwAAIABJREFUDz/+Tnt3ulNesz7yDuyjv1x7p374uVhvffg/ndxlqrzfjZDXZJB2P3Gsrpj0pBYuNrdfj79KyspUVGyueInf/+P6mU/K2/My7XtkH1045Dnd8chrunnO6xpy4wM6r9/92qXgZm2z64X6ZOEPFU0k8btEP69ao3Ez/6Nzrr5LtY7sob1Oulb7nDRE9772pjr3/pf2PnWMSsrvL2KOfZhLgO997Fk9/lL8aEm8k2Jt2rRBt943T8d2HChvn6vk7d1Pu3cYpSdefFNrVq/ViOvmaJsjhsYMyg5Hddfjc3/Qh4sWq+PFt8vb72LtnDdSO3W8WfU7GCOCGfnFSbiYkSTGckBVbJ+oA0qTZiJMwPYxjhlJ3YyY80jM+SP18ybHbh/foOMg1T1zrHY4cbK2Pby/Rtw+T4uWrtbAEffFH6h30HA1PL6fpj/8khavXKcX3lioA0/uL2+/PvIO6q+6J1yrv107U29+8L3WFsVNiDnqYL6s+WzRD3pxwTL1vuMlNf3bDO135FXa64ih+u0Z4/W3ax/SqFtf1vPvmzu6Vlymay7DNV+rVP6pVFb+lcuoG2fL++3fNP72ubr/qZc0/bHPdeNTL6jV32doh3266c3Pvo19agvLSlVaXKSiitvJxs4ikX78bon63vhv/bbjMHkt+sfOAdmt5UDdNPNVrVyxXs+9tlDNTjdHca6Rt09Pdbzkbr3/7XK9OG+utms1XNsdc61qdbxJtfNv0m7txsoYvF8sxBVHB6L8GzOSvZXD9ok6eyToKawEbB/jmJHUzYhZNM0dP80Jlo1iJ7eOV738iWqUN0m12k2Sd0gfHXLWCM3/5Bu9+sHHatNhjLy9usnbf7B+12m4Hn/29djZHtMfmqsjTh8mb4+u8vbrJe/wQTry3Jt10wNv6t3vzA3Kfv0yVuXl+V/pqqn/0pnnztCe+56vtxcuij+kzzwpuLQodlTFnMxaaq6kMb/LysvKilUau3Jmg35ev0oXXn2fGje7Ut7+PeUd1FcND79Kf+kyXh99V/71Ucn62GXFFVFs2LBGD819R+0HzZTX5ip5B/aS16SHmrYZpZ5THtd6SS/OX6Z2/5wh7/Br5DUboj2O6a+77vmPVq8rUcHlt8s7eIRq/X6sGudPUN38abGTU83dbkP7fJl0zBRmpGLoZfa33yRtynhBIGwE/Ma6LTliRmpmRswTYxvkm5Mo4ydYNjTvzcPb2l+vevk3atvWQ7V9i8t11aCZ+nnFCl1/93+141GD5TUfFLuk9aj80brriXnm6TB6+vlPdMw5E+Q1u0Jei2tiRxrqHzdEHf5+kybf9bpWrI3fzyM+ZswRj4qjJ9Ky1Wu0odCYkGUqLDEnwW5UYdkGFZZW/Pzy701lG1RcuE4qiZ8H8tmPSzVn3gLN/u8CffrD0krDMn7SqjnCMmfefP2p14M6ut0oeQd0k7fPEHm7jdOBbW/R/Y+9q7UbftJLH32lgj9NlnegMSl95TXtrwsHPxPLfdS9z2vX40bKO2aY6p/eUw3yzT1Eyk9MrTgpOJ1FO6z7YkYqjccMvrV5gs5g2jQdQQI2j3XMSM3MiN9XCg3yJmrnDpNUL3+66hRcp1p5U+Ud1kd7HH2tZr8wXz+vW60uo55QvePHyDtsmLymfdWsTX898/ICLVuxVl9/t0SX9L9Te+aPkNdyuLyD+sjb6zLttO8lanHmGA25dY5e+fR7LV61Rus3muMQFYbB50MV22SukNlyU7MttYyZMTZoy9U4FdtWr1unzxav0X3Pf6I/9LxLdVuOlLeXOXrST94RI7TzqdOV1/VuvfbRJ1q2coU+XvQ/tf7TVHl7mhu9ddUOrQfphP+7R9/98LNe/exDHdfxann7jNV2+WNVu/NQNWp3U+xmZn78KNtqLGJGKoZlZn/bPEFnNnNajxoBm8c6ZmSrBSCtf2VPUKP84apfMEp1Tx+v2p0mqF7nydr25Bvk7X2V2l46Uf9+51N9suQHDbj+Be17+hB5e18ur/GV2uXUMRpzxzy99PESbdi4Xs+//Ia6TZytVl3ul3fsJHlNesr7zUXy9rxc2xw/UG0uuF5XjJilKXe8qAefeVfPvv2F3vzgCy38dqm+/XGFlixfr1Vri7RqXYlWrS/W6vUlWr66UD8sXaWvvl+jBZ8v1yvzP9eTr83X1CffVq8bX9Lpve7Wnp1Gytu7p7zaF8mrc5G8g3qpxZ9vVJdxT+ieZ17W+sKl+vSbFbrlobfV7KyJ8nY7T95u3VTnxN66eOwsvfLJD3r/y8XqOvIBefv1ltd6vH7baYT2bHuTGp96q2p3HKuGHQxzzhGp1nxhRjK/VPhNzqaMFwTCSMDm8Y4ZCc6MmJtz1eswTY3Kj5Ds0n5C7CFuDTqOUf2CqfKOmSDvyEFqf9nteuzF+Vq0ZLke/Nd7an76KHkNL5e3+9XyWo7UsV3uV7fpz+iNT77Ruo0r9Mani/Tocx/on4MfVoNTRsvb4wp5tS+T17CrvH2ulXdIf3nHDVKdtqP0u9Onab8zpqjF2dN01HnX6egLbtNRF96uo7vcocP+cbMO+vNU7X3mFO3cfpx2aDVa3iGD5e3dQ97OF8urd6m8xt20w3EjdGaPm3TH0/P1+vyPtWbDBn23eLFG3zlXnbrerTpth8jbp7e8ur1U65ihGn/70/ri+x9lbnT21/73qNbxQ+QdPlgN281Q44Jpsdu31+40Wg3yxqlhu+nlt243NyoLjn0o28KMZH458JucM98rPUAgdwRsHfOYkeAWxHrmGSl55tyR+Pkj5hySBh3MojtG9fLNLcunqn77ifJOGCfv2EHao91ATZv5khYvXa6PFn6jDudPV6MD+8k76GJ5h1wu76gR2q3tOJ3RY5oeeXOBvv1xlb77fpVWrVyrt97/QkOmzNZx59ysvU8crt8e2Vt1D+mlbc15J826yWt+deykVG//7vIOuFJes8vjD6nb/yJtu18P1T2ov5oc2kd7ntBfB5w7URePfUz/+e/HWrl6vb5Zsk6Llvysrz//ROePe1x7FYzUTkePlHeI+eqot3bYb5gObT9AT7w+T4uWrNC8V8w5L9dpu2MGyWszRHVPHaOGHaapoTmpt8PY2K30zfNk6ptLd83dVGN3TA2OeyiNiDFqmJHMT9i2TsyZz5weokrA1jGPGQl6UTRfP8S/gjB3CP3lXULj5Y3yJ6hWx+u0bbsp8g66QrVaXKih1z+lF9/9SstXrdSom17TOZfNUv2Th8k7YoC8/SfJ232gvD37qnnbsepx7X2a+ehLevyFz/TKx8u1eK25o2uRVqtUHyxbqrkfLdJj877U7XPe1fVPfqAbZn2om+d8qvtf+k5PLViiBd//oGLFH9y3omid3vlmmZ587Rs9MvsdDZt0hw4+a4y8I/rE7xuy3wh5LQbKa9lPbc8dpyvHzdGniz7Twi//p9vvfU17njom9rC7bU8eHz8ptWBKec7xu6fG71hr7lobNOcItIcZyfxyYevEnPnM6SGqBGwd85iRbCxqvzw/wjzyvnYH8/XFdNU//QbVajdRXvNe8g6+Vr//4yT1vmG2Plu6VN9896OefvF9XT3lER17/ihte0IveQf2lPe7nvJ26RY/t6NFX+1x3CC1Kpiusy+9Uef2uFfnD56lLuOf0yXXzVPvGc+q3w3PqtfUf+uq8bP1z0EP69zuD+rsi+9R2z9NU9MTRsVv3b7nAHm/7Stvl97y9uwl78jBanLGLepyzWN66Jn39fpn/9OytWt1x0P/0dnn36CdDr9W3n6DteNJo9XozN5qmD+q/PLcX+ZacdRiiynLBu+Q9IEZyfxyYevEnPnM6SGqBGwd85iR7C9c5im0O7cbo13bj4k9edYs2PU6Xqc6BWO148kDY6ak9iHXaK8/jFfX6/+t/7z3vRb+uFKf/W+lnl+wXFMeeFXnD3xQx/xtmn7bbpTqHTtQ3qHXyGtqfnrL28sYlh7ydu8hb+8r4ifJ/u5Keb/rLm+v7vHzTPYeIO+gftrpiP7a7fdDdNAfp+iP3e/V4Bue01PzvtZHPyzVl0sW672vftbEe+fomH+M0M5HDZDXfIq2aT1WO+WN1W/OGqV6HSdq19/frUbtpqlelO+gai5V3nwOTOX3aYwvzEhmlwtbJ+XMZk3rEJBsHPuYkTQWi82LT2ptxJ5EWzAhdolr/XxzHsU4Ncwbq4btZ6hu/o2q3XmKancer21OGhl/6u2hfbV96xFqfc6t6jX8Wd356Nt65rVP9d7CJfpy8RotXLZC73y9UI+//oFufuodjbnzBQ2Y/rh6j3tYV457UleOmaWuk2ar29R/qd8db2jqI6/q4Zfe0LyPP9XHS5fqi5/X6uPvluu5977R/S+8q6unvajWV96iuvl95R01VtseNlbbtJmsuh0mateOI9S4YIoad5ikxu3HqV7BOG3febzq5JtzY6J5Uqo5B8acD7P5icIV48J8NWV+8ibGzp+Jva8oi5XH71MT33/LQwA3mxrMSGaXDRsn5MxmTOsQiBOwcexjRlIzEpsXiooFpwa/zdc05g6udcwRkdiPubX8eDUsGB874bVRhylqZC5/zR+v+qdPVJ38yap12kh5Jw2W1/JaeccMkNdqqGqdPEb7dhivk/82XedceYsu7H+f/jn0cV0xZa6uveMtDXvgA415eIHGP/6hhs98R0PveUPdZzyji0fO0oWDHtPfe96lDhfcoIPPnKb6p46T12aUPHMS6lEDtc1xY/Sbk6dq11NGaFdzVVDetNhdZncqGKudOo9QvbwJamSulmlvnrRrrpQx8WefZa77NDdva2BO1m03Qw06GJM2WTt3GKd6+ZNVJ9/cc8ZoPCWuc/5k1f3Fz6TYCb0NO0ySuUdNww4T1aDAcCw3dZiRzC4dNk7Imc2Y1iEQJ2Dj2MeM5GABNf8qNgt37NB+/F/E5m6upix2R9eCynd3rRxfxcmh5qqdSarTfoJ2Om28dmg7TtudNE7eiaPjhqLVMHnHDpF3zGB5R/eTd8y18loOkHdMf3ltBso7flis3jYnj9X2J47WjqeOU+32E1Wvw4TYXWVjsXU0XzVMjC2iZsGtX36n2VicHSaX333WHA2IxxrPpXKs0XhvTGSjAnPvFGMspqhhh/FqlD9Kjc3vvHFqnDdWjTpMiD06oHHeBFX+2TlvnOrHrsAylztPVgNjSsyRsoqvuzAjmV06bJyQM5sxrUMgTsDGsY8ZcXvRjH3lE7s1/STVj31VYozKRNXPM4uaMRRT1CB/qhrmT1V9s1jG3pvn6ph/hW85tyH2L/NfHdmotL3ytgozVWn/XB+hyEn/+ZNVv4M5ejVSdQvGql6nyarTcarqnD5J9fOmqoG5nNs8JqDTZDU2BiN/uhrkTVX9/KlqUGC2m9/TVa/AmJFp8cvAjYb55UeZMCOZXTpsnJAzmzGtQyBOwMaxjxlx24xULMLmWTkV7+NmxPw9IfbVQcMO09Uwb5oaxH6mq0HsyEZ8wau8X8X+/E5uTDQw5/3kTVb9/Bmq22FK7Out2Ndch10jr5W5pf8QeS3N11795R3WM/712olj5ZkrkVqPiB/FOqqvvGN7absTBsUMZOwIiXnGkdETM5LZpcPGCTmzGdM6BOIE/Ma+KcvlCzOS3MLj5gJt/pVd8SC/it/lZRXnJVQ+4sH7zYYuGb3rGrNnzgE59QbVP2WEetz2jv45+l8aftdbumTay+p9x7vqfuOr6nPTKxr/0LsaeP/HOu7Cybpl3mp17jtTXSY8rz63vqmLxj+rM/rPVt1Thqlu+0mqVzBNDTuYE5snyjtpjK57Yn5SU0RuZ5KkQrSr0tYTsl3REQ0EMktg6/GPGQmzGbAht4pzECqudjFHREyZDbG5HYM5j8Z8Ndag/SQ1Pm2w/m/a8+p7y4sacuuL+nv/O3Te4AfUc9JT6j1+libf/aJG3vm6uk6ao/Ez39bBnXqrzw0vqMfU5/WHvg/qz0P/rbpth6lOh8mqa8yIOaEVM5K5ydi2iThzmdIyBPwJ2PYZ4MiI2wsipsIG/SapXt5keccNk2dOHj5miLw2o+UdP0peq+Hxk4mPHCjv6MHyWo+Sd9QgbfP7CfJaD5d33FB5J47SNieNip3kGjvPx5wDZMwiZsR/Eg2i1LaJOIicaAMCqRCw7TOAGbFhMSMG102VOU+nUcdKt//v6KepOZk4fm6POWHY7FPxtzEhFScRb75bLWYklak1tbq2TcSpRU9tCKRPwLbPQLVmZNZcefsPUcNOE+KXd3J4n684GAO+Y8AYC/NjTEYy5ip+onHckGwxJZVMDGYk/Qk3UQu2TcSJ4qQcApkiYNtnoDozcsOTxowMVqNO42VO2DOTbOzeEuZfcvzAgDFQaQxsOTKSzGejwrCYIyHxn8qfKfPkZ05gzdQ8bOXtsDOWLA1DwIeAbWbkvffe048//vjrSMviRTfNfkFe0yGq22GS6rYfo7rtJ6hu+3H8wIAxkOkx0G6svBNGasZj7/z68+lTwtU0PlASFdk2ESeKk3IIZIqAbZ8BY0a+++47rVy5UsuWLdNPP/2kpYuX6qeflmrd+tW67uGX5LXoozpn3a3d/nCHmvzxdjX5o/nNDwwYA5kbA3eqyR9uV638m3Xjkx8lNR1hRpLCFK9k20ScQuhUhUAgBGz7DKxYsUJr167VBRdcoGOPPVZnnnmm/nL239XhpI46sdVR+tejT+i19z7X06/O14ufrdTLX6zWy5+v4gcGjIGMj4GVmvvpCi1asTGpuQczkhSmeCXbJuIUQqcqBAIhYOtnoGvXrjr66KN17rnn6ooruum0vLN01KEHatO69wPJm0YgAIHMEsCMpMDX1ok4hRSoCoG0CNj4GVizZo169OihE088UV26dFHXHt112h876Zg2R6iouDitfNkZAhDIDgHMSAqcbZyIUwifqhBIm4CNnwHzNU337t10wgnHq8uFF6h7t+76c8eOat3ycBUWFaadMw1AAAKZJ4AZSYGxjRNxCuFTFQJpE7DxMxA3Iz11wvEnq8v5l6h7t57qfEYntWzVEjOStuI0AIHsEMCMpMDZxok4hfCpCoG0Cdj4GdhiRk5SlwuMGemhMzp3VquWrVRUVJR2zjQAAQhkngBmJAXGNk7EKYRPVQikTcDGz4CfGencubNaYkbS1psGIJAtApiRFEjbOBGnED5VIZA2ARs/A5iRtGWlAQjknABmJAUJbJyIUwifqhBIm4CNnwHMSNqy0gAEck4AM5KCBDZOxCmET1UIpE3Axs8AZiRtWWkAAjkngBlJUQIbJ+MUU6A6BGpEwNaxjxmpkZzsBAGrCGBGUpTD1gk5xTSoDoGUCdg69jEjKUvJDhCwjgBmJEVJbJ2QU0yD6hBImYCtYx8zkrKU7AAB6whgRlKUxNYJOcU0qA6BlAnYOvYxIylLyQ4QsI4AZiRFSWydkFNMg+oQSJmArWMfM5KylOwAAesIYEZSlMTWCTnFNKgOgZQJ2Dr2MSMpS8kOELCOAGakBpLYOinXIBV2gUBSBGwe85iRpCSkEgSsJoAZqYE8Nk/MNUiHXSBQLQGbxzxmpFr5qAAB6wlgRmogkc0Tcw3SYRcIVEvA5jGPGalWPipAwHoCmJEaSGTzxFyDdNgFAtUSsHnMY0aqlY8KELCeAGakBhL5TcymjBcEwkjA9vGOGQnjqCOnqBFgBa2h4n4TdA2bYjcIWE3A9rGOGbF6+BAcBJIigBlJCtOvK9k+Qf86YkogUDMCto91zEjNdGUvCNhEADNSQzVsn6BrmBa7QeBXBGwf65iRX0lGAQScI4AZSUMy2yfpNFJjVwjECPiNcVNm0wszYpMaxAKBmhGwa1apWQ4528tvos5ZMHQMgQwQcGGMY0YyIDxNQiDLBDAjaQB3YaJOIz12hYBcGOOYEQYqBNwngBlJQ0O/idqU8YJAGAi4Mr4xI2EYbeQQdQKsnGmOAL8JO80m2R0CVhBwZWxjRqwYLgQBgbQIYEbSwiffw9gcHUkTash291vUbR8jLsWMGQnZB4Z0IkkAMxKA7H4TdwDNBtqECzEGmrBFjbnI3qWYMSMWDXZCgUANCWBGagiu8m4uTNx+MZoyXpkn4Mc+872m14NLMWNG0tOavSFgAwFWowBU8Ju4bVvoXYgxACmsa8JF7q7FjBmxbtgTEARSJoAZSRmZ/w5+E7h/zdyV+sVoynhlhoCrvP3izgyhYFrFjATDkVYgkEsCrEQB0febwG1b6BPFaFucAUmS02ZcZZ0o7pzCrKZzzEg1gNgMAQcIYEYCFMlvIg+w+UCa8ouxoiyQDmgk4RVWhrPtr4qxUPm37TFjRmxXiPggUD0B+2fH6nOwpkblCbzye2sCLA+kcmxbv7ctVtfi2Zpn5b9tz6VyrJXf2x43ZsR2hYgPAtUTwIxUzyilGpUn8Yr3KTWQpcoVsSX6naUwQtVNIpam3IWXX/wuxI0ZcUElYoRA1QTcmCWrzsGqrX4Tuq2LUaJYK8qtAmtxMBW8Ev22OPTNobkcO2Zks4y8gYCzBDAjGZDOpYk9UayVyzOAKBRNVmaU6L0Libocu+GLGXFhlBEjBKomgBmpmk+Ntro2uSeKd+vyGsEI4U5bc0n0tyupux4/ZsSVkUacEEhMADOSmE1aW1yb4BPF61eeFhiHd/ZjkajMlTRdj99wxoy4MtqIEwKJCWBGErNJe4vfRJ92oxluwC/mqsoyHE7Om68qd79tOQ84xQD8cjBlLr0wIy6pRawQ8Cfg1qzjn4O1pS5P9Ilir6rcWiFSDKyqHBNtS7ELK6qHJRfMiBXDiSAgkBYBzEha+Krf2fUJP1H8yZRXT8eOGsnkkqiOHRmkHkWY8sGMpK4/e0DANgKYkSwoEoaJP1EOqZRnAXVSXaQSc6K6SXVkcaUw5YUZsXigERoEkiSAGUkSVDrVwjTxJ8ol3fJ0+Prtm248ifb368u1srDlhhlxbQQSLwR+TQAz8msmGSkJ2wJgICXKKWzlGRkQOWo0kTY5CieQbjEjgWCkEQjklABmJIv4w7gQVOBLlJur5RV5hel3Ii1czxEz4rqCxA8BCTOSxVGQaDEw5WF7VZWrjdvCxn/rfKpivnVd1/7GjLimGPFC4NcEwrcK/jpHq0rCvChUB7qq3LO5rbo4w7g9Ed8w5IoZCYOK5BB1ApiRHIyAMC8MNcWZiEk65TWNJWz7JWIYljwxI2FRkjyiTAAzkiP1w75A5Agr3W5FIArjDDOylej8CQEHCWBGcihaFBaKHOKNfNeJxpcpD9MLMxImNcklqgTCNSs5pmJUFgvHZAlFuFEaW5iRUAxZkog4AcxIjgdAlBaNHKOOTPdRG1OYkcgMbRINMQHMiAXiRm3xsAB5aEOI4ljCjIR2OJNYhAhgRiwRO4qLiCXoQxNGVMcQZiQ0Q5hEIkwAM2KR+FFdTCySwNlQojx2MCPODlsCh8BmApiRzSjseBPlRcUOBdyLIupjBjPi3pglYghsTQAzsjURC/6O+uJigQTOhMBYkTAjzgxXAoVAQgKYkYRocruhqkXGbOMVbQKMjy36Y0a2sOAdBFwlwKpmsXIsOBaLk8PQGBe/hI8Z+SUP/oKAiwQwI5arxsJjuUBZDo/x8GvgmJFfM6EEAq4RwIw4oBgLkAMiZSFExoE/ZMyIPxdKIeASAcyIQ2qxGDkkVoChonvVMDEjVfNhKwRcIIAZcUGlSjGyMFWCEYG36F29yJiR6hlRAwK2E8CM2K6QT3zVLVBmOy+3CaBx8vphRpJnRU0I2EqAVctWZaqJi8WqGkAOb0bb1MTDjKTGi9oQsJEAZsRGVVKIiYUrBViWV0XLmgmEGakZN/aCgE0EMCM2qVHDWJJZxEwdXvYSSEZDe6PPbWSYkdzyp3cIBEGAFSoIipa0wYJmiRAphIFmKcBKUBUzkgAMxRBwiABmxCGxkgk1mcXN1OGVWwLoFBx/zEhwLGkJArkiwKqUK/IZ7pfFLsOAa9g8utQQXBW7YUaqgMMmCDhCADPiiFA1CTPZhc/U45VZAmiROb6YkcyxpWUIZIsAq1C2SOewn1QWQoxJcELBPTiWVbWEGamKDtsg4AYBzIgbOgUSJYtjIBirbQTO1SIKtAJmJFCcNAaBnBDAjOQEe247ZbHMDH+4ZoZrda1iRqojxHYI2E8AM2K/RhmLMNXFs6J+xgJysOEKJqn8djBNq0PGjFgtD8FBICkCmJGkMIW7UioL6dZ1w03GP7utGST7t39rlKZLADOSLkH2h0DuCWBGcq+BVREku7D61bMqkQCD8cs12bIAw6CpBAQwIwnAUAwBhwhgRhwSK5uhJrvYVlUvm/EG2VdVOSW7Lch4aKtqApiRqvmwFQIuEMCMuKBSDmNMdvFNtl4OU/HtOtm4k6nn2wGFGSeAGck4YjqAQMYJYEYyjjhcHSSzKNe0TiZI1TSWZPfLRMy0mRoBzEhqvKgNARsJYEZsVMWRmJJdsMNWzxF5IhMmZiQyUpNoiAlgRkIsbjZTC5vh2DqfbLKkr9QIYEZS40VtCNhIADNioyohiWnrBd2Vv0OCPzJpYEYiIzWJhpgAZiTE4tqYmm2GxEZGxJQaAcxIaryoDQEbCWBGbFQlwjFlwqxEGGckUseMREJmkgw5AcxIyAUOW3p+ZiVsOZJPagQwI6nxojYEbCSAGbFRFWJKSAAzkhBNZDdgRiIrPYmHiABmJERiRiEVzEgUVE4tR8xIaryoDQEbCWBGbFSFmBISwIwkRBPZDZiRyEpP4iEigBkJkZhRSAUzEgWVU8sRM5IaL2pDwEYCmBEbVSGmhAQwIwnRRHYDZiSy0pN4iAhgRkIkZhRSwYxEQeXUcsSMpMaL2hCwkQBmxEZViCkhAcxIQjSR3YAZiaz0JB4iApiREIkZhVQwI1FQObUcMSOp8aI2BGwkgBmxURViSkgAM5IQTWQ3YEYiKz2Jh4gAZiREYkYhFczKa1lQAAAce0lEQVRIFFROLUfMSGq8qA0BGwlgRmxUhZgSEsCMJEQT2Q2YkchKT+IhIoAZCZGYUUgFMxIFlVPLETOSGi9qQ8BGApgRG1UhpoQEMCMJ0UR2A2YkstKTeIgIYEZCJGYUUsGMREHl1HLEjKTGi9oQsJEAZsRGVYgpIQHMSEI0kd2AGYms9CQeIgKYkRCJGYVUMCNRUDm1HDEjqfGiNgRsJIAZsVEVYkpIADOSEE1kN2BGIis9iYeIAGYkRGJGIRXMSBRUTi1HzEhqvKgNARsJYEZsVIWYEhLAjCREE9kNmJHISk/iISKAGQmRmFFIBTMSBZVTyxEzkhovakPARgKYERtVIaaEBDAjCdFEdgNmJLLSk3iICGBGQiRmFFLBjERB5V/muLXmv9wqYUa2JsLfEHCPAGbEPc0iHfHWC5P5m1d4CPjp61dWOWPMSGUavIeAmwSYyd3ULbJRV7cwRRaMg4n7aZlsWeV0MSOVafAeAm4SwIy4qVtko/ZbrCILw6HE/XRLp6xy6piRyjR4DwE3CWBG3NQtslH7LWCRhWFp4n4aBVm2ddqYka2J8DcE3COAGXFPs0hH7LeoRRqIBcn7aRJ0WVVpYkaqosM2CLhBADPihk5EWU7Ab5EDTvYI+PEPuizVbDAjqRKjPgTsI4AZsU8TIqqCgN/CV0V1NqVBwI910GVphLd5V8zIZhS8gYCzBDAjzkoXzcD9FsNokgg2az+uQZcFG/GW1jAjW1jwDgKuEsCMuKpcROP2WyAjiqLGafsxDLqsxsHVYEfMSA2gsQsELCMQKjPiN6Faxptw0iSAxqkB9OMVdFlqEQVfGzMSPFNahEC2CYTGjNR0gs02cPpLj4Cfzum1GK69/fgEXWYbMcyIbYoQDwRSJxB5M1LVRJ06TvbINAE/vTLdp63t+7EIuszW3CvHhRmpTIP3EHCTAGbE81TTCdxNyd2O2k8rtzNKLnq/vIMuSy4S+2phRuzThIggkCqB0JgRk3jQk3M67aUqBPWTI+CnSXJ7ulPLL8egy9yhUX2kmJHqGVEDArYTCJUZ8YMd9CQeVHt+sVJWPQE//tXvZW8Nv3yCLrM3+2Aiw4wEw5FWIJBLAqE3I1XBDXrSD6q9qmKO+jY/xq4w8Ys96DJXWAQZJ2YkSJq0BYHcEIi0GakOedALRVDtVRd3mLf7MbQxX784gy6zMe9cxIQZyQV1+oRAsAQwIzXkGfTCElR7NUzHmd38ONkQvF9cQZfZkKeNMWBGbFSFmCCQGgHMSGq8kq4d9EIUVHtJJ2BpRT8O2Q7VL4agy7Kdk8v9YUZcVo/YIRAngBnJwUgIeuEKqr0coEi5S79cU24khR38+gu6LIVwqOpDADPiA4UiCDhGADNioWBBL3ZBtWcDKr9cgorLr+2gy4KKlXa2EMCMbGHBOwi4SgAz4phyQS+OQbWXLYx+8dakb792gi6rSVzskzoBzEjqzNgDArYRwIzYpkia8QS9oAbVXpppbd7dL57NGxO88dsn6LIEXVOcBQKYkSxApgsIZJgAZiTDgG1qPugFOKj2UmHk1+fW+/vVCbps6z75O3cEMCO5Y0/PEAiKAGYkKJIhaCfoBTuo9iqjDarNVNqp3D/v7SOAGbFPEyKCQKoEMCOpEoto/VQWb5frRlRep9PGjDgtH8FDIEYAM8JACISAiwYkkMRpJOcEMCM5l4AAIJA2AcxI2ghpoDoCNhiV6mJku7sEMCPuakfkEKgggBmpIMHvnBEI2qzkLBE6zgkBzEhOsNMpBAIlgBkJFCeNBU0gGaMSdJ+05xYBzIhbehEtBPwIYEb8qFBmLQE/c2JtsASWFQKYkaxgphMIZJQAZiSjeGk8aAKYkaCJut8eZsR9DckAApgRxoBTBDAjTsmVlWAxI1nBTCcQyCgBzEhG8dJ40AQwI0ETdb89zIj7GpIBBDAjjAGnCGBGnJIrK8FiRrKCmU4gkFECmJGM4qXxoAlgRoIm6n57mBH3NSQDCGBGGANOEcCMOCVXVoLFjGQFM51AIKMEMCMZxUvjQRPAjARN1P32MCPua0gGEMCMMAacIoAZcUqurASLGckKZjqBQEYJYEYyipfGgyaAGQmaqPvtrV27Rt2799QJx5+kLhdcou7deqhz585q2bKVioqK3E+QDCAQAQKYkQiIHKYUMSNhUjOYXCrMyPFtys3IVT10xhmnq2XLlpiRYBDTCgQyTgAzknHEdBAkAcxIkDTD0daaNWvVtWt3tW59os477yJddeVV6tSpo4455lgVFhaGI0mygEDICWBGQi5w2NLDjIRN0fTzWbNmjXr17qO2bU/RpZdcod5X99Wf/nSWWrduo02bNqXfAS1AAAIZJ4AZyThiOgiSAGYkSJq0BQEIQMAOApgRO3QgiiQJYEaSBEU1CEAAAg4RwIw4JBahSpgRRgEEIACB8BHAjIRP01BnhBkJtbwkBwEIRJQAZiSiwruaNmbEVeWIGwIQgEBiApiRxGzYYiEBzIiFohASBCAAgTQJYEbSBMju2SWAGckub3qDAAQgkA0CmJFsUKaPwAhgRgJDSUMQgAAErCGAGbFGCgJJhgBmJBlK1IEABCDgFgHMiFt6RT5azEjkhwAAIACBEBLAjIRQ1DCnhBkJs7rkBgEIRJUAZiSqyjuaN2bEUeEIGwIQgEAVBDAjVcBhk30EMCP2aUJEEIAABNIlgBlJlyD7Z5UAZiSruOkMAhCAQFYIYEaygplOgiKAGQmKJO1AAAIQsIcAZsQeLYgkCQKYkSQgUQUCEICAYwQwI44JFvVwMSNRHwHkDwEIhJEAZiSMqoY4J8xIiMUlNQhAILIEMCORld7NxDEjbupG1BCAAASqIoAZqYoO26wjgBmxThICggAEIJA2AcxI2ghpIJsEMCPZpE1fEIAABLJDADOSHc70EhABzEhAIGkGAhCAgEUEMCMWiUEo1RPAjFTPiBoQgAAEXCOAGXFNsYjHixmJ+AAgfQhAIJQEMCOhlDW8SWFGwqstmUEAAtElgBmJrvZOZo4ZcVI2goYABCBQJQHMSJV42GgbAcyIbYoQDwQgAIH0CWBG0mdIC1kkgBnJImy6ggAEIJAlApiRLIGmm2AIYEaC4UgrEIAABGwigBmxSQ1iqZYAZqRaRFSAAAQg4BwBzIhzkkU7YMxItPUnewhAIJwEMCPh1DW0WWFGQistiUEAAhEmgBmJsPgupo4ZcVE1YoYABCBQNQHMSNV82GoZAcyIZYIQDgQgAIEACGBGAoBIE9kjgBnJHmt6ggAEIJAtApiRbJGmn0AIYEYCwUgjEIAABKwigBmxSg6CqY4AZqQ6QmyHAAQg4B4BzIh7mkU6YsxIpOUneQhAIKQEMCMhFTasaWFGwqoseUEAAlEmgBmJsvoO5o4ZcVA0QoYABCBQDQHMSDWA2GwXAcyIXXoQDQQgAIEgCGBGgqBIG1kjgBnJGmo6ggAEIJA1ApiRrKGmoyAIYEaCoEgbEIAABOwigBmxSw+iqYYAZqQaQGyGAAQg4CABzIiDokU5ZMxIlNUndwhAIKwEMCNhVTakeWFGQiosaUEAApEmgBmJtPzuJY8ZcU8zIoYABCBQHQHMSHWE2G4VAcyIVXIQDAQgAIFACGBGAsFII9kigBnJFmn6gQAEIJA9ApiR7LGmpwAIYEYCgEgTEIAABCwjgBmxTBDCqZoAZqRqPmyFAAQg4CIBzIiLqkU4ZsxIhMUndQhAILQEMCOhlTaciWFGwqkrWUEAAtEmgBmJtv7OZY8ZcU4yAoYABCBQLQHMSLWIqGATAcyITWoQCwQgAIFgCGBGguFIK1kigBnJEmi6gQAEIJBFApiRLMKmq/QJYEbSZ0gLEIAABGwjgBmxTRHiqZIAZqRKPGyEAAQg4CQBzIiTskU3aMxIdLUncwhAILwEMCPh1TaUmWFGQikrSUEAAhEngBmJ+ABwLX3MiGuKES8EIACB6glgRqpnRA2LCGBGLBKDUCAAAQgERAAzEhBImskOAcxIdjjTCwQgAIFsEsCMZJM2faVNADOSNkIagAAEIGAdAcyIdZIQUFUEMCNV0WEbBCAAATcJYEbc1C2yUWNGIis9iUMAAiEmgBkJsbhhTA0zEkZVyQkCEIg6AcxI1EeAY/ljRhwTjHAhAAEIJEEAM5IEJKrYQwAzYo8WRAIBCEAgKAKYkaBI0k5WCGBGsoKZTiAAAQhklQBmJKu46SxdApiRdAmyPwQgAAH7CGBG7NOEiKoggBmpAg6bIAABCDhKADPiqHBRDRszElXlyRsCEAgzAcxImNUNYW6YkRCKSkoQgEDkCWBGIj8E3AKAGXFLL6KFAAQgkAwBzEgylKhjDQHMiDVSEAgEIACBwAhgRgJDSUPZIIAZyQZl+oAABCCQXQKYkezyprc0CWBG0gTI7hCAAAQsJIAZsVAUQkpMADOSmA1bIAABCLhKADPiqnIRjRszElHhSRsCEAg1AcxIqOUNX3KYkfBpSkYQgAAEMCOMAacIYEackotgIQABCCRFADOSFCYq2UIAM2KLEsQBAQhAIDgCmJHgWNJSFghgRrIAmS4gAAEIZJkAZiTLwOkuPQKYkfT4sTcEIAABGwlgRmxUhZgSEsCMJETDBghAAALOEsCMOCtdNAPHjERTd7KGAATCTQAzEm59Q5cdZiR0kpIQBCAAAWFGGAROEcCMOCUXwUIAAhBIigBmJClMVLKFAGbEFiWIAwIQgEBwBDAjwbGkpSwQwIxkATJdQAACEMgyAcxIloHTXXoEMCPp8WNvCEAAAjYSwIzYqAoxJSSAGUmIhg0QgAAEnCWAGXFWumgGjhmJpu5kDQEIhJsAZiTc+oYuO8xI6CQlIQhAAAJc2ssYcIsAZsQtvYgWAhCAQDIEODKSDCXqWEMAM2KNFAQCAQhAIDACmJHAUNJQNghgRrJBmT4gAAEIZJcAZiS7vOktTQKYkTQBsjsEIAABCwlgRiwUhZASE8CMJGbDFghAAAKuEsCMuKpcROP2MyOmjBcEIAABCLhLgFncXe0iGXkiM4IhieRwIGkIQCAkBDAjIREyKmlgRqKiNHlCAAJRIoAZiZLaIci1KjPC0ZEQCEwKEIBAJAlgRiIpu5tJV2dEKra7mR1RQwACEIguAcxIdLV3KvMKo5HMb6cSI1gIQAACEOB28IwBNwgkY0Iq13EjK6KEAAQgAAFDgCMjjAPrCVQ2GZXfVwReuazy+4rt/IYABCAAAbsJYEbs1ify0VU2F5XfVwZTubzy+8p1eA8BCEAAAvYSwIzYqw2RmUN3nuf7szWcZOttvR9/QwACEIBA7glgRnKvAREkIJCqwfCrn6BpiiEAAQhAwCICmBGLxCCULQT8jIUpq+pVk32qao9tEIAABCCQHQJVz+7ZiYFeIPArAjU1FjXd71cBUAABCEAAAlkjgBnJGmo6SpZAOoYinX2TjY96EIAABCAQLAHMSLA8aS1NAkGYiSDaSDMNdocABCAAgRQIYEZSgEXVzBMIykgE1U7mM6YHCEAAAhDAjDAGrCEQpIEIsi1rABEIBCAAgZASwIyEVFjX0sqEechEm65xJV4IQAACLhDAjLigUgRizJRxyFS7EZCEFCEAAQhkjQBmJGuo6SgRgUwahky2nSgfyiEAAQhAIDUCmJHUeFE7YALZMAvZ6CNgLDQHAQhAIFIEMCORktu+ZLNlFPz6sY8GEUEAAhCIJgHMSDR1tyJrP4NgyjLxymZfmYifNiEAAQiEmUBmZv4wEyO3QAjkwhzkos9AYNEIBCAAgZATwIyEXGBb08uFMchFn7byJy4IQAACNhHAjNikRkRiyaUpyGXfEZGXNCEAAQikTAAzkjIydkiHgA1mwIYY0mHIvhCAAATCRgAzEjZFLc/HBiNgQwyWy0R4EIAABLJKADOSVdzR7swmE2BTLNEeFWQPAQhAQMKMMAqyRsDPAGStc5+ObIvHJ0SKIAABCESCAGYkEjLnPkm/hd+U5fJlY0y55EHfEIAABHJFILerQa6ypt+sErB50bc5tqyKRGcQgAAEckgAM5JD+FHp2m/BtyV3v9hMGS8IQAACEMgeAWbd7LGOZE8uLPYuxBjJwUPSEIBAZAhgRiIjdfYTdWmRdynW7CtJjxCAAAQySwAzklm+kW7dpQXepVgjPahIHgIQCCUBzEgoZc19Ui4u7i7GnHuliQACEIBA+gQwI+kzpIWtCLi8qPvFvlV6/AkBCEAAAgETwIwEDJTmJL8F3ZS58HI5dhf4EiMEIAABPwJurBB+kVNmJYEwLOZhyMHKwUFQEIAABBIQwIwkAENx6gTCsoiHJY/UFWQPCEAAArkhgBnJDfdQ9hqmRTxMuYRysJEUBCAQKgKYkVDJmbtkwrh4hzGn3I0QeoYABCCQmABmJDEbtiRJIKyLdljzSlJWqkEAAhDIGgHMSNZQh7ejMC/aYc4tvCOSzCAAAdcIYEZcU8yyeKOwWPvlaJkMhAMBCEDAaQKYEafly23wfou0KQvbKyp5hk038oEABNwhEL6Vwx32zkcapUU6Srk6PzBJAAIQcI4AZsQ5yewIOGqLc9TytWOUEQUEIBAVApiRqCgdYJ5RXZijmneAQ4emIAABCPgSwIz4YqGwKgJRXpSjnHtVY4JtEIAABNIhgBlJh14E9436Yhz1/CM45EkZAhDIAgHMSBYgh6ULFuK4knAIy4gmDwhAwBYCmBFblHAgDhbhLSL5sdiylXcQgAAEIJAKAcxIKrQiXNdv8TVlUX3BI6rKkzcEIJAJAtFdTTJBM6RtsvD6CwsXfy6UQgACEEiVAGYkVWIRrM+im1h0PzaJa7MFAhCAAAT8CGBG/KhQtpmA32JrynjFCcCHkQABCEAgfQKsKukzDG0LLLTJSQun5DhRCwIQgEAiApiRRGQoF4tscoMATslxohYEIACBRAQwI4nIRLycBTa1AQCv1HhRGwIQgEBlApiRyjR4v5mA3+K6eSNvfAn4MTNlvCAAAQhAoGoCzJRV84nkVhbVmskOt5pxYy8IQAACmBHGwC8IsKD+AkfKf8AvZWTsAAEIQECYEQbBLwj4Laa/qMAf1RKAYbWIqAABCEDgFwQwI7/AEe0//BZRU8YrNQJwTI0XtSEAAQiw0jAGYgRYQIMdCPAMlietQQAC4SaAGQm3vklnx+KZNKqkKsIzKUxUggAEIBAjgBlhIHBzswyNAQxJhsDSLAQgEDoCmJHQSZpaQiyYqfFKtTZ8UyVGfQhAIIoEMCNRVL1SziyWlWBk4C18MwCVJiEAgdARwIyETtLkE2KhTJ5VOjXhnA499oUABKJAADMSBZV9cmSB9IGSwSI/3hnsjqYhAAEIOEUAM+KUXMEF67c4mjJemSEA78xwpVUIQCAcBFh9wqFjSlmwMKaEK7DKcA8MJQ1BAAIhI4AZCZmg1aXDglgdocxth33m2NIyBCDgNgHMiNv6pRw9C2LKyALdAf6B4qQxCEAgJAQwIyERMpk0WAiToZT5OuiQecb0AAEIuEUAM+KWXjWOlgWwxugC3xEtAkdKgxCAgOMEMCOOC5hs+CyAyZLKTj30yA5neoEABNwggBlxQ6e0omThSwtfxnb20yVjndEwBCAAAYsJYEYsFieI0PwWPFPGK/cE0Cb3GhABBCBgBwFWJTt0yFgULHgZQxtIw+gTCEYagQAEHCeAGXFcwKrCZ6Grio4d29DIDh2IAgIQyC0BzEhu+Wesdxa5jKENvGG0ChwpDUIAAo4RwIw4Jliy4bLAJUvKjnroZYcORAEBCOSGAGYkN9wz2isLW0bxZqRxNMsIVhqFAAQcIYAZcUSoZMNkUUuWlH310M4+TYgIAhDIDgHMSHY4Z60XFrSsoc5IR376ZaQjGoUABCBgEQHMiEVipBuK30Jmyni5QwAN3dGKSCEAgeAIsFIFxzKnLbGI5RR/oJ2jZaA4aQwCEHCAAGbEAZGSCZEFLBlKbtRBSzd0IkoIQCA4ApiR4FjmrCUWr5yhz1jHaJoxtDQMAQhYSAAzYqEoqYbkt3Cl2gb17SPgp6sp4wUBCEAgbASY2RxXlAXLcQGrCB9tq4DDJghAIFQEMCMOy8li5bB4SYaOxkmCohoEIOA0AcyIw/L5LVQOp0PoCQj46WzKeEEAAhAICwFmNEeVZIFyVLgahI3WNYDGLhCAgFMEMCNOyRUPlsXJQdHSDBnN0wTI7hCAgNUEMCNWy+MfHAuTP5ewl/rpHvacyQ8CEIgGAcyIYzr7LUimjFf4CaB9+DUmQwhElQCrmEPKsxg5JFaGQmUMZAgszUIAAjklgBnJKf7UOmchSo1XGGszBsKoKjlBAAKYEUfGAIuQI0JlIUzGQhYg0wUEIJBVApiRrOKuWWcsPjXjFua9GBNhVpfcIBA9ApgRBzRn4XFApCyHyJjIMnC6gwAEMkoAM5JRvOk3zqKTPsOwtsDYCKuy5AWB6BHAjFisOYuNxeJYEprfGLEkNMKAAAQgkDQBzEjSqLJf0W+hMWW8IFBBgDFSQYLfEICAywRY2SxVj0XGUmEsDIuxYqEohAQBCKREADOSEq7sVGZxyQ7nsPTCeAmLkuQBgegSwIxYqD2Li4WiWB4SY8ZygQgPAhCokgBmpEo82d/IopJ95mHpkbETFiXJAwLRI4AZsUhzFhOLxHAwFMaPg6IRMgQgECOAGbFoILCYWCSGo6EwhhwVjrAhEHECmBFLBgCLiCVChCAMv7EUgrRIAQIQCDEBzIgF4votHqaMFwRqQoDxVBNq7AMBCOSSACteLumX983iYYEIIQuBMRUyQUkHAiEngBnJscAsGjkWIKTdM65CKixpQSCkBDAjORSWBSOH8CPQNeMrAiKTIgRCQgAzkkMhWSxyCD8iXTPGIiI0aULAcQKYkRwJyCKRI/AR65ZxFjHBSRcCjhLAjORAOBaIHECPcJeMtwiLT+oQcIQAZiQHQrE45AB6xLv0G3MRR0L6EICARQQwI1kWw29RMGW8IJBJAoy7TNKlbQhAIF0CrILpEkxxf79FIcUmqA6BGhHwG3sY4RqhZCcIQCBgApiRgIFW1RyLQVV02JZpAoy/TBOmfQhAoKYEMCM1JZfifiwEKQKjekYIMA4zgpVGIQCBNAlgRtIEmOzufotAsvtSDwJBEvAbi6aMFwQgAIFcEWAGygJ5Jv8sQKaLpAkwHpNGRUUIQCBLBDAjGQbNxJ9hwDRfIwKMyxphYycIQCBDBDAjGQJb0SyTfgUJfttGgLFpmyLEA4HoEsCMZFB7JvsMwqXptAkwPtNGSAMQgEBABDAjAYHcuhkm+q2J8LeNBBinNqpCTBCIHgHMSIY0Z5LPEFiaDZyA31gNvBMahAAEIFAFAcxIFXBquslvcjdlvCBgIwHGq42qEBMEokWAFTJgvZnYAwZKc1khwLjNCmY6gQAEEhDAjCQAU9NiJvWakmO/XBJg3OaSPn1DAAKYkQDHABN6gDBpKusEGL9ZR06HEIBAOQHMSEBDgYk8IJA0k1MCjOOc4qdzCESWAGYkIOmZxAMCSTM5JcA4zil+OodAZAlgRgKQngk8AIg0YQ0BxrM1UhAIBCJDADOSptRM3GkCZHcrCfiNaysDJSgIQCAUBDAjacroN2mbMl4QcJkA49pl9YgdAu4RYNVMQzMm7DTgsav1BBjf1ktEgBAIDQHMSA2lZKKuITh2c4YAY9wZqQgUAs4TwIzUUEIm6hqCYzenCDDOnZKLYCHgLAHMSA2kY4KuATR2cZYA491Z6QgcAs4Q+H8haB5auxqq8AAAAABJRU5ErkJggg==;" vertex="1" parent="1">
          <mxGeometry x="1009.26" y="-316" width="185.48" height="195.32" as="geometry" />
        </mxCell>
        <mxCell id="4EBb9_S77bTPxn-zLxTV-119" value="" style="outlineConnect=0;fontColor=#232F3E;gradientColor=#945DF2;gradientDirection=north;fillColor=#5A30B5;strokeColor=#ffffff;dashed=0;verticalLabelPosition=bottom;verticalAlign=top;align=center;html=1;fontSize=12;fontStyle=0;aspect=fixed;shape=mxgraph.aws4.resourceIcon;resIcon=mxgraph.aws4.cloudfront;" vertex="1" parent="1">
          <mxGeometry x="1099.13" y="-40" width="40" height="40" as="geometry" />
        </mxCell>
        <mxCell id="4EBb9_S77bTPxn-zLxTV-120" value="&lt;font style=&quot;font-size: 9px&quot;&gt;CloudFront&lt;/font&gt;" style="text;html=1;strokeColor=none;fillColor=none;align=center;verticalAlign=middle;whiteSpace=wrap;rounded=0;dashed=1;" vertex="1" parent="1">
          <mxGeometry x="1099.13" y="-60" width="40" height="20" as="geometry" />
        </mxCell>
        <mxCell id="4EBb9_S77bTPxn-zLxTV-121" value="" style="outlineConnect=0;fontColor=#232F3E;gradientColor=#F54749;gradientDirection=north;fillColor=#C7131F;strokeColor=#ffffff;dashed=0;verticalLabelPosition=bottom;verticalAlign=top;align=center;html=1;fontSize=12;fontStyle=0;aspect=fixed;shape=mxgraph.aws4.resourceIcon;resIcon=mxgraph.aws4.waf;" vertex="1" parent="1">
          <mxGeometry x="980.0000000000001" y="-40" width="40" height="40" as="geometry" />
        </mxCell>
        <mxCell id="4EBb9_S77bTPxn-zLxTV-122" value="WAF" style="text;html=1;strokeColor=none;fillColor=none;align=center;verticalAlign=middle;whiteSpace=wrap;rounded=0;" vertex="1" parent="1">
          <mxGeometry x="980" width="40" height="20" as="geometry" />
        </mxCell>
        <mxCell id="4EBb9_S77bTPxn-zLxTV-123" value="" style="outlineConnect=0;fontColor=#232F3E;gradientColor=#F54749;gradientDirection=north;fillColor=#C7131F;strokeColor=#ffffff;dashed=0;verticalLabelPosition=bottom;verticalAlign=top;align=center;html=1;fontSize=12;fontStyle=0;aspect=fixed;shape=mxgraph.aws4.resourceIcon;resIcon=mxgraph.aws4.shield;" vertex="1" parent="1">
          <mxGeometry x="1160.0000000000002" y="-40" width="40" height="40" as="geometry" />
        </mxCell>
        <mxCell id="4EBb9_S77bTPxn-zLxTV-124" value="Shield" style="text;html=1;strokeColor=none;fillColor=none;align=center;verticalAlign=middle;whiteSpace=wrap;rounded=0;" vertex="1" parent="1">
          <mxGeometry x="1160.8700000000001" width="40" height="20" as="geometry" />
        </mxCell>
        <mxCell id="4EBb9_S77bTPxn-zLxTV-125" value="" style="edgeStyle=orthogonalEdgeStyle;html=1;endArrow=none;elbow=vertical;startArrow=block;startFill=1;strokeColor=#545B64;rounded=0;" edge="1" parent="1" source="4EBb9_S77bTPxn-zLxTV-136">
          <mxGeometry width="100" relative="1" as="geometry">
            <mxPoint x="620" y="72" as="sourcePoint" />
            <mxPoint x="1110" as="targetPoint" />
            <Array as="points">
              <mxPoint x="1110" y="80" />
            </Array>
          </mxGeometry>
        </mxCell>
        <mxCell id="4EBb9_S77bTPxn-zLxTV-126" value="" style="edgeStyle=orthogonalEdgeStyle;html=1;endArrow=block;elbow=vertical;startArrow=none;endFill=1;strokeColor=#545B64;rounded=0;" edge="1" parent="1" source="4EBb9_S77bTPxn-zLxTV-119" target="4EBb9_S77bTPxn-zLxTV-141">
          <mxGeometry width="100" relative="1" as="geometry">
            <mxPoint x="1080" y="55" as="sourcePoint" />
            <mxPoint x="1603.6912500000003" y="72.17000000000007" as="targetPoint" />
            <Array as="points">
              <mxPoint x="1130" y="80" />
            </Array>
          </mxGeometry>
        </mxCell>
        <mxCell id="4EBb9_S77bTPxn-zLxTV-127" value="" style="outlineConnect=0;fontColor=#232F3E;gradientColor=#945DF2;gradientDirection=north;fillColor=#5A30B5;strokeColor=#ffffff;dashed=0;verticalLabelPosition=bottom;verticalAlign=top;align=center;html=1;fontSize=12;fontStyle=0;aspect=fixed;shape=mxgraph.aws4.resourceIcon;resIcon=mxgraph.aws4.route_53;" vertex="1" parent="1">
          <mxGeometry x="1040" y="-40" width="40" height="40" as="geometry" />
        </mxCell>
        <mxCell id="4EBb9_S77bTPxn-zLxTV-128" value="&lt;font style=&quot;font-size: 9px&quot;&gt;Route 53&lt;/font&gt;" style="text;html=1;strokeColor=none;fillColor=none;align=center;verticalAlign=middle;whiteSpace=wrap;rounded=0;dashed=1;" vertex="1" parent="1">
          <mxGeometry x="1030" y="-60" width="60" height="20" as="geometry" />
        </mxCell>
        <mxCell id="4EBb9_S77bTPxn-zLxTV-129" value="" style="edgeStyle=orthogonalEdgeStyle;html=1;endArrow=none;elbow=vertical;startArrow=block;startFill=1;rounded=0;strokeColor=#006633;" edge="1" parent="1" source="4EBb9_S77bTPxn-zLxTV-136" target="4EBb9_S77bTPxn-zLxTV-127">
          <mxGeometry width="100" relative="1" as="geometry">
            <mxPoint x="580" y="70" as="sourcePoint" />
            <mxPoint x="1046" y="-30" as="targetPoint" />
            <Array as="points">
              <mxPoint x="580" y="50" />
              <mxPoint x="1046" y="50" />
            </Array>
          </mxGeometry>
        </mxCell>
        <mxCell id="4EBb9_S77bTPxn-zLxTV-131" value="Health Check" style="edgeLabel;html=1;align=center;verticalAlign=middle;resizable=0;points=[];" vertex="1" connectable="0" parent="4EBb9_S77bTPxn-zLxTV-129">
          <mxGeometry x="-0.0892" y="2" relative="1" as="geometry">
            <mxPoint as="offset" />
          </mxGeometry>
        </mxCell>
        <mxCell id="4EBb9_S77bTPxn-zLxTV-130" value="" style="edgeStyle=orthogonalEdgeStyle;html=1;endArrow=block;elbow=vertical;startArrow=none;endFill=1;rounded=0;strokeColor=#006633;" edge="1" parent="1" source="4EBb9_S77bTPxn-zLxTV-127" target="4EBb9_S77bTPxn-zLxTV-141">
          <mxGeometry width="100" relative="1" as="geometry">
            <mxPoint x="1260" y="60" as="sourcePoint" />
            <mxPoint x="1600" y="50" as="targetPoint" />
            <Array as="points">
              <mxPoint x="1070" y="50" />
              <mxPoint x="1616" y="50" />
            </Array>
          </mxGeometry>
        </mxCell>
        <mxCell id="4EBb9_S77bTPxn-zLxTV-132" value="Health Check" style="edgeLabel;html=1;align=center;verticalAlign=middle;resizable=0;points=[];" vertex="1" connectable="0" parent="4EBb9_S77bTPxn-zLxTV-130">
          <mxGeometry x="0.0084" y="2" relative="1" as="geometry">
            <mxPoint as="offset" />
          </mxGeometry>
        </mxCell>
        <mxCell id="4EBb9_S77bTPxn-zLxTV-136" value="" style="outlineConnect=0;fontColor=#232F3E;gradientColor=none;fillColor=#5A30B5;strokeColor=none;dashed=0;verticalLabelPosition=bottom;verticalAlign=top;align=center;html=1;fontSize=12;fontStyle=0;aspect=fixed;pointerEvents=1;shape=mxgraph.aws4.internet_gateway;" vertex="1" parent="1">
          <mxGeometry x="557.32" y="60" width="48" height="48" as="geometry" />
        </mxCell>
        <mxCell id="4EBb9_S77bTPxn-zLxTV-139" value="" style="edgeStyle=orthogonalEdgeStyle;html=1;endArrow=block;elbow=vertical;startArrow=none;endFill=1;strokeColor=#545B64;rounded=0;" edge="1" parent="1" target="zVxx0Tfb6Su1z6snV0Rm-46">
          <mxGeometry width="100" relative="1" as="geometry">
            <mxPoint x="580" y="108" as="sourcePoint" />
            <mxPoint x="680" y="108" as="targetPoint" />
          </mxGeometry>
        </mxCell>
        <mxCell id="4EBb9_S77bTPxn-zLxTV-140" value="&lt;font style=&quot;font-size: 9px&quot;&gt;IGW&lt;/font&gt;" style="text;html=1;strokeColor=none;fillColor=none;align=center;verticalAlign=middle;whiteSpace=wrap;rounded=0;dashed=1;" vertex="1" parent="1">
          <mxGeometry x="530" y="60" width="40" height="20" as="geometry" />
        </mxCell>
        <mxCell id="4EBb9_S77bTPxn-zLxTV-141" value="" style="outlineConnect=0;fontColor=#232F3E;gradientColor=none;fillColor=#5A30B5;strokeColor=none;dashed=0;verticalLabelPosition=bottom;verticalAlign=top;align=center;html=1;fontSize=12;fontStyle=0;aspect=fixed;pointerEvents=1;shape=mxgraph.aws4.internet_gateway;" vertex="1" parent="1">
          <mxGeometry x="1592" y="60" width="48" height="48" as="geometry" />
        </mxCell>
        <mxCell id="4EBb9_S77bTPxn-zLxTV-143" value="&lt;font style=&quot;font-size: 9px&quot;&gt;IGW&lt;/font&gt;" style="text;html=1;strokeColor=none;fillColor=none;align=center;verticalAlign=middle;whiteSpace=wrap;rounded=0;dashed=1;" vertex="1" parent="1">
          <mxGeometry x="1626" y="52" width="40" height="20" as="geometry" />
        </mxCell>
        <mxCell id="4EBb9_S77bTPxn-zLxTV-144" value="" style="edgeStyle=orthogonalEdgeStyle;html=1;endArrow=block;elbow=vertical;startArrow=none;endFill=1;strokeColor=#545B64;rounded=0;" edge="1" parent="1">
          <mxGeometry width="100" relative="1" as="geometry">
            <mxPoint x="1617" y="107" as="sourcePoint" />
            <mxPoint x="1617" y="169.5" as="targetPoint" />
            <Array as="points">
              <mxPoint x="1617" y="138" />
              <mxPoint x="1617" y="138" />
            </Array>
          </mxGeometry>
        </mxCell>
        <mxCell id="4EBb9_S77bTPxn-zLxTV-146" value="" style="edgeStyle=orthogonalEdgeStyle;html=1;endArrow=block;elbow=vertical;startArrow=none;endFill=1;strokeColor=#545B64;rounded=0;entryX=0.5;entryY=0;entryDx=0;entryDy=0;" edge="1" parent="1" target="4EBb9_S77bTPxn-zLxTV-1">
          <mxGeometry width="100" relative="1" as="geometry">
            <mxPoint x="1090" y="-121.68" as="sourcePoint" />
            <mxPoint x="1190" y="-121.68" as="targetPoint" />
          </mxGeometry>
        </mxCell>
        <mxCell id="4EBb9_S77bTPxn-zLxTV-147" value="" style="outlineConnect=0;fontColor=#232F3E;gradientColor=#4D72F3;gradientDirection=north;fillColor=#3334B9;strokeColor=#ffffff;dashed=0;verticalLabelPosition=bottom;verticalAlign=top;align=center;html=1;fontSize=12;fontStyle=0;aspect=fixed;shape=mxgraph.aws4.resourceIcon;resIcon=mxgraph.aws4.rds;" vertex="1" parent="1">
          <mxGeometry x="1777.5" y="483.75" width="49.5" height="49.5" as="geometry" />
        </mxCell>
        <mxCell id="4EBb9_S77bTPxn-zLxTV-148" value="RDS (Backup)" style="text;html=1;strokeColor=none;fillColor=none;align=center;verticalAlign=middle;whiteSpace=wrap;rounded=0;" vertex="1" parent="1">
          <mxGeometry x="1770" y="538.5" width="64.5" height="20" as="geometry" />
        </mxCell>
      </root>
    </mxGraphModel>
  </diagram>
</mxfile>
